%TF.GenerationSoftware,KiCad,Pcbnew,10.0.3*%
%TF.CreationDate,2026-09-28T13:11:20+01:00*%
%TF.ProjectId,default,64656661-756c-4742-9e6b-696361645f70,rev?*%
%TF.SameCoordinates,Original*%
%TF.FileFunction,Legend,Top*%
%TF.FilePolarity,Positive*%
%FSLAX46Y46*%
G04 Gerber Fmt 4.6, Leading zero omitted, Abs format (unit mm)*
G04 Created by KiCad (PCBNEW 10.0.3) date 2026-09-28 13:11:20*
%MOMM*%
%LPD*%
G01*
G04 APERTURE LIST*
%ADD10C,0.150000*%
%ADD11C,0.120000*%
G04 APERTURE END LIST*
D10*
X68238095Y-47956819D02*
X68809523Y-47956819D01*
X68523809Y-48956819D02*
X68523809Y-47956819D01*
X69142857Y-48956819D02*
X69142857Y-47956819D01*
X69142857Y-47956819D02*
X69523809Y-47956819D01*
X69523809Y-47956819D02*
X69619047Y-48004438D01*
X69619047Y-48004438D02*
X69666666Y-48052057D01*
X69666666Y-48052057D02*
X69714285Y-48147295D01*
X69714285Y-48147295D02*
X69714285Y-48290152D01*
X69714285Y-48290152D02*
X69666666Y-48385390D01*
X69666666Y-48385390D02*
X69619047Y-48433009D01*
X69619047Y-48433009D02*
X69523809Y-48480628D01*
X69523809Y-48480628D02*
X69142857Y-48480628D01*
X70095238Y-48052057D02*
X70142857Y-48004438D01*
X70142857Y-48004438D02*
X70238095Y-47956819D01*
X70238095Y-47956819D02*
X70476190Y-47956819D01*
X70476190Y-47956819D02*
X70571428Y-48004438D01*
X70571428Y-48004438D02*
X70619047Y-48052057D01*
X70619047Y-48052057D02*
X70666666Y-48147295D01*
X70666666Y-48147295D02*
X70666666Y-48242533D01*
X70666666Y-48242533D02*
X70619047Y-48385390D01*
X70619047Y-48385390D02*
X70047619Y-48956819D01*
X70047619Y-48956819D02*
X70666666Y-48956819D01*
X5416667Y-56336200D02*
X5559524Y-56383819D01*
X5559524Y-56383819D02*
X5797619Y-56383819D01*
X5797619Y-56383819D02*
X5892857Y-56336200D01*
X5892857Y-56336200D02*
X5940476Y-56288580D01*
X5940476Y-56288580D02*
X5988095Y-56193342D01*
X5988095Y-56193342D02*
X5988095Y-56098104D01*
X5988095Y-56098104D02*
X5940476Y-56002866D01*
X5940476Y-56002866D02*
X5892857Y-55955247D01*
X5892857Y-55955247D02*
X5797619Y-55907628D01*
X5797619Y-55907628D02*
X5607143Y-55860009D01*
X5607143Y-55860009D02*
X5511905Y-55812390D01*
X5511905Y-55812390D02*
X5464286Y-55764771D01*
X5464286Y-55764771D02*
X5416667Y-55669533D01*
X5416667Y-55669533D02*
X5416667Y-55574295D01*
X5416667Y-55574295D02*
X5464286Y-55479057D01*
X5464286Y-55479057D02*
X5511905Y-55431438D01*
X5511905Y-55431438D02*
X5607143Y-55383819D01*
X5607143Y-55383819D02*
X5845238Y-55383819D01*
X5845238Y-55383819D02*
X5988095Y-55431438D01*
X6321429Y-55383819D02*
X6559524Y-56383819D01*
X6559524Y-56383819D02*
X6750000Y-55669533D01*
X6750000Y-55669533D02*
X6940476Y-56383819D01*
X6940476Y-56383819D02*
X7178572Y-55383819D01*
X8083333Y-56383819D02*
X7511905Y-56383819D01*
X7797619Y-56383819D02*
X7797619Y-55383819D01*
X7797619Y-55383819D02*
X7702381Y-55526676D01*
X7702381Y-55526676D02*
X7607143Y-55621914D01*
X7607143Y-55621914D02*
X7511905Y-55669533D01*
X17440476Y-80336200D02*
X17583333Y-80383819D01*
X17583333Y-80383819D02*
X17821428Y-80383819D01*
X17821428Y-80383819D02*
X17916666Y-80336200D01*
X17916666Y-80336200D02*
X17964285Y-80288580D01*
X17964285Y-80288580D02*
X18011904Y-80193342D01*
X18011904Y-80193342D02*
X18011904Y-80098104D01*
X18011904Y-80098104D02*
X17964285Y-80002866D01*
X17964285Y-80002866D02*
X17916666Y-79955247D01*
X17916666Y-79955247D02*
X17821428Y-79907628D01*
X17821428Y-79907628D02*
X17630952Y-79860009D01*
X17630952Y-79860009D02*
X17535714Y-79812390D01*
X17535714Y-79812390D02*
X17488095Y-79764771D01*
X17488095Y-79764771D02*
X17440476Y-79669533D01*
X17440476Y-79669533D02*
X17440476Y-79574295D01*
X17440476Y-79574295D02*
X17488095Y-79479057D01*
X17488095Y-79479057D02*
X17535714Y-79431438D01*
X17535714Y-79431438D02*
X17630952Y-79383819D01*
X17630952Y-79383819D02*
X17869047Y-79383819D01*
X17869047Y-79383819D02*
X18011904Y-79431438D01*
X18345238Y-79383819D02*
X18583333Y-80383819D01*
X18583333Y-80383819D02*
X18773809Y-79669533D01*
X18773809Y-79669533D02*
X18964285Y-80383819D01*
X18964285Y-80383819D02*
X19202381Y-79383819D01*
X19488095Y-79383819D02*
X20107142Y-79383819D01*
X20107142Y-79383819D02*
X19773809Y-79764771D01*
X19773809Y-79764771D02*
X19916666Y-79764771D01*
X19916666Y-79764771D02*
X20011904Y-79812390D01*
X20011904Y-79812390D02*
X20059523Y-79860009D01*
X20059523Y-79860009D02*
X20107142Y-79955247D01*
X20107142Y-79955247D02*
X20107142Y-80193342D01*
X20107142Y-80193342D02*
X20059523Y-80288580D01*
X20059523Y-80288580D02*
X20011904Y-80336200D01*
X20011904Y-80336200D02*
X19916666Y-80383819D01*
X19916666Y-80383819D02*
X19630952Y-80383819D01*
X19630952Y-80383819D02*
X19535714Y-80336200D01*
X19535714Y-80336200D02*
X19488095Y-80288580D01*
X20678571Y-79812390D02*
X20583333Y-79764771D01*
X20583333Y-79764771D02*
X20535714Y-79717152D01*
X20535714Y-79717152D02*
X20488095Y-79621914D01*
X20488095Y-79621914D02*
X20488095Y-79574295D01*
X20488095Y-79574295D02*
X20535714Y-79479057D01*
X20535714Y-79479057D02*
X20583333Y-79431438D01*
X20583333Y-79431438D02*
X20678571Y-79383819D01*
X20678571Y-79383819D02*
X20869047Y-79383819D01*
X20869047Y-79383819D02*
X20964285Y-79431438D01*
X20964285Y-79431438D02*
X21011904Y-79479057D01*
X21011904Y-79479057D02*
X21059523Y-79574295D01*
X21059523Y-79574295D02*
X21059523Y-79621914D01*
X21059523Y-79621914D02*
X21011904Y-79717152D01*
X21011904Y-79717152D02*
X20964285Y-79764771D01*
X20964285Y-79764771D02*
X20869047Y-79812390D01*
X20869047Y-79812390D02*
X20678571Y-79812390D01*
X20678571Y-79812390D02*
X20583333Y-79860009D01*
X20583333Y-79860009D02*
X20535714Y-79907628D01*
X20535714Y-79907628D02*
X20488095Y-80002866D01*
X20488095Y-80002866D02*
X20488095Y-80193342D01*
X20488095Y-80193342D02*
X20535714Y-80288580D01*
X20535714Y-80288580D02*
X20583333Y-80336200D01*
X20583333Y-80336200D02*
X20678571Y-80383819D01*
X20678571Y-80383819D02*
X20869047Y-80383819D01*
X20869047Y-80383819D02*
X20964285Y-80336200D01*
X20964285Y-80336200D02*
X21011904Y-80288580D01*
X21011904Y-80288580D02*
X21059523Y-80193342D01*
X21059523Y-80193342D02*
X21059523Y-80002866D01*
X21059523Y-80002866D02*
X21011904Y-79907628D01*
X21011904Y-79907628D02*
X20964285Y-79860009D01*
X20964285Y-79860009D02*
X20869047Y-79812390D01*
X55416667Y-56336200D02*
X55559524Y-56383819D01*
X55559524Y-56383819D02*
X55797619Y-56383819D01*
X55797619Y-56383819D02*
X55892857Y-56336200D01*
X55892857Y-56336200D02*
X55940476Y-56288580D01*
X55940476Y-56288580D02*
X55988095Y-56193342D01*
X55988095Y-56193342D02*
X55988095Y-56098104D01*
X55988095Y-56098104D02*
X55940476Y-56002866D01*
X55940476Y-56002866D02*
X55892857Y-55955247D01*
X55892857Y-55955247D02*
X55797619Y-55907628D01*
X55797619Y-55907628D02*
X55607143Y-55860009D01*
X55607143Y-55860009D02*
X55511905Y-55812390D01*
X55511905Y-55812390D02*
X55464286Y-55764771D01*
X55464286Y-55764771D02*
X55416667Y-55669533D01*
X55416667Y-55669533D02*
X55416667Y-55574295D01*
X55416667Y-55574295D02*
X55464286Y-55479057D01*
X55464286Y-55479057D02*
X55511905Y-55431438D01*
X55511905Y-55431438D02*
X55607143Y-55383819D01*
X55607143Y-55383819D02*
X55845238Y-55383819D01*
X55845238Y-55383819D02*
X55988095Y-55431438D01*
X56321429Y-55383819D02*
X56559524Y-56383819D01*
X56559524Y-56383819D02*
X56750000Y-55669533D01*
X56750000Y-55669533D02*
X56940476Y-56383819D01*
X56940476Y-56383819D02*
X57178572Y-55383819D01*
X58035714Y-55383819D02*
X57559524Y-55383819D01*
X57559524Y-55383819D02*
X57511905Y-55860009D01*
X57511905Y-55860009D02*
X57559524Y-55812390D01*
X57559524Y-55812390D02*
X57654762Y-55764771D01*
X57654762Y-55764771D02*
X57892857Y-55764771D01*
X57892857Y-55764771D02*
X57988095Y-55812390D01*
X57988095Y-55812390D02*
X58035714Y-55860009D01*
X58035714Y-55860009D02*
X58083333Y-55955247D01*
X58083333Y-55955247D02*
X58083333Y-56193342D01*
X58083333Y-56193342D02*
X58035714Y-56288580D01*
X58035714Y-56288580D02*
X57988095Y-56336200D01*
X57988095Y-56336200D02*
X57892857Y-56383819D01*
X57892857Y-56383819D02*
X57654762Y-56383819D01*
X57654762Y-56383819D02*
X57559524Y-56336200D01*
X57559524Y-56336200D02*
X57511905Y-56288580D01*
X30416667Y-56336200D02*
X30559524Y-56383819D01*
X30559524Y-56383819D02*
X30797619Y-56383819D01*
X30797619Y-56383819D02*
X30892857Y-56336200D01*
X30892857Y-56336200D02*
X30940476Y-56288580D01*
X30940476Y-56288580D02*
X30988095Y-56193342D01*
X30988095Y-56193342D02*
X30988095Y-56098104D01*
X30988095Y-56098104D02*
X30940476Y-56002866D01*
X30940476Y-56002866D02*
X30892857Y-55955247D01*
X30892857Y-55955247D02*
X30797619Y-55907628D01*
X30797619Y-55907628D02*
X30607143Y-55860009D01*
X30607143Y-55860009D02*
X30511905Y-55812390D01*
X30511905Y-55812390D02*
X30464286Y-55764771D01*
X30464286Y-55764771D02*
X30416667Y-55669533D01*
X30416667Y-55669533D02*
X30416667Y-55574295D01*
X30416667Y-55574295D02*
X30464286Y-55479057D01*
X30464286Y-55479057D02*
X30511905Y-55431438D01*
X30511905Y-55431438D02*
X30607143Y-55383819D01*
X30607143Y-55383819D02*
X30845238Y-55383819D01*
X30845238Y-55383819D02*
X30988095Y-55431438D01*
X31321429Y-55383819D02*
X31559524Y-56383819D01*
X31559524Y-56383819D02*
X31750000Y-55669533D01*
X31750000Y-55669533D02*
X31940476Y-56383819D01*
X31940476Y-56383819D02*
X32178572Y-55383819D01*
X32464286Y-55383819D02*
X33083333Y-55383819D01*
X33083333Y-55383819D02*
X32750000Y-55764771D01*
X32750000Y-55764771D02*
X32892857Y-55764771D01*
X32892857Y-55764771D02*
X32988095Y-55812390D01*
X32988095Y-55812390D02*
X33035714Y-55860009D01*
X33035714Y-55860009D02*
X33083333Y-55955247D01*
X33083333Y-55955247D02*
X33083333Y-56193342D01*
X33083333Y-56193342D02*
X33035714Y-56288580D01*
X33035714Y-56288580D02*
X32988095Y-56336200D01*
X32988095Y-56336200D02*
X32892857Y-56383819D01*
X32892857Y-56383819D02*
X32607143Y-56383819D01*
X32607143Y-56383819D02*
X32511905Y-56336200D01*
X32511905Y-56336200D02*
X32464286Y-56288580D01*
X2548095Y-50396819D02*
X3119523Y-50396819D01*
X2833809Y-51396819D02*
X2833809Y-50396819D01*
X3452857Y-51396819D02*
X3452857Y-50396819D01*
X3452857Y-50396819D02*
X3833809Y-50396819D01*
X3833809Y-50396819D02*
X3929047Y-50444438D01*
X3929047Y-50444438D02*
X3976666Y-50492057D01*
X3976666Y-50492057D02*
X4024285Y-50587295D01*
X4024285Y-50587295D02*
X4024285Y-50730152D01*
X4024285Y-50730152D02*
X3976666Y-50825390D01*
X3976666Y-50825390D02*
X3929047Y-50873009D01*
X3929047Y-50873009D02*
X3833809Y-50920628D01*
X3833809Y-50920628D02*
X3452857Y-50920628D01*
X4357619Y-50396819D02*
X4976666Y-50396819D01*
X4976666Y-50396819D02*
X4643333Y-50777771D01*
X4643333Y-50777771D02*
X4786190Y-50777771D01*
X4786190Y-50777771D02*
X4881428Y-50825390D01*
X4881428Y-50825390D02*
X4929047Y-50873009D01*
X4929047Y-50873009D02*
X4976666Y-50968247D01*
X4976666Y-50968247D02*
X4976666Y-51206342D01*
X4976666Y-51206342D02*
X4929047Y-51301580D01*
X4929047Y-51301580D02*
X4881428Y-51349200D01*
X4881428Y-51349200D02*
X4786190Y-51396819D01*
X4786190Y-51396819D02*
X4500476Y-51396819D01*
X4500476Y-51396819D02*
X4405238Y-51349200D01*
X4405238Y-51349200D02*
X4357619Y-51301580D01*
X67440476Y-80336200D02*
X67583333Y-80383819D01*
X67583333Y-80383819D02*
X67821428Y-80383819D01*
X67821428Y-80383819D02*
X67916666Y-80336200D01*
X67916666Y-80336200D02*
X67964285Y-80288580D01*
X67964285Y-80288580D02*
X68011904Y-80193342D01*
X68011904Y-80193342D02*
X68011904Y-80098104D01*
X68011904Y-80098104D02*
X67964285Y-80002866D01*
X67964285Y-80002866D02*
X67916666Y-79955247D01*
X67916666Y-79955247D02*
X67821428Y-79907628D01*
X67821428Y-79907628D02*
X67630952Y-79860009D01*
X67630952Y-79860009D02*
X67535714Y-79812390D01*
X67535714Y-79812390D02*
X67488095Y-79764771D01*
X67488095Y-79764771D02*
X67440476Y-79669533D01*
X67440476Y-79669533D02*
X67440476Y-79574295D01*
X67440476Y-79574295D02*
X67488095Y-79479057D01*
X67488095Y-79479057D02*
X67535714Y-79431438D01*
X67535714Y-79431438D02*
X67630952Y-79383819D01*
X67630952Y-79383819D02*
X67869047Y-79383819D01*
X67869047Y-79383819D02*
X68011904Y-79431438D01*
X68345238Y-79383819D02*
X68583333Y-80383819D01*
X68583333Y-80383819D02*
X68773809Y-79669533D01*
X68773809Y-79669533D02*
X68964285Y-80383819D01*
X68964285Y-80383819D02*
X69202381Y-79383819D01*
X70107142Y-80383819D02*
X69535714Y-80383819D01*
X69821428Y-80383819D02*
X69821428Y-79383819D01*
X69821428Y-79383819D02*
X69726190Y-79526676D01*
X69726190Y-79526676D02*
X69630952Y-79621914D01*
X69630952Y-79621914D02*
X69535714Y-79669533D01*
X70440476Y-79383819D02*
X71107142Y-79383819D01*
X71107142Y-79383819D02*
X70678571Y-80383819D01*
X51190476Y-115524200D02*
X51333333Y-115571819D01*
X51333333Y-115571819D02*
X51571428Y-115571819D01*
X51571428Y-115571819D02*
X51666666Y-115524200D01*
X51666666Y-115524200D02*
X51714285Y-115476580D01*
X51714285Y-115476580D02*
X51761904Y-115381342D01*
X51761904Y-115381342D02*
X51761904Y-115286104D01*
X51761904Y-115286104D02*
X51714285Y-115190866D01*
X51714285Y-115190866D02*
X51666666Y-115143247D01*
X51666666Y-115143247D02*
X51571428Y-115095628D01*
X51571428Y-115095628D02*
X51380952Y-115048009D01*
X51380952Y-115048009D02*
X51285714Y-115000390D01*
X51285714Y-115000390D02*
X51238095Y-114952771D01*
X51238095Y-114952771D02*
X51190476Y-114857533D01*
X51190476Y-114857533D02*
X51190476Y-114762295D01*
X51190476Y-114762295D02*
X51238095Y-114667057D01*
X51238095Y-114667057D02*
X51285714Y-114619438D01*
X51285714Y-114619438D02*
X51380952Y-114571819D01*
X51380952Y-114571819D02*
X51619047Y-114571819D01*
X51619047Y-114571819D02*
X51761904Y-114619438D01*
X52095238Y-114571819D02*
X52333333Y-115571819D01*
X52333333Y-115571819D02*
X52523809Y-114857533D01*
X52523809Y-114857533D02*
X52714285Y-115571819D01*
X52714285Y-115571819D02*
X52952381Y-114571819D01*
X53238095Y-114571819D02*
X53857142Y-114571819D01*
X53857142Y-114571819D02*
X53523809Y-114952771D01*
X53523809Y-114952771D02*
X53666666Y-114952771D01*
X53666666Y-114952771D02*
X53761904Y-115000390D01*
X53761904Y-115000390D02*
X53809523Y-115048009D01*
X53809523Y-115048009D02*
X53857142Y-115143247D01*
X53857142Y-115143247D02*
X53857142Y-115381342D01*
X53857142Y-115381342D02*
X53809523Y-115476580D01*
X53809523Y-115476580D02*
X53761904Y-115524200D01*
X53761904Y-115524200D02*
X53666666Y-115571819D01*
X53666666Y-115571819D02*
X53380952Y-115571819D01*
X53380952Y-115571819D02*
X53285714Y-115524200D01*
X53285714Y-115524200D02*
X53238095Y-115476580D01*
X54809523Y-115571819D02*
X54238095Y-115571819D01*
X54523809Y-115571819D02*
X54523809Y-114571819D01*
X54523809Y-114571819D02*
X54428571Y-114714676D01*
X54428571Y-114714676D02*
X54333333Y-114809914D01*
X54333333Y-114809914D02*
X54238095Y-114857533D01*
X67916667Y-56336200D02*
X68059524Y-56383819D01*
X68059524Y-56383819D02*
X68297619Y-56383819D01*
X68297619Y-56383819D02*
X68392857Y-56336200D01*
X68392857Y-56336200D02*
X68440476Y-56288580D01*
X68440476Y-56288580D02*
X68488095Y-56193342D01*
X68488095Y-56193342D02*
X68488095Y-56098104D01*
X68488095Y-56098104D02*
X68440476Y-56002866D01*
X68440476Y-56002866D02*
X68392857Y-55955247D01*
X68392857Y-55955247D02*
X68297619Y-55907628D01*
X68297619Y-55907628D02*
X68107143Y-55860009D01*
X68107143Y-55860009D02*
X68011905Y-55812390D01*
X68011905Y-55812390D02*
X67964286Y-55764771D01*
X67964286Y-55764771D02*
X67916667Y-55669533D01*
X67916667Y-55669533D02*
X67916667Y-55574295D01*
X67916667Y-55574295D02*
X67964286Y-55479057D01*
X67964286Y-55479057D02*
X68011905Y-55431438D01*
X68011905Y-55431438D02*
X68107143Y-55383819D01*
X68107143Y-55383819D02*
X68345238Y-55383819D01*
X68345238Y-55383819D02*
X68488095Y-55431438D01*
X68821429Y-55383819D02*
X69059524Y-56383819D01*
X69059524Y-56383819D02*
X69250000Y-55669533D01*
X69250000Y-55669533D02*
X69440476Y-56383819D01*
X69440476Y-56383819D02*
X69678572Y-55383819D01*
X70488095Y-55383819D02*
X70297619Y-55383819D01*
X70297619Y-55383819D02*
X70202381Y-55431438D01*
X70202381Y-55431438D02*
X70154762Y-55479057D01*
X70154762Y-55479057D02*
X70059524Y-55621914D01*
X70059524Y-55621914D02*
X70011905Y-55812390D01*
X70011905Y-55812390D02*
X70011905Y-56193342D01*
X70011905Y-56193342D02*
X70059524Y-56288580D01*
X70059524Y-56288580D02*
X70107143Y-56336200D01*
X70107143Y-56336200D02*
X70202381Y-56383819D01*
X70202381Y-56383819D02*
X70392857Y-56383819D01*
X70392857Y-56383819D02*
X70488095Y-56336200D01*
X70488095Y-56336200D02*
X70535714Y-56288580D01*
X70535714Y-56288580D02*
X70583333Y-56193342D01*
X70583333Y-56193342D02*
X70583333Y-55955247D01*
X70583333Y-55955247D02*
X70535714Y-55860009D01*
X70535714Y-55860009D02*
X70488095Y-55812390D01*
X70488095Y-55812390D02*
X70392857Y-55764771D01*
X70392857Y-55764771D02*
X70202381Y-55764771D01*
X70202381Y-55764771D02*
X70107143Y-55812390D01*
X70107143Y-55812390D02*
X70059524Y-55860009D01*
X70059524Y-55860009D02*
X70011905Y-55955247D01*
X36190476Y-103524200D02*
X36333333Y-103571819D01*
X36333333Y-103571819D02*
X36571428Y-103571819D01*
X36571428Y-103571819D02*
X36666666Y-103524200D01*
X36666666Y-103524200D02*
X36714285Y-103476580D01*
X36714285Y-103476580D02*
X36761904Y-103381342D01*
X36761904Y-103381342D02*
X36761904Y-103286104D01*
X36761904Y-103286104D02*
X36714285Y-103190866D01*
X36714285Y-103190866D02*
X36666666Y-103143247D01*
X36666666Y-103143247D02*
X36571428Y-103095628D01*
X36571428Y-103095628D02*
X36380952Y-103048009D01*
X36380952Y-103048009D02*
X36285714Y-103000390D01*
X36285714Y-103000390D02*
X36238095Y-102952771D01*
X36238095Y-102952771D02*
X36190476Y-102857533D01*
X36190476Y-102857533D02*
X36190476Y-102762295D01*
X36190476Y-102762295D02*
X36238095Y-102667057D01*
X36238095Y-102667057D02*
X36285714Y-102619438D01*
X36285714Y-102619438D02*
X36380952Y-102571819D01*
X36380952Y-102571819D02*
X36619047Y-102571819D01*
X36619047Y-102571819D02*
X36761904Y-102619438D01*
X37095238Y-102571819D02*
X37333333Y-103571819D01*
X37333333Y-103571819D02*
X37523809Y-102857533D01*
X37523809Y-102857533D02*
X37714285Y-103571819D01*
X37714285Y-103571819D02*
X37952381Y-102571819D01*
X38285714Y-102667057D02*
X38333333Y-102619438D01*
X38333333Y-102619438D02*
X38428571Y-102571819D01*
X38428571Y-102571819D02*
X38666666Y-102571819D01*
X38666666Y-102571819D02*
X38761904Y-102619438D01*
X38761904Y-102619438D02*
X38809523Y-102667057D01*
X38809523Y-102667057D02*
X38857142Y-102762295D01*
X38857142Y-102762295D02*
X38857142Y-102857533D01*
X38857142Y-102857533D02*
X38809523Y-103000390D01*
X38809523Y-103000390D02*
X38238095Y-103571819D01*
X38238095Y-103571819D02*
X38857142Y-103571819D01*
X39761904Y-102571819D02*
X39285714Y-102571819D01*
X39285714Y-102571819D02*
X39238095Y-103048009D01*
X39238095Y-103048009D02*
X39285714Y-103000390D01*
X39285714Y-103000390D02*
X39380952Y-102952771D01*
X39380952Y-102952771D02*
X39619047Y-102952771D01*
X39619047Y-102952771D02*
X39714285Y-103000390D01*
X39714285Y-103000390D02*
X39761904Y-103048009D01*
X39761904Y-103048009D02*
X39809523Y-103143247D01*
X39809523Y-103143247D02*
X39809523Y-103381342D01*
X39809523Y-103381342D02*
X39761904Y-103476580D01*
X39761904Y-103476580D02*
X39714285Y-103524200D01*
X39714285Y-103524200D02*
X39619047Y-103571819D01*
X39619047Y-103571819D02*
X39380952Y-103571819D01*
X39380952Y-103571819D02*
X39285714Y-103524200D01*
X39285714Y-103524200D02*
X39238095Y-103476580D01*
X36190476Y-127524200D02*
X36333333Y-127571819D01*
X36333333Y-127571819D02*
X36571428Y-127571819D01*
X36571428Y-127571819D02*
X36666666Y-127524200D01*
X36666666Y-127524200D02*
X36714285Y-127476580D01*
X36714285Y-127476580D02*
X36761904Y-127381342D01*
X36761904Y-127381342D02*
X36761904Y-127286104D01*
X36761904Y-127286104D02*
X36714285Y-127190866D01*
X36714285Y-127190866D02*
X36666666Y-127143247D01*
X36666666Y-127143247D02*
X36571428Y-127095628D01*
X36571428Y-127095628D02*
X36380952Y-127048009D01*
X36380952Y-127048009D02*
X36285714Y-127000390D01*
X36285714Y-127000390D02*
X36238095Y-126952771D01*
X36238095Y-126952771D02*
X36190476Y-126857533D01*
X36190476Y-126857533D02*
X36190476Y-126762295D01*
X36190476Y-126762295D02*
X36238095Y-126667057D01*
X36238095Y-126667057D02*
X36285714Y-126619438D01*
X36285714Y-126619438D02*
X36380952Y-126571819D01*
X36380952Y-126571819D02*
X36619047Y-126571819D01*
X36619047Y-126571819D02*
X36761904Y-126619438D01*
X37095238Y-126571819D02*
X37333333Y-127571819D01*
X37333333Y-127571819D02*
X37523809Y-126857533D01*
X37523809Y-126857533D02*
X37714285Y-127571819D01*
X37714285Y-127571819D02*
X37952381Y-126571819D01*
X38238095Y-126571819D02*
X38857142Y-126571819D01*
X38857142Y-126571819D02*
X38523809Y-126952771D01*
X38523809Y-126952771D02*
X38666666Y-126952771D01*
X38666666Y-126952771D02*
X38761904Y-127000390D01*
X38761904Y-127000390D02*
X38809523Y-127048009D01*
X38809523Y-127048009D02*
X38857142Y-127143247D01*
X38857142Y-127143247D02*
X38857142Y-127381342D01*
X38857142Y-127381342D02*
X38809523Y-127476580D01*
X38809523Y-127476580D02*
X38761904Y-127524200D01*
X38761904Y-127524200D02*
X38666666Y-127571819D01*
X38666666Y-127571819D02*
X38380952Y-127571819D01*
X38380952Y-127571819D02*
X38285714Y-127524200D01*
X38285714Y-127524200D02*
X38238095Y-127476580D01*
X39761904Y-126571819D02*
X39285714Y-126571819D01*
X39285714Y-126571819D02*
X39238095Y-127048009D01*
X39238095Y-127048009D02*
X39285714Y-127000390D01*
X39285714Y-127000390D02*
X39380952Y-126952771D01*
X39380952Y-126952771D02*
X39619047Y-126952771D01*
X39619047Y-126952771D02*
X39714285Y-127000390D01*
X39714285Y-127000390D02*
X39761904Y-127048009D01*
X39761904Y-127048009D02*
X39809523Y-127143247D01*
X39809523Y-127143247D02*
X39809523Y-127381342D01*
X39809523Y-127381342D02*
X39761904Y-127476580D01*
X39761904Y-127476580D02*
X39714285Y-127524200D01*
X39714285Y-127524200D02*
X39619047Y-127571819D01*
X39619047Y-127571819D02*
X39380952Y-127571819D01*
X39380952Y-127571819D02*
X39285714Y-127524200D01*
X39285714Y-127524200D02*
X39238095Y-127476580D01*
X4940476Y-104336200D02*
X5083333Y-104383819D01*
X5083333Y-104383819D02*
X5321428Y-104383819D01*
X5321428Y-104383819D02*
X5416666Y-104336200D01*
X5416666Y-104336200D02*
X5464285Y-104288580D01*
X5464285Y-104288580D02*
X5511904Y-104193342D01*
X5511904Y-104193342D02*
X5511904Y-104098104D01*
X5511904Y-104098104D02*
X5464285Y-104002866D01*
X5464285Y-104002866D02*
X5416666Y-103955247D01*
X5416666Y-103955247D02*
X5321428Y-103907628D01*
X5321428Y-103907628D02*
X5130952Y-103860009D01*
X5130952Y-103860009D02*
X5035714Y-103812390D01*
X5035714Y-103812390D02*
X4988095Y-103764771D01*
X4988095Y-103764771D02*
X4940476Y-103669533D01*
X4940476Y-103669533D02*
X4940476Y-103574295D01*
X4940476Y-103574295D02*
X4988095Y-103479057D01*
X4988095Y-103479057D02*
X5035714Y-103431438D01*
X5035714Y-103431438D02*
X5130952Y-103383819D01*
X5130952Y-103383819D02*
X5369047Y-103383819D01*
X5369047Y-103383819D02*
X5511904Y-103431438D01*
X5845238Y-103383819D02*
X6083333Y-104383819D01*
X6083333Y-104383819D02*
X6273809Y-103669533D01*
X6273809Y-103669533D02*
X6464285Y-104383819D01*
X6464285Y-104383819D02*
X6702381Y-103383819D01*
X7035714Y-103479057D02*
X7083333Y-103431438D01*
X7083333Y-103431438D02*
X7178571Y-103383819D01*
X7178571Y-103383819D02*
X7416666Y-103383819D01*
X7416666Y-103383819D02*
X7511904Y-103431438D01*
X7511904Y-103431438D02*
X7559523Y-103479057D01*
X7559523Y-103479057D02*
X7607142Y-103574295D01*
X7607142Y-103574295D02*
X7607142Y-103669533D01*
X7607142Y-103669533D02*
X7559523Y-103812390D01*
X7559523Y-103812390D02*
X6988095Y-104383819D01*
X6988095Y-104383819D02*
X7607142Y-104383819D01*
X7940476Y-103383819D02*
X8559523Y-103383819D01*
X8559523Y-103383819D02*
X8226190Y-103764771D01*
X8226190Y-103764771D02*
X8369047Y-103764771D01*
X8369047Y-103764771D02*
X8464285Y-103812390D01*
X8464285Y-103812390D02*
X8511904Y-103860009D01*
X8511904Y-103860009D02*
X8559523Y-103955247D01*
X8559523Y-103955247D02*
X8559523Y-104193342D01*
X8559523Y-104193342D02*
X8511904Y-104288580D01*
X8511904Y-104288580D02*
X8464285Y-104336200D01*
X8464285Y-104336200D02*
X8369047Y-104383819D01*
X8369047Y-104383819D02*
X8083333Y-104383819D01*
X8083333Y-104383819D02*
X7988095Y-104336200D01*
X7988095Y-104336200D02*
X7940476Y-104288580D01*
X51190476Y-103524200D02*
X51333333Y-103571819D01*
X51333333Y-103571819D02*
X51571428Y-103571819D01*
X51571428Y-103571819D02*
X51666666Y-103524200D01*
X51666666Y-103524200D02*
X51714285Y-103476580D01*
X51714285Y-103476580D02*
X51761904Y-103381342D01*
X51761904Y-103381342D02*
X51761904Y-103286104D01*
X51761904Y-103286104D02*
X51714285Y-103190866D01*
X51714285Y-103190866D02*
X51666666Y-103143247D01*
X51666666Y-103143247D02*
X51571428Y-103095628D01*
X51571428Y-103095628D02*
X51380952Y-103048009D01*
X51380952Y-103048009D02*
X51285714Y-103000390D01*
X51285714Y-103000390D02*
X51238095Y-102952771D01*
X51238095Y-102952771D02*
X51190476Y-102857533D01*
X51190476Y-102857533D02*
X51190476Y-102762295D01*
X51190476Y-102762295D02*
X51238095Y-102667057D01*
X51238095Y-102667057D02*
X51285714Y-102619438D01*
X51285714Y-102619438D02*
X51380952Y-102571819D01*
X51380952Y-102571819D02*
X51619047Y-102571819D01*
X51619047Y-102571819D02*
X51761904Y-102619438D01*
X52095238Y-102571819D02*
X52333333Y-103571819D01*
X52333333Y-103571819D02*
X52523809Y-102857533D01*
X52523809Y-102857533D02*
X52714285Y-103571819D01*
X52714285Y-103571819D02*
X52952381Y-102571819D01*
X53285714Y-102667057D02*
X53333333Y-102619438D01*
X53333333Y-102619438D02*
X53428571Y-102571819D01*
X53428571Y-102571819D02*
X53666666Y-102571819D01*
X53666666Y-102571819D02*
X53761904Y-102619438D01*
X53761904Y-102619438D02*
X53809523Y-102667057D01*
X53809523Y-102667057D02*
X53857142Y-102762295D01*
X53857142Y-102762295D02*
X53857142Y-102857533D01*
X53857142Y-102857533D02*
X53809523Y-103000390D01*
X53809523Y-103000390D02*
X53238095Y-103571819D01*
X53238095Y-103571819D02*
X53857142Y-103571819D01*
X54714285Y-102571819D02*
X54523809Y-102571819D01*
X54523809Y-102571819D02*
X54428571Y-102619438D01*
X54428571Y-102619438D02*
X54380952Y-102667057D01*
X54380952Y-102667057D02*
X54285714Y-102809914D01*
X54285714Y-102809914D02*
X54238095Y-103000390D01*
X54238095Y-103000390D02*
X54238095Y-103381342D01*
X54238095Y-103381342D02*
X54285714Y-103476580D01*
X54285714Y-103476580D02*
X54333333Y-103524200D01*
X54333333Y-103524200D02*
X54428571Y-103571819D01*
X54428571Y-103571819D02*
X54619047Y-103571819D01*
X54619047Y-103571819D02*
X54714285Y-103524200D01*
X54714285Y-103524200D02*
X54761904Y-103476580D01*
X54761904Y-103476580D02*
X54809523Y-103381342D01*
X54809523Y-103381342D02*
X54809523Y-103143247D01*
X54809523Y-103143247D02*
X54761904Y-103048009D01*
X54761904Y-103048009D02*
X54714285Y-103000390D01*
X54714285Y-103000390D02*
X54619047Y-102952771D01*
X54619047Y-102952771D02*
X54428571Y-102952771D01*
X54428571Y-102952771D02*
X54333333Y-103000390D01*
X54333333Y-103000390D02*
X54285714Y-103048009D01*
X54285714Y-103048009D02*
X54238095Y-103143247D01*
X66190476Y-103524200D02*
X66333333Y-103571819D01*
X66333333Y-103571819D02*
X66571428Y-103571819D01*
X66571428Y-103571819D02*
X66666666Y-103524200D01*
X66666666Y-103524200D02*
X66714285Y-103476580D01*
X66714285Y-103476580D02*
X66761904Y-103381342D01*
X66761904Y-103381342D02*
X66761904Y-103286104D01*
X66761904Y-103286104D02*
X66714285Y-103190866D01*
X66714285Y-103190866D02*
X66666666Y-103143247D01*
X66666666Y-103143247D02*
X66571428Y-103095628D01*
X66571428Y-103095628D02*
X66380952Y-103048009D01*
X66380952Y-103048009D02*
X66285714Y-103000390D01*
X66285714Y-103000390D02*
X66238095Y-102952771D01*
X66238095Y-102952771D02*
X66190476Y-102857533D01*
X66190476Y-102857533D02*
X66190476Y-102762295D01*
X66190476Y-102762295D02*
X66238095Y-102667057D01*
X66238095Y-102667057D02*
X66285714Y-102619438D01*
X66285714Y-102619438D02*
X66380952Y-102571819D01*
X66380952Y-102571819D02*
X66619047Y-102571819D01*
X66619047Y-102571819D02*
X66761904Y-102619438D01*
X67095238Y-102571819D02*
X67333333Y-103571819D01*
X67333333Y-103571819D02*
X67523809Y-102857533D01*
X67523809Y-102857533D02*
X67714285Y-103571819D01*
X67714285Y-103571819D02*
X67952381Y-102571819D01*
X68285714Y-102667057D02*
X68333333Y-102619438D01*
X68333333Y-102619438D02*
X68428571Y-102571819D01*
X68428571Y-102571819D02*
X68666666Y-102571819D01*
X68666666Y-102571819D02*
X68761904Y-102619438D01*
X68761904Y-102619438D02*
X68809523Y-102667057D01*
X68809523Y-102667057D02*
X68857142Y-102762295D01*
X68857142Y-102762295D02*
X68857142Y-102857533D01*
X68857142Y-102857533D02*
X68809523Y-103000390D01*
X68809523Y-103000390D02*
X68238095Y-103571819D01*
X68238095Y-103571819D02*
X68857142Y-103571819D01*
X69190476Y-102571819D02*
X69857142Y-102571819D01*
X69857142Y-102571819D02*
X69428571Y-103571819D01*
X36190476Y-115524200D02*
X36333333Y-115571819D01*
X36333333Y-115571819D02*
X36571428Y-115571819D01*
X36571428Y-115571819D02*
X36666666Y-115524200D01*
X36666666Y-115524200D02*
X36714285Y-115476580D01*
X36714285Y-115476580D02*
X36761904Y-115381342D01*
X36761904Y-115381342D02*
X36761904Y-115286104D01*
X36761904Y-115286104D02*
X36714285Y-115190866D01*
X36714285Y-115190866D02*
X36666666Y-115143247D01*
X36666666Y-115143247D02*
X36571428Y-115095628D01*
X36571428Y-115095628D02*
X36380952Y-115048009D01*
X36380952Y-115048009D02*
X36285714Y-115000390D01*
X36285714Y-115000390D02*
X36238095Y-114952771D01*
X36238095Y-114952771D02*
X36190476Y-114857533D01*
X36190476Y-114857533D02*
X36190476Y-114762295D01*
X36190476Y-114762295D02*
X36238095Y-114667057D01*
X36238095Y-114667057D02*
X36285714Y-114619438D01*
X36285714Y-114619438D02*
X36380952Y-114571819D01*
X36380952Y-114571819D02*
X36619047Y-114571819D01*
X36619047Y-114571819D02*
X36761904Y-114619438D01*
X37095238Y-114571819D02*
X37333333Y-115571819D01*
X37333333Y-115571819D02*
X37523809Y-114857533D01*
X37523809Y-114857533D02*
X37714285Y-115571819D01*
X37714285Y-115571819D02*
X37952381Y-114571819D01*
X38238095Y-114571819D02*
X38857142Y-114571819D01*
X38857142Y-114571819D02*
X38523809Y-114952771D01*
X38523809Y-114952771D02*
X38666666Y-114952771D01*
X38666666Y-114952771D02*
X38761904Y-115000390D01*
X38761904Y-115000390D02*
X38809523Y-115048009D01*
X38809523Y-115048009D02*
X38857142Y-115143247D01*
X38857142Y-115143247D02*
X38857142Y-115381342D01*
X38857142Y-115381342D02*
X38809523Y-115476580D01*
X38809523Y-115476580D02*
X38761904Y-115524200D01*
X38761904Y-115524200D02*
X38666666Y-115571819D01*
X38666666Y-115571819D02*
X38380952Y-115571819D01*
X38380952Y-115571819D02*
X38285714Y-115524200D01*
X38285714Y-115524200D02*
X38238095Y-115476580D01*
X39476190Y-114571819D02*
X39571428Y-114571819D01*
X39571428Y-114571819D02*
X39666666Y-114619438D01*
X39666666Y-114619438D02*
X39714285Y-114667057D01*
X39714285Y-114667057D02*
X39761904Y-114762295D01*
X39761904Y-114762295D02*
X39809523Y-114952771D01*
X39809523Y-114952771D02*
X39809523Y-115190866D01*
X39809523Y-115190866D02*
X39761904Y-115381342D01*
X39761904Y-115381342D02*
X39714285Y-115476580D01*
X39714285Y-115476580D02*
X39666666Y-115524200D01*
X39666666Y-115524200D02*
X39571428Y-115571819D01*
X39571428Y-115571819D02*
X39476190Y-115571819D01*
X39476190Y-115571819D02*
X39380952Y-115524200D01*
X39380952Y-115524200D02*
X39333333Y-115476580D01*
X39333333Y-115476580D02*
X39285714Y-115381342D01*
X39285714Y-115381342D02*
X39238095Y-115190866D01*
X39238095Y-115190866D02*
X39238095Y-114952771D01*
X39238095Y-114952771D02*
X39285714Y-114762295D01*
X39285714Y-114762295D02*
X39333333Y-114667057D01*
X39333333Y-114667057D02*
X39380952Y-114619438D01*
X39380952Y-114619438D02*
X39476190Y-114571819D01*
X54940476Y-68336200D02*
X55083333Y-68383819D01*
X55083333Y-68383819D02*
X55321428Y-68383819D01*
X55321428Y-68383819D02*
X55416666Y-68336200D01*
X55416666Y-68336200D02*
X55464285Y-68288580D01*
X55464285Y-68288580D02*
X55511904Y-68193342D01*
X55511904Y-68193342D02*
X55511904Y-68098104D01*
X55511904Y-68098104D02*
X55464285Y-68002866D01*
X55464285Y-68002866D02*
X55416666Y-67955247D01*
X55416666Y-67955247D02*
X55321428Y-67907628D01*
X55321428Y-67907628D02*
X55130952Y-67860009D01*
X55130952Y-67860009D02*
X55035714Y-67812390D01*
X55035714Y-67812390D02*
X54988095Y-67764771D01*
X54988095Y-67764771D02*
X54940476Y-67669533D01*
X54940476Y-67669533D02*
X54940476Y-67574295D01*
X54940476Y-67574295D02*
X54988095Y-67479057D01*
X54988095Y-67479057D02*
X55035714Y-67431438D01*
X55035714Y-67431438D02*
X55130952Y-67383819D01*
X55130952Y-67383819D02*
X55369047Y-67383819D01*
X55369047Y-67383819D02*
X55511904Y-67431438D01*
X55845238Y-67383819D02*
X56083333Y-68383819D01*
X56083333Y-68383819D02*
X56273809Y-67669533D01*
X56273809Y-67669533D02*
X56464285Y-68383819D01*
X56464285Y-68383819D02*
X56702381Y-67383819D01*
X57607142Y-68383819D02*
X57035714Y-68383819D01*
X57321428Y-68383819D02*
X57321428Y-67383819D01*
X57321428Y-67383819D02*
X57226190Y-67526676D01*
X57226190Y-67526676D02*
X57130952Y-67621914D01*
X57130952Y-67621914D02*
X57035714Y-67669533D01*
X58559523Y-68383819D02*
X57988095Y-68383819D01*
X58273809Y-68383819D02*
X58273809Y-67383819D01*
X58273809Y-67383819D02*
X58178571Y-67526676D01*
X58178571Y-67526676D02*
X58083333Y-67621914D01*
X58083333Y-67621914D02*
X57988095Y-67669533D01*
X21190476Y-127524200D02*
X21333333Y-127571819D01*
X21333333Y-127571819D02*
X21571428Y-127571819D01*
X21571428Y-127571819D02*
X21666666Y-127524200D01*
X21666666Y-127524200D02*
X21714285Y-127476580D01*
X21714285Y-127476580D02*
X21761904Y-127381342D01*
X21761904Y-127381342D02*
X21761904Y-127286104D01*
X21761904Y-127286104D02*
X21714285Y-127190866D01*
X21714285Y-127190866D02*
X21666666Y-127143247D01*
X21666666Y-127143247D02*
X21571428Y-127095628D01*
X21571428Y-127095628D02*
X21380952Y-127048009D01*
X21380952Y-127048009D02*
X21285714Y-127000390D01*
X21285714Y-127000390D02*
X21238095Y-126952771D01*
X21238095Y-126952771D02*
X21190476Y-126857533D01*
X21190476Y-126857533D02*
X21190476Y-126762295D01*
X21190476Y-126762295D02*
X21238095Y-126667057D01*
X21238095Y-126667057D02*
X21285714Y-126619438D01*
X21285714Y-126619438D02*
X21380952Y-126571819D01*
X21380952Y-126571819D02*
X21619047Y-126571819D01*
X21619047Y-126571819D02*
X21761904Y-126619438D01*
X22095238Y-126571819D02*
X22333333Y-127571819D01*
X22333333Y-127571819D02*
X22523809Y-126857533D01*
X22523809Y-126857533D02*
X22714285Y-127571819D01*
X22714285Y-127571819D02*
X22952381Y-126571819D01*
X23238095Y-126571819D02*
X23857142Y-126571819D01*
X23857142Y-126571819D02*
X23523809Y-126952771D01*
X23523809Y-126952771D02*
X23666666Y-126952771D01*
X23666666Y-126952771D02*
X23761904Y-127000390D01*
X23761904Y-127000390D02*
X23809523Y-127048009D01*
X23809523Y-127048009D02*
X23857142Y-127143247D01*
X23857142Y-127143247D02*
X23857142Y-127381342D01*
X23857142Y-127381342D02*
X23809523Y-127476580D01*
X23809523Y-127476580D02*
X23761904Y-127524200D01*
X23761904Y-127524200D02*
X23666666Y-127571819D01*
X23666666Y-127571819D02*
X23380952Y-127571819D01*
X23380952Y-127571819D02*
X23285714Y-127524200D01*
X23285714Y-127524200D02*
X23238095Y-127476580D01*
X24714285Y-126905152D02*
X24714285Y-127571819D01*
X24476190Y-126524200D02*
X24238095Y-127238485D01*
X24238095Y-127238485D02*
X24857142Y-127238485D01*
X17916667Y-56336200D02*
X18059524Y-56383819D01*
X18059524Y-56383819D02*
X18297619Y-56383819D01*
X18297619Y-56383819D02*
X18392857Y-56336200D01*
X18392857Y-56336200D02*
X18440476Y-56288580D01*
X18440476Y-56288580D02*
X18488095Y-56193342D01*
X18488095Y-56193342D02*
X18488095Y-56098104D01*
X18488095Y-56098104D02*
X18440476Y-56002866D01*
X18440476Y-56002866D02*
X18392857Y-55955247D01*
X18392857Y-55955247D02*
X18297619Y-55907628D01*
X18297619Y-55907628D02*
X18107143Y-55860009D01*
X18107143Y-55860009D02*
X18011905Y-55812390D01*
X18011905Y-55812390D02*
X17964286Y-55764771D01*
X17964286Y-55764771D02*
X17916667Y-55669533D01*
X17916667Y-55669533D02*
X17916667Y-55574295D01*
X17916667Y-55574295D02*
X17964286Y-55479057D01*
X17964286Y-55479057D02*
X18011905Y-55431438D01*
X18011905Y-55431438D02*
X18107143Y-55383819D01*
X18107143Y-55383819D02*
X18345238Y-55383819D01*
X18345238Y-55383819D02*
X18488095Y-55431438D01*
X18821429Y-55383819D02*
X19059524Y-56383819D01*
X19059524Y-56383819D02*
X19250000Y-55669533D01*
X19250000Y-55669533D02*
X19440476Y-56383819D01*
X19440476Y-56383819D02*
X19678572Y-55383819D01*
X20011905Y-55479057D02*
X20059524Y-55431438D01*
X20059524Y-55431438D02*
X20154762Y-55383819D01*
X20154762Y-55383819D02*
X20392857Y-55383819D01*
X20392857Y-55383819D02*
X20488095Y-55431438D01*
X20488095Y-55431438D02*
X20535714Y-55479057D01*
X20535714Y-55479057D02*
X20583333Y-55574295D01*
X20583333Y-55574295D02*
X20583333Y-55669533D01*
X20583333Y-55669533D02*
X20535714Y-55812390D01*
X20535714Y-55812390D02*
X19964286Y-56383819D01*
X19964286Y-56383819D02*
X20583333Y-56383819D01*
X66190476Y-115524200D02*
X66333333Y-115571819D01*
X66333333Y-115571819D02*
X66571428Y-115571819D01*
X66571428Y-115571819D02*
X66666666Y-115524200D01*
X66666666Y-115524200D02*
X66714285Y-115476580D01*
X66714285Y-115476580D02*
X66761904Y-115381342D01*
X66761904Y-115381342D02*
X66761904Y-115286104D01*
X66761904Y-115286104D02*
X66714285Y-115190866D01*
X66714285Y-115190866D02*
X66666666Y-115143247D01*
X66666666Y-115143247D02*
X66571428Y-115095628D01*
X66571428Y-115095628D02*
X66380952Y-115048009D01*
X66380952Y-115048009D02*
X66285714Y-115000390D01*
X66285714Y-115000390D02*
X66238095Y-114952771D01*
X66238095Y-114952771D02*
X66190476Y-114857533D01*
X66190476Y-114857533D02*
X66190476Y-114762295D01*
X66190476Y-114762295D02*
X66238095Y-114667057D01*
X66238095Y-114667057D02*
X66285714Y-114619438D01*
X66285714Y-114619438D02*
X66380952Y-114571819D01*
X66380952Y-114571819D02*
X66619047Y-114571819D01*
X66619047Y-114571819D02*
X66761904Y-114619438D01*
X67095238Y-114571819D02*
X67333333Y-115571819D01*
X67333333Y-115571819D02*
X67523809Y-114857533D01*
X67523809Y-114857533D02*
X67714285Y-115571819D01*
X67714285Y-115571819D02*
X67952381Y-114571819D01*
X68238095Y-114571819D02*
X68857142Y-114571819D01*
X68857142Y-114571819D02*
X68523809Y-114952771D01*
X68523809Y-114952771D02*
X68666666Y-114952771D01*
X68666666Y-114952771D02*
X68761904Y-115000390D01*
X68761904Y-115000390D02*
X68809523Y-115048009D01*
X68809523Y-115048009D02*
X68857142Y-115143247D01*
X68857142Y-115143247D02*
X68857142Y-115381342D01*
X68857142Y-115381342D02*
X68809523Y-115476580D01*
X68809523Y-115476580D02*
X68761904Y-115524200D01*
X68761904Y-115524200D02*
X68666666Y-115571819D01*
X68666666Y-115571819D02*
X68380952Y-115571819D01*
X68380952Y-115571819D02*
X68285714Y-115524200D01*
X68285714Y-115524200D02*
X68238095Y-115476580D01*
X69238095Y-114667057D02*
X69285714Y-114619438D01*
X69285714Y-114619438D02*
X69380952Y-114571819D01*
X69380952Y-114571819D02*
X69619047Y-114571819D01*
X69619047Y-114571819D02*
X69714285Y-114619438D01*
X69714285Y-114619438D02*
X69761904Y-114667057D01*
X69761904Y-114667057D02*
X69809523Y-114762295D01*
X69809523Y-114762295D02*
X69809523Y-114857533D01*
X69809523Y-114857533D02*
X69761904Y-115000390D01*
X69761904Y-115000390D02*
X69190476Y-115571819D01*
X69190476Y-115571819D02*
X69809523Y-115571819D01*
X42440476Y-80336200D02*
X42583333Y-80383819D01*
X42583333Y-80383819D02*
X42821428Y-80383819D01*
X42821428Y-80383819D02*
X42916666Y-80336200D01*
X42916666Y-80336200D02*
X42964285Y-80288580D01*
X42964285Y-80288580D02*
X43011904Y-80193342D01*
X43011904Y-80193342D02*
X43011904Y-80098104D01*
X43011904Y-80098104D02*
X42964285Y-80002866D01*
X42964285Y-80002866D02*
X42916666Y-79955247D01*
X42916666Y-79955247D02*
X42821428Y-79907628D01*
X42821428Y-79907628D02*
X42630952Y-79860009D01*
X42630952Y-79860009D02*
X42535714Y-79812390D01*
X42535714Y-79812390D02*
X42488095Y-79764771D01*
X42488095Y-79764771D02*
X42440476Y-79669533D01*
X42440476Y-79669533D02*
X42440476Y-79574295D01*
X42440476Y-79574295D02*
X42488095Y-79479057D01*
X42488095Y-79479057D02*
X42535714Y-79431438D01*
X42535714Y-79431438D02*
X42630952Y-79383819D01*
X42630952Y-79383819D02*
X42869047Y-79383819D01*
X42869047Y-79383819D02*
X43011904Y-79431438D01*
X43345238Y-79383819D02*
X43583333Y-80383819D01*
X43583333Y-80383819D02*
X43773809Y-79669533D01*
X43773809Y-79669533D02*
X43964285Y-80383819D01*
X43964285Y-80383819D02*
X44202381Y-79383819D01*
X45107142Y-80383819D02*
X44535714Y-80383819D01*
X44821428Y-80383819D02*
X44821428Y-79383819D01*
X44821428Y-79383819D02*
X44726190Y-79526676D01*
X44726190Y-79526676D02*
X44630952Y-79621914D01*
X44630952Y-79621914D02*
X44535714Y-79669533D01*
X46011904Y-79383819D02*
X45535714Y-79383819D01*
X45535714Y-79383819D02*
X45488095Y-79860009D01*
X45488095Y-79860009D02*
X45535714Y-79812390D01*
X45535714Y-79812390D02*
X45630952Y-79764771D01*
X45630952Y-79764771D02*
X45869047Y-79764771D01*
X45869047Y-79764771D02*
X45964285Y-79812390D01*
X45964285Y-79812390D02*
X46011904Y-79860009D01*
X46011904Y-79860009D02*
X46059523Y-79955247D01*
X46059523Y-79955247D02*
X46059523Y-80193342D01*
X46059523Y-80193342D02*
X46011904Y-80288580D01*
X46011904Y-80288580D02*
X45964285Y-80336200D01*
X45964285Y-80336200D02*
X45869047Y-80383819D01*
X45869047Y-80383819D02*
X45630952Y-80383819D01*
X45630952Y-80383819D02*
X45535714Y-80336200D01*
X45535714Y-80336200D02*
X45488095Y-80288580D01*
X51190476Y-127524200D02*
X51333333Y-127571819D01*
X51333333Y-127571819D02*
X51571428Y-127571819D01*
X51571428Y-127571819D02*
X51666666Y-127524200D01*
X51666666Y-127524200D02*
X51714285Y-127476580D01*
X51714285Y-127476580D02*
X51761904Y-127381342D01*
X51761904Y-127381342D02*
X51761904Y-127286104D01*
X51761904Y-127286104D02*
X51714285Y-127190866D01*
X51714285Y-127190866D02*
X51666666Y-127143247D01*
X51666666Y-127143247D02*
X51571428Y-127095628D01*
X51571428Y-127095628D02*
X51380952Y-127048009D01*
X51380952Y-127048009D02*
X51285714Y-127000390D01*
X51285714Y-127000390D02*
X51238095Y-126952771D01*
X51238095Y-126952771D02*
X51190476Y-126857533D01*
X51190476Y-126857533D02*
X51190476Y-126762295D01*
X51190476Y-126762295D02*
X51238095Y-126667057D01*
X51238095Y-126667057D02*
X51285714Y-126619438D01*
X51285714Y-126619438D02*
X51380952Y-126571819D01*
X51380952Y-126571819D02*
X51619047Y-126571819D01*
X51619047Y-126571819D02*
X51761904Y-126619438D01*
X52095238Y-126571819D02*
X52333333Y-127571819D01*
X52333333Y-127571819D02*
X52523809Y-126857533D01*
X52523809Y-126857533D02*
X52714285Y-127571819D01*
X52714285Y-127571819D02*
X52952381Y-126571819D01*
X53238095Y-126571819D02*
X53857142Y-126571819D01*
X53857142Y-126571819D02*
X53523809Y-126952771D01*
X53523809Y-126952771D02*
X53666666Y-126952771D01*
X53666666Y-126952771D02*
X53761904Y-127000390D01*
X53761904Y-127000390D02*
X53809523Y-127048009D01*
X53809523Y-127048009D02*
X53857142Y-127143247D01*
X53857142Y-127143247D02*
X53857142Y-127381342D01*
X53857142Y-127381342D02*
X53809523Y-127476580D01*
X53809523Y-127476580D02*
X53761904Y-127524200D01*
X53761904Y-127524200D02*
X53666666Y-127571819D01*
X53666666Y-127571819D02*
X53380952Y-127571819D01*
X53380952Y-127571819D02*
X53285714Y-127524200D01*
X53285714Y-127524200D02*
X53238095Y-127476580D01*
X54714285Y-126571819D02*
X54523809Y-126571819D01*
X54523809Y-126571819D02*
X54428571Y-126619438D01*
X54428571Y-126619438D02*
X54380952Y-126667057D01*
X54380952Y-126667057D02*
X54285714Y-126809914D01*
X54285714Y-126809914D02*
X54238095Y-127000390D01*
X54238095Y-127000390D02*
X54238095Y-127381342D01*
X54238095Y-127381342D02*
X54285714Y-127476580D01*
X54285714Y-127476580D02*
X54333333Y-127524200D01*
X54333333Y-127524200D02*
X54428571Y-127571819D01*
X54428571Y-127571819D02*
X54619047Y-127571819D01*
X54619047Y-127571819D02*
X54714285Y-127524200D01*
X54714285Y-127524200D02*
X54761904Y-127476580D01*
X54761904Y-127476580D02*
X54809523Y-127381342D01*
X54809523Y-127381342D02*
X54809523Y-127143247D01*
X54809523Y-127143247D02*
X54761904Y-127048009D01*
X54761904Y-127048009D02*
X54714285Y-127000390D01*
X54714285Y-127000390D02*
X54619047Y-126952771D01*
X54619047Y-126952771D02*
X54428571Y-126952771D01*
X54428571Y-126952771D02*
X54333333Y-127000390D01*
X54333333Y-127000390D02*
X54285714Y-127048009D01*
X54285714Y-127048009D02*
X54238095Y-127143247D01*
X67440476Y-68336200D02*
X67583333Y-68383819D01*
X67583333Y-68383819D02*
X67821428Y-68383819D01*
X67821428Y-68383819D02*
X67916666Y-68336200D01*
X67916666Y-68336200D02*
X67964285Y-68288580D01*
X67964285Y-68288580D02*
X68011904Y-68193342D01*
X68011904Y-68193342D02*
X68011904Y-68098104D01*
X68011904Y-68098104D02*
X67964285Y-68002866D01*
X67964285Y-68002866D02*
X67916666Y-67955247D01*
X67916666Y-67955247D02*
X67821428Y-67907628D01*
X67821428Y-67907628D02*
X67630952Y-67860009D01*
X67630952Y-67860009D02*
X67535714Y-67812390D01*
X67535714Y-67812390D02*
X67488095Y-67764771D01*
X67488095Y-67764771D02*
X67440476Y-67669533D01*
X67440476Y-67669533D02*
X67440476Y-67574295D01*
X67440476Y-67574295D02*
X67488095Y-67479057D01*
X67488095Y-67479057D02*
X67535714Y-67431438D01*
X67535714Y-67431438D02*
X67630952Y-67383819D01*
X67630952Y-67383819D02*
X67869047Y-67383819D01*
X67869047Y-67383819D02*
X68011904Y-67431438D01*
X68345238Y-67383819D02*
X68583333Y-68383819D01*
X68583333Y-68383819D02*
X68773809Y-67669533D01*
X68773809Y-67669533D02*
X68964285Y-68383819D01*
X68964285Y-68383819D02*
X69202381Y-67383819D01*
X70107142Y-68383819D02*
X69535714Y-68383819D01*
X69821428Y-68383819D02*
X69821428Y-67383819D01*
X69821428Y-67383819D02*
X69726190Y-67526676D01*
X69726190Y-67526676D02*
X69630952Y-67621914D01*
X69630952Y-67621914D02*
X69535714Y-67669533D01*
X70488095Y-67479057D02*
X70535714Y-67431438D01*
X70535714Y-67431438D02*
X70630952Y-67383819D01*
X70630952Y-67383819D02*
X70869047Y-67383819D01*
X70869047Y-67383819D02*
X70964285Y-67431438D01*
X70964285Y-67431438D02*
X71011904Y-67479057D01*
X71011904Y-67479057D02*
X71059523Y-67574295D01*
X71059523Y-67574295D02*
X71059523Y-67669533D01*
X71059523Y-67669533D02*
X71011904Y-67812390D01*
X71011904Y-67812390D02*
X70440476Y-68383819D01*
X70440476Y-68383819D02*
X71059523Y-68383819D01*
X42440476Y-68336200D02*
X42583333Y-68383819D01*
X42583333Y-68383819D02*
X42821428Y-68383819D01*
X42821428Y-68383819D02*
X42916666Y-68336200D01*
X42916666Y-68336200D02*
X42964285Y-68288580D01*
X42964285Y-68288580D02*
X43011904Y-68193342D01*
X43011904Y-68193342D02*
X43011904Y-68098104D01*
X43011904Y-68098104D02*
X42964285Y-68002866D01*
X42964285Y-68002866D02*
X42916666Y-67955247D01*
X42916666Y-67955247D02*
X42821428Y-67907628D01*
X42821428Y-67907628D02*
X42630952Y-67860009D01*
X42630952Y-67860009D02*
X42535714Y-67812390D01*
X42535714Y-67812390D02*
X42488095Y-67764771D01*
X42488095Y-67764771D02*
X42440476Y-67669533D01*
X42440476Y-67669533D02*
X42440476Y-67574295D01*
X42440476Y-67574295D02*
X42488095Y-67479057D01*
X42488095Y-67479057D02*
X42535714Y-67431438D01*
X42535714Y-67431438D02*
X42630952Y-67383819D01*
X42630952Y-67383819D02*
X42869047Y-67383819D01*
X42869047Y-67383819D02*
X43011904Y-67431438D01*
X43345238Y-67383819D02*
X43583333Y-68383819D01*
X43583333Y-68383819D02*
X43773809Y-67669533D01*
X43773809Y-67669533D02*
X43964285Y-68383819D01*
X43964285Y-68383819D02*
X44202381Y-67383819D01*
X45107142Y-68383819D02*
X44535714Y-68383819D01*
X44821428Y-68383819D02*
X44821428Y-67383819D01*
X44821428Y-67383819D02*
X44726190Y-67526676D01*
X44726190Y-67526676D02*
X44630952Y-67621914D01*
X44630952Y-67621914D02*
X44535714Y-67669533D01*
X45726190Y-67383819D02*
X45821428Y-67383819D01*
X45821428Y-67383819D02*
X45916666Y-67431438D01*
X45916666Y-67431438D02*
X45964285Y-67479057D01*
X45964285Y-67479057D02*
X46011904Y-67574295D01*
X46011904Y-67574295D02*
X46059523Y-67764771D01*
X46059523Y-67764771D02*
X46059523Y-68002866D01*
X46059523Y-68002866D02*
X46011904Y-68193342D01*
X46011904Y-68193342D02*
X45964285Y-68288580D01*
X45964285Y-68288580D02*
X45916666Y-68336200D01*
X45916666Y-68336200D02*
X45821428Y-68383819D01*
X45821428Y-68383819D02*
X45726190Y-68383819D01*
X45726190Y-68383819D02*
X45630952Y-68336200D01*
X45630952Y-68336200D02*
X45583333Y-68288580D01*
X45583333Y-68288580D02*
X45535714Y-68193342D01*
X45535714Y-68193342D02*
X45488095Y-68002866D01*
X45488095Y-68002866D02*
X45488095Y-67764771D01*
X45488095Y-67764771D02*
X45535714Y-67574295D01*
X45535714Y-67574295D02*
X45583333Y-67479057D01*
X45583333Y-67479057D02*
X45630952Y-67431438D01*
X45630952Y-67431438D02*
X45726190Y-67383819D01*
X4940476Y-80336200D02*
X5083333Y-80383819D01*
X5083333Y-80383819D02*
X5321428Y-80383819D01*
X5321428Y-80383819D02*
X5416666Y-80336200D01*
X5416666Y-80336200D02*
X5464285Y-80288580D01*
X5464285Y-80288580D02*
X5511904Y-80193342D01*
X5511904Y-80193342D02*
X5511904Y-80098104D01*
X5511904Y-80098104D02*
X5464285Y-80002866D01*
X5464285Y-80002866D02*
X5416666Y-79955247D01*
X5416666Y-79955247D02*
X5321428Y-79907628D01*
X5321428Y-79907628D02*
X5130952Y-79860009D01*
X5130952Y-79860009D02*
X5035714Y-79812390D01*
X5035714Y-79812390D02*
X4988095Y-79764771D01*
X4988095Y-79764771D02*
X4940476Y-79669533D01*
X4940476Y-79669533D02*
X4940476Y-79574295D01*
X4940476Y-79574295D02*
X4988095Y-79479057D01*
X4988095Y-79479057D02*
X5035714Y-79431438D01*
X5035714Y-79431438D02*
X5130952Y-79383819D01*
X5130952Y-79383819D02*
X5369047Y-79383819D01*
X5369047Y-79383819D02*
X5511904Y-79431438D01*
X5845238Y-79383819D02*
X6083333Y-80383819D01*
X6083333Y-80383819D02*
X6273809Y-79669533D01*
X6273809Y-79669533D02*
X6464285Y-80383819D01*
X6464285Y-80383819D02*
X6702381Y-79383819D01*
X7607142Y-80383819D02*
X7035714Y-80383819D01*
X7321428Y-80383819D02*
X7321428Y-79383819D01*
X7321428Y-79383819D02*
X7226190Y-79526676D01*
X7226190Y-79526676D02*
X7130952Y-79621914D01*
X7130952Y-79621914D02*
X7035714Y-79669533D01*
X7940476Y-79383819D02*
X8559523Y-79383819D01*
X8559523Y-79383819D02*
X8226190Y-79764771D01*
X8226190Y-79764771D02*
X8369047Y-79764771D01*
X8369047Y-79764771D02*
X8464285Y-79812390D01*
X8464285Y-79812390D02*
X8511904Y-79860009D01*
X8511904Y-79860009D02*
X8559523Y-79955247D01*
X8559523Y-79955247D02*
X8559523Y-80193342D01*
X8559523Y-80193342D02*
X8511904Y-80288580D01*
X8511904Y-80288580D02*
X8464285Y-80336200D01*
X8464285Y-80336200D02*
X8369047Y-80383819D01*
X8369047Y-80383819D02*
X8083333Y-80383819D01*
X8083333Y-80383819D02*
X7988095Y-80336200D01*
X7988095Y-80336200D02*
X7940476Y-80288580D01*
X21190476Y-115524200D02*
X21333333Y-115571819D01*
X21333333Y-115571819D02*
X21571428Y-115571819D01*
X21571428Y-115571819D02*
X21666666Y-115524200D01*
X21666666Y-115524200D02*
X21714285Y-115476580D01*
X21714285Y-115476580D02*
X21761904Y-115381342D01*
X21761904Y-115381342D02*
X21761904Y-115286104D01*
X21761904Y-115286104D02*
X21714285Y-115190866D01*
X21714285Y-115190866D02*
X21666666Y-115143247D01*
X21666666Y-115143247D02*
X21571428Y-115095628D01*
X21571428Y-115095628D02*
X21380952Y-115048009D01*
X21380952Y-115048009D02*
X21285714Y-115000390D01*
X21285714Y-115000390D02*
X21238095Y-114952771D01*
X21238095Y-114952771D02*
X21190476Y-114857533D01*
X21190476Y-114857533D02*
X21190476Y-114762295D01*
X21190476Y-114762295D02*
X21238095Y-114667057D01*
X21238095Y-114667057D02*
X21285714Y-114619438D01*
X21285714Y-114619438D02*
X21380952Y-114571819D01*
X21380952Y-114571819D02*
X21619047Y-114571819D01*
X21619047Y-114571819D02*
X21761904Y-114619438D01*
X22095238Y-114571819D02*
X22333333Y-115571819D01*
X22333333Y-115571819D02*
X22523809Y-114857533D01*
X22523809Y-114857533D02*
X22714285Y-115571819D01*
X22714285Y-115571819D02*
X22952381Y-114571819D01*
X23285714Y-114667057D02*
X23333333Y-114619438D01*
X23333333Y-114619438D02*
X23428571Y-114571819D01*
X23428571Y-114571819D02*
X23666666Y-114571819D01*
X23666666Y-114571819D02*
X23761904Y-114619438D01*
X23761904Y-114619438D02*
X23809523Y-114667057D01*
X23809523Y-114667057D02*
X23857142Y-114762295D01*
X23857142Y-114762295D02*
X23857142Y-114857533D01*
X23857142Y-114857533D02*
X23809523Y-115000390D01*
X23809523Y-115000390D02*
X23238095Y-115571819D01*
X23238095Y-115571819D02*
X23857142Y-115571819D01*
X24333333Y-115571819D02*
X24523809Y-115571819D01*
X24523809Y-115571819D02*
X24619047Y-115524200D01*
X24619047Y-115524200D02*
X24666666Y-115476580D01*
X24666666Y-115476580D02*
X24761904Y-115333723D01*
X24761904Y-115333723D02*
X24809523Y-115143247D01*
X24809523Y-115143247D02*
X24809523Y-114762295D01*
X24809523Y-114762295D02*
X24761904Y-114667057D01*
X24761904Y-114667057D02*
X24714285Y-114619438D01*
X24714285Y-114619438D02*
X24619047Y-114571819D01*
X24619047Y-114571819D02*
X24428571Y-114571819D01*
X24428571Y-114571819D02*
X24333333Y-114619438D01*
X24333333Y-114619438D02*
X24285714Y-114667057D01*
X24285714Y-114667057D02*
X24238095Y-114762295D01*
X24238095Y-114762295D02*
X24238095Y-115000390D01*
X24238095Y-115000390D02*
X24285714Y-115095628D01*
X24285714Y-115095628D02*
X24333333Y-115143247D01*
X24333333Y-115143247D02*
X24428571Y-115190866D01*
X24428571Y-115190866D02*
X24619047Y-115190866D01*
X24619047Y-115190866D02*
X24714285Y-115143247D01*
X24714285Y-115143247D02*
X24761904Y-115095628D01*
X24761904Y-115095628D02*
X24809523Y-115000390D01*
X66190476Y-91524200D02*
X66333333Y-91571819D01*
X66333333Y-91571819D02*
X66571428Y-91571819D01*
X66571428Y-91571819D02*
X66666666Y-91524200D01*
X66666666Y-91524200D02*
X66714285Y-91476580D01*
X66714285Y-91476580D02*
X66761904Y-91381342D01*
X66761904Y-91381342D02*
X66761904Y-91286104D01*
X66761904Y-91286104D02*
X66714285Y-91190866D01*
X66714285Y-91190866D02*
X66666666Y-91143247D01*
X66666666Y-91143247D02*
X66571428Y-91095628D01*
X66571428Y-91095628D02*
X66380952Y-91048009D01*
X66380952Y-91048009D02*
X66285714Y-91000390D01*
X66285714Y-91000390D02*
X66238095Y-90952771D01*
X66238095Y-90952771D02*
X66190476Y-90857533D01*
X66190476Y-90857533D02*
X66190476Y-90762295D01*
X66190476Y-90762295D02*
X66238095Y-90667057D01*
X66238095Y-90667057D02*
X66285714Y-90619438D01*
X66285714Y-90619438D02*
X66380952Y-90571819D01*
X66380952Y-90571819D02*
X66619047Y-90571819D01*
X66619047Y-90571819D02*
X66761904Y-90619438D01*
X67095238Y-90571819D02*
X67333333Y-91571819D01*
X67333333Y-91571819D02*
X67523809Y-90857533D01*
X67523809Y-90857533D02*
X67714285Y-91571819D01*
X67714285Y-91571819D02*
X67952381Y-90571819D01*
X68285714Y-90667057D02*
X68333333Y-90619438D01*
X68333333Y-90619438D02*
X68428571Y-90571819D01*
X68428571Y-90571819D02*
X68666666Y-90571819D01*
X68666666Y-90571819D02*
X68761904Y-90619438D01*
X68761904Y-90619438D02*
X68809523Y-90667057D01*
X68809523Y-90667057D02*
X68857142Y-90762295D01*
X68857142Y-90762295D02*
X68857142Y-90857533D01*
X68857142Y-90857533D02*
X68809523Y-91000390D01*
X68809523Y-91000390D02*
X68238095Y-91571819D01*
X68238095Y-91571819D02*
X68857142Y-91571819D01*
X69238095Y-90667057D02*
X69285714Y-90619438D01*
X69285714Y-90619438D02*
X69380952Y-90571819D01*
X69380952Y-90571819D02*
X69619047Y-90571819D01*
X69619047Y-90571819D02*
X69714285Y-90619438D01*
X69714285Y-90619438D02*
X69761904Y-90667057D01*
X69761904Y-90667057D02*
X69809523Y-90762295D01*
X69809523Y-90762295D02*
X69809523Y-90857533D01*
X69809523Y-90857533D02*
X69761904Y-91000390D01*
X69761904Y-91000390D02*
X69190476Y-91571819D01*
X69190476Y-91571819D02*
X69809523Y-91571819D01*
X30416667Y-68336200D02*
X30559524Y-68383819D01*
X30559524Y-68383819D02*
X30797619Y-68383819D01*
X30797619Y-68383819D02*
X30892857Y-68336200D01*
X30892857Y-68336200D02*
X30940476Y-68288580D01*
X30940476Y-68288580D02*
X30988095Y-68193342D01*
X30988095Y-68193342D02*
X30988095Y-68098104D01*
X30988095Y-68098104D02*
X30940476Y-68002866D01*
X30940476Y-68002866D02*
X30892857Y-67955247D01*
X30892857Y-67955247D02*
X30797619Y-67907628D01*
X30797619Y-67907628D02*
X30607143Y-67860009D01*
X30607143Y-67860009D02*
X30511905Y-67812390D01*
X30511905Y-67812390D02*
X30464286Y-67764771D01*
X30464286Y-67764771D02*
X30416667Y-67669533D01*
X30416667Y-67669533D02*
X30416667Y-67574295D01*
X30416667Y-67574295D02*
X30464286Y-67479057D01*
X30464286Y-67479057D02*
X30511905Y-67431438D01*
X30511905Y-67431438D02*
X30607143Y-67383819D01*
X30607143Y-67383819D02*
X30845238Y-67383819D01*
X30845238Y-67383819D02*
X30988095Y-67431438D01*
X31321429Y-67383819D02*
X31559524Y-68383819D01*
X31559524Y-68383819D02*
X31750000Y-67669533D01*
X31750000Y-67669533D02*
X31940476Y-68383819D01*
X31940476Y-68383819D02*
X32178572Y-67383819D01*
X32607143Y-68383819D02*
X32797619Y-68383819D01*
X32797619Y-68383819D02*
X32892857Y-68336200D01*
X32892857Y-68336200D02*
X32940476Y-68288580D01*
X32940476Y-68288580D02*
X33035714Y-68145723D01*
X33035714Y-68145723D02*
X33083333Y-67955247D01*
X33083333Y-67955247D02*
X33083333Y-67574295D01*
X33083333Y-67574295D02*
X33035714Y-67479057D01*
X33035714Y-67479057D02*
X32988095Y-67431438D01*
X32988095Y-67431438D02*
X32892857Y-67383819D01*
X32892857Y-67383819D02*
X32702381Y-67383819D01*
X32702381Y-67383819D02*
X32607143Y-67431438D01*
X32607143Y-67431438D02*
X32559524Y-67479057D01*
X32559524Y-67479057D02*
X32511905Y-67574295D01*
X32511905Y-67574295D02*
X32511905Y-67812390D01*
X32511905Y-67812390D02*
X32559524Y-67907628D01*
X32559524Y-67907628D02*
X32607143Y-67955247D01*
X32607143Y-67955247D02*
X32702381Y-68002866D01*
X32702381Y-68002866D02*
X32892857Y-68002866D01*
X32892857Y-68002866D02*
X32988095Y-67955247D01*
X32988095Y-67955247D02*
X33035714Y-67907628D01*
X33035714Y-67907628D02*
X33083333Y-67812390D01*
X4940476Y-128336200D02*
X5083333Y-128383819D01*
X5083333Y-128383819D02*
X5321428Y-128383819D01*
X5321428Y-128383819D02*
X5416666Y-128336200D01*
X5416666Y-128336200D02*
X5464285Y-128288580D01*
X5464285Y-128288580D02*
X5511904Y-128193342D01*
X5511904Y-128193342D02*
X5511904Y-128098104D01*
X5511904Y-128098104D02*
X5464285Y-128002866D01*
X5464285Y-128002866D02*
X5416666Y-127955247D01*
X5416666Y-127955247D02*
X5321428Y-127907628D01*
X5321428Y-127907628D02*
X5130952Y-127860009D01*
X5130952Y-127860009D02*
X5035714Y-127812390D01*
X5035714Y-127812390D02*
X4988095Y-127764771D01*
X4988095Y-127764771D02*
X4940476Y-127669533D01*
X4940476Y-127669533D02*
X4940476Y-127574295D01*
X4940476Y-127574295D02*
X4988095Y-127479057D01*
X4988095Y-127479057D02*
X5035714Y-127431438D01*
X5035714Y-127431438D02*
X5130952Y-127383819D01*
X5130952Y-127383819D02*
X5369047Y-127383819D01*
X5369047Y-127383819D02*
X5511904Y-127431438D01*
X5845238Y-127383819D02*
X6083333Y-128383819D01*
X6083333Y-128383819D02*
X6273809Y-127669533D01*
X6273809Y-127669533D02*
X6464285Y-128383819D01*
X6464285Y-128383819D02*
X6702381Y-127383819D01*
X6988095Y-127383819D02*
X7607142Y-127383819D01*
X7607142Y-127383819D02*
X7273809Y-127764771D01*
X7273809Y-127764771D02*
X7416666Y-127764771D01*
X7416666Y-127764771D02*
X7511904Y-127812390D01*
X7511904Y-127812390D02*
X7559523Y-127860009D01*
X7559523Y-127860009D02*
X7607142Y-127955247D01*
X7607142Y-127955247D02*
X7607142Y-128193342D01*
X7607142Y-128193342D02*
X7559523Y-128288580D01*
X7559523Y-128288580D02*
X7511904Y-128336200D01*
X7511904Y-128336200D02*
X7416666Y-128383819D01*
X7416666Y-128383819D02*
X7130952Y-128383819D01*
X7130952Y-128383819D02*
X7035714Y-128336200D01*
X7035714Y-128336200D02*
X6988095Y-128288580D01*
X7940476Y-127383819D02*
X8559523Y-127383819D01*
X8559523Y-127383819D02*
X8226190Y-127764771D01*
X8226190Y-127764771D02*
X8369047Y-127764771D01*
X8369047Y-127764771D02*
X8464285Y-127812390D01*
X8464285Y-127812390D02*
X8511904Y-127860009D01*
X8511904Y-127860009D02*
X8559523Y-127955247D01*
X8559523Y-127955247D02*
X8559523Y-128193342D01*
X8559523Y-128193342D02*
X8511904Y-128288580D01*
X8511904Y-128288580D02*
X8464285Y-128336200D01*
X8464285Y-128336200D02*
X8369047Y-128383819D01*
X8369047Y-128383819D02*
X8083333Y-128383819D01*
X8083333Y-128383819D02*
X7988095Y-128336200D01*
X7988095Y-128336200D02*
X7940476Y-128288580D01*
X54940476Y-80336200D02*
X55083333Y-80383819D01*
X55083333Y-80383819D02*
X55321428Y-80383819D01*
X55321428Y-80383819D02*
X55416666Y-80336200D01*
X55416666Y-80336200D02*
X55464285Y-80288580D01*
X55464285Y-80288580D02*
X55511904Y-80193342D01*
X55511904Y-80193342D02*
X55511904Y-80098104D01*
X55511904Y-80098104D02*
X55464285Y-80002866D01*
X55464285Y-80002866D02*
X55416666Y-79955247D01*
X55416666Y-79955247D02*
X55321428Y-79907628D01*
X55321428Y-79907628D02*
X55130952Y-79860009D01*
X55130952Y-79860009D02*
X55035714Y-79812390D01*
X55035714Y-79812390D02*
X54988095Y-79764771D01*
X54988095Y-79764771D02*
X54940476Y-79669533D01*
X54940476Y-79669533D02*
X54940476Y-79574295D01*
X54940476Y-79574295D02*
X54988095Y-79479057D01*
X54988095Y-79479057D02*
X55035714Y-79431438D01*
X55035714Y-79431438D02*
X55130952Y-79383819D01*
X55130952Y-79383819D02*
X55369047Y-79383819D01*
X55369047Y-79383819D02*
X55511904Y-79431438D01*
X55845238Y-79383819D02*
X56083333Y-80383819D01*
X56083333Y-80383819D02*
X56273809Y-79669533D01*
X56273809Y-79669533D02*
X56464285Y-80383819D01*
X56464285Y-80383819D02*
X56702381Y-79383819D01*
X57607142Y-80383819D02*
X57035714Y-80383819D01*
X57321428Y-80383819D02*
X57321428Y-79383819D01*
X57321428Y-79383819D02*
X57226190Y-79526676D01*
X57226190Y-79526676D02*
X57130952Y-79621914D01*
X57130952Y-79621914D02*
X57035714Y-79669533D01*
X58464285Y-79383819D02*
X58273809Y-79383819D01*
X58273809Y-79383819D02*
X58178571Y-79431438D01*
X58178571Y-79431438D02*
X58130952Y-79479057D01*
X58130952Y-79479057D02*
X58035714Y-79621914D01*
X58035714Y-79621914D02*
X57988095Y-79812390D01*
X57988095Y-79812390D02*
X57988095Y-80193342D01*
X57988095Y-80193342D02*
X58035714Y-80288580D01*
X58035714Y-80288580D02*
X58083333Y-80336200D01*
X58083333Y-80336200D02*
X58178571Y-80383819D01*
X58178571Y-80383819D02*
X58369047Y-80383819D01*
X58369047Y-80383819D02*
X58464285Y-80336200D01*
X58464285Y-80336200D02*
X58511904Y-80288580D01*
X58511904Y-80288580D02*
X58559523Y-80193342D01*
X58559523Y-80193342D02*
X58559523Y-79955247D01*
X58559523Y-79955247D02*
X58511904Y-79860009D01*
X58511904Y-79860009D02*
X58464285Y-79812390D01*
X58464285Y-79812390D02*
X58369047Y-79764771D01*
X58369047Y-79764771D02*
X58178571Y-79764771D01*
X58178571Y-79764771D02*
X58083333Y-79812390D01*
X58083333Y-79812390D02*
X58035714Y-79860009D01*
X58035714Y-79860009D02*
X57988095Y-79955247D01*
X66190476Y-127524200D02*
X66333333Y-127571819D01*
X66333333Y-127571819D02*
X66571428Y-127571819D01*
X66571428Y-127571819D02*
X66666666Y-127524200D01*
X66666666Y-127524200D02*
X66714285Y-127476580D01*
X66714285Y-127476580D02*
X66761904Y-127381342D01*
X66761904Y-127381342D02*
X66761904Y-127286104D01*
X66761904Y-127286104D02*
X66714285Y-127190866D01*
X66714285Y-127190866D02*
X66666666Y-127143247D01*
X66666666Y-127143247D02*
X66571428Y-127095628D01*
X66571428Y-127095628D02*
X66380952Y-127048009D01*
X66380952Y-127048009D02*
X66285714Y-127000390D01*
X66285714Y-127000390D02*
X66238095Y-126952771D01*
X66238095Y-126952771D02*
X66190476Y-126857533D01*
X66190476Y-126857533D02*
X66190476Y-126762295D01*
X66190476Y-126762295D02*
X66238095Y-126667057D01*
X66238095Y-126667057D02*
X66285714Y-126619438D01*
X66285714Y-126619438D02*
X66380952Y-126571819D01*
X66380952Y-126571819D02*
X66619047Y-126571819D01*
X66619047Y-126571819D02*
X66761904Y-126619438D01*
X67095238Y-126571819D02*
X67333333Y-127571819D01*
X67333333Y-127571819D02*
X67523809Y-126857533D01*
X67523809Y-126857533D02*
X67714285Y-127571819D01*
X67714285Y-127571819D02*
X67952381Y-126571819D01*
X68238095Y-126571819D02*
X68857142Y-126571819D01*
X68857142Y-126571819D02*
X68523809Y-126952771D01*
X68523809Y-126952771D02*
X68666666Y-126952771D01*
X68666666Y-126952771D02*
X68761904Y-127000390D01*
X68761904Y-127000390D02*
X68809523Y-127048009D01*
X68809523Y-127048009D02*
X68857142Y-127143247D01*
X68857142Y-127143247D02*
X68857142Y-127381342D01*
X68857142Y-127381342D02*
X68809523Y-127476580D01*
X68809523Y-127476580D02*
X68761904Y-127524200D01*
X68761904Y-127524200D02*
X68666666Y-127571819D01*
X68666666Y-127571819D02*
X68380952Y-127571819D01*
X68380952Y-127571819D02*
X68285714Y-127524200D01*
X68285714Y-127524200D02*
X68238095Y-127476580D01*
X69190476Y-126571819D02*
X69857142Y-126571819D01*
X69857142Y-126571819D02*
X69428571Y-127571819D01*
X5416667Y-68336200D02*
X5559524Y-68383819D01*
X5559524Y-68383819D02*
X5797619Y-68383819D01*
X5797619Y-68383819D02*
X5892857Y-68336200D01*
X5892857Y-68336200D02*
X5940476Y-68288580D01*
X5940476Y-68288580D02*
X5988095Y-68193342D01*
X5988095Y-68193342D02*
X5988095Y-68098104D01*
X5988095Y-68098104D02*
X5940476Y-68002866D01*
X5940476Y-68002866D02*
X5892857Y-67955247D01*
X5892857Y-67955247D02*
X5797619Y-67907628D01*
X5797619Y-67907628D02*
X5607143Y-67860009D01*
X5607143Y-67860009D02*
X5511905Y-67812390D01*
X5511905Y-67812390D02*
X5464286Y-67764771D01*
X5464286Y-67764771D02*
X5416667Y-67669533D01*
X5416667Y-67669533D02*
X5416667Y-67574295D01*
X5416667Y-67574295D02*
X5464286Y-67479057D01*
X5464286Y-67479057D02*
X5511905Y-67431438D01*
X5511905Y-67431438D02*
X5607143Y-67383819D01*
X5607143Y-67383819D02*
X5845238Y-67383819D01*
X5845238Y-67383819D02*
X5988095Y-67431438D01*
X6321429Y-67383819D02*
X6559524Y-68383819D01*
X6559524Y-68383819D02*
X6750000Y-67669533D01*
X6750000Y-67669533D02*
X6940476Y-68383819D01*
X6940476Y-68383819D02*
X7178572Y-67383819D01*
X7464286Y-67383819D02*
X8130952Y-67383819D01*
X8130952Y-67383819D02*
X7702381Y-68383819D01*
X42916667Y-56336200D02*
X43059524Y-56383819D01*
X43059524Y-56383819D02*
X43297619Y-56383819D01*
X43297619Y-56383819D02*
X43392857Y-56336200D01*
X43392857Y-56336200D02*
X43440476Y-56288580D01*
X43440476Y-56288580D02*
X43488095Y-56193342D01*
X43488095Y-56193342D02*
X43488095Y-56098104D01*
X43488095Y-56098104D02*
X43440476Y-56002866D01*
X43440476Y-56002866D02*
X43392857Y-55955247D01*
X43392857Y-55955247D02*
X43297619Y-55907628D01*
X43297619Y-55907628D02*
X43107143Y-55860009D01*
X43107143Y-55860009D02*
X43011905Y-55812390D01*
X43011905Y-55812390D02*
X42964286Y-55764771D01*
X42964286Y-55764771D02*
X42916667Y-55669533D01*
X42916667Y-55669533D02*
X42916667Y-55574295D01*
X42916667Y-55574295D02*
X42964286Y-55479057D01*
X42964286Y-55479057D02*
X43011905Y-55431438D01*
X43011905Y-55431438D02*
X43107143Y-55383819D01*
X43107143Y-55383819D02*
X43345238Y-55383819D01*
X43345238Y-55383819D02*
X43488095Y-55431438D01*
X43821429Y-55383819D02*
X44059524Y-56383819D01*
X44059524Y-56383819D02*
X44250000Y-55669533D01*
X44250000Y-55669533D02*
X44440476Y-56383819D01*
X44440476Y-56383819D02*
X44678572Y-55383819D01*
X45488095Y-55717152D02*
X45488095Y-56383819D01*
X45250000Y-55336200D02*
X45011905Y-56050485D01*
X45011905Y-56050485D02*
X45630952Y-56050485D01*
X29940476Y-80336200D02*
X30083333Y-80383819D01*
X30083333Y-80383819D02*
X30321428Y-80383819D01*
X30321428Y-80383819D02*
X30416666Y-80336200D01*
X30416666Y-80336200D02*
X30464285Y-80288580D01*
X30464285Y-80288580D02*
X30511904Y-80193342D01*
X30511904Y-80193342D02*
X30511904Y-80098104D01*
X30511904Y-80098104D02*
X30464285Y-80002866D01*
X30464285Y-80002866D02*
X30416666Y-79955247D01*
X30416666Y-79955247D02*
X30321428Y-79907628D01*
X30321428Y-79907628D02*
X30130952Y-79860009D01*
X30130952Y-79860009D02*
X30035714Y-79812390D01*
X30035714Y-79812390D02*
X29988095Y-79764771D01*
X29988095Y-79764771D02*
X29940476Y-79669533D01*
X29940476Y-79669533D02*
X29940476Y-79574295D01*
X29940476Y-79574295D02*
X29988095Y-79479057D01*
X29988095Y-79479057D02*
X30035714Y-79431438D01*
X30035714Y-79431438D02*
X30130952Y-79383819D01*
X30130952Y-79383819D02*
X30369047Y-79383819D01*
X30369047Y-79383819D02*
X30511904Y-79431438D01*
X30845238Y-79383819D02*
X31083333Y-80383819D01*
X31083333Y-80383819D02*
X31273809Y-79669533D01*
X31273809Y-79669533D02*
X31464285Y-80383819D01*
X31464285Y-80383819D02*
X31702381Y-79383819D01*
X32607142Y-80383819D02*
X32035714Y-80383819D01*
X32321428Y-80383819D02*
X32321428Y-79383819D01*
X32321428Y-79383819D02*
X32226190Y-79526676D01*
X32226190Y-79526676D02*
X32130952Y-79621914D01*
X32130952Y-79621914D02*
X32035714Y-79669533D01*
X33464285Y-79717152D02*
X33464285Y-80383819D01*
X33226190Y-79336200D02*
X32988095Y-80050485D01*
X32988095Y-80050485D02*
X33607142Y-80050485D01*
X4940476Y-116336200D02*
X5083333Y-116383819D01*
X5083333Y-116383819D02*
X5321428Y-116383819D01*
X5321428Y-116383819D02*
X5416666Y-116336200D01*
X5416666Y-116336200D02*
X5464285Y-116288580D01*
X5464285Y-116288580D02*
X5511904Y-116193342D01*
X5511904Y-116193342D02*
X5511904Y-116098104D01*
X5511904Y-116098104D02*
X5464285Y-116002866D01*
X5464285Y-116002866D02*
X5416666Y-115955247D01*
X5416666Y-115955247D02*
X5321428Y-115907628D01*
X5321428Y-115907628D02*
X5130952Y-115860009D01*
X5130952Y-115860009D02*
X5035714Y-115812390D01*
X5035714Y-115812390D02*
X4988095Y-115764771D01*
X4988095Y-115764771D02*
X4940476Y-115669533D01*
X4940476Y-115669533D02*
X4940476Y-115574295D01*
X4940476Y-115574295D02*
X4988095Y-115479057D01*
X4988095Y-115479057D02*
X5035714Y-115431438D01*
X5035714Y-115431438D02*
X5130952Y-115383819D01*
X5130952Y-115383819D02*
X5369047Y-115383819D01*
X5369047Y-115383819D02*
X5511904Y-115431438D01*
X5845238Y-115383819D02*
X6083333Y-116383819D01*
X6083333Y-116383819D02*
X6273809Y-115669533D01*
X6273809Y-115669533D02*
X6464285Y-116383819D01*
X6464285Y-116383819D02*
X6702381Y-115383819D01*
X7035714Y-115479057D02*
X7083333Y-115431438D01*
X7083333Y-115431438D02*
X7178571Y-115383819D01*
X7178571Y-115383819D02*
X7416666Y-115383819D01*
X7416666Y-115383819D02*
X7511904Y-115431438D01*
X7511904Y-115431438D02*
X7559523Y-115479057D01*
X7559523Y-115479057D02*
X7607142Y-115574295D01*
X7607142Y-115574295D02*
X7607142Y-115669533D01*
X7607142Y-115669533D02*
X7559523Y-115812390D01*
X7559523Y-115812390D02*
X6988095Y-116383819D01*
X6988095Y-116383819D02*
X7607142Y-116383819D01*
X8178571Y-115812390D02*
X8083333Y-115764771D01*
X8083333Y-115764771D02*
X8035714Y-115717152D01*
X8035714Y-115717152D02*
X7988095Y-115621914D01*
X7988095Y-115621914D02*
X7988095Y-115574295D01*
X7988095Y-115574295D02*
X8035714Y-115479057D01*
X8035714Y-115479057D02*
X8083333Y-115431438D01*
X8083333Y-115431438D02*
X8178571Y-115383819D01*
X8178571Y-115383819D02*
X8369047Y-115383819D01*
X8369047Y-115383819D02*
X8464285Y-115431438D01*
X8464285Y-115431438D02*
X8511904Y-115479057D01*
X8511904Y-115479057D02*
X8559523Y-115574295D01*
X8559523Y-115574295D02*
X8559523Y-115621914D01*
X8559523Y-115621914D02*
X8511904Y-115717152D01*
X8511904Y-115717152D02*
X8464285Y-115764771D01*
X8464285Y-115764771D02*
X8369047Y-115812390D01*
X8369047Y-115812390D02*
X8178571Y-115812390D01*
X8178571Y-115812390D02*
X8083333Y-115860009D01*
X8083333Y-115860009D02*
X8035714Y-115907628D01*
X8035714Y-115907628D02*
X7988095Y-116002866D01*
X7988095Y-116002866D02*
X7988095Y-116193342D01*
X7988095Y-116193342D02*
X8035714Y-116288580D01*
X8035714Y-116288580D02*
X8083333Y-116336200D01*
X8083333Y-116336200D02*
X8178571Y-116383819D01*
X8178571Y-116383819D02*
X8369047Y-116383819D01*
X8369047Y-116383819D02*
X8464285Y-116336200D01*
X8464285Y-116336200D02*
X8511904Y-116288580D01*
X8511904Y-116288580D02*
X8559523Y-116193342D01*
X8559523Y-116193342D02*
X8559523Y-116002866D01*
X8559523Y-116002866D02*
X8511904Y-115907628D01*
X8511904Y-115907628D02*
X8464285Y-115860009D01*
X8464285Y-115860009D02*
X8369047Y-115812390D01*
X51190476Y-91524200D02*
X51333333Y-91571819D01*
X51333333Y-91571819D02*
X51571428Y-91571819D01*
X51571428Y-91571819D02*
X51666666Y-91524200D01*
X51666666Y-91524200D02*
X51714285Y-91476580D01*
X51714285Y-91476580D02*
X51761904Y-91381342D01*
X51761904Y-91381342D02*
X51761904Y-91286104D01*
X51761904Y-91286104D02*
X51714285Y-91190866D01*
X51714285Y-91190866D02*
X51666666Y-91143247D01*
X51666666Y-91143247D02*
X51571428Y-91095628D01*
X51571428Y-91095628D02*
X51380952Y-91048009D01*
X51380952Y-91048009D02*
X51285714Y-91000390D01*
X51285714Y-91000390D02*
X51238095Y-90952771D01*
X51238095Y-90952771D02*
X51190476Y-90857533D01*
X51190476Y-90857533D02*
X51190476Y-90762295D01*
X51190476Y-90762295D02*
X51238095Y-90667057D01*
X51238095Y-90667057D02*
X51285714Y-90619438D01*
X51285714Y-90619438D02*
X51380952Y-90571819D01*
X51380952Y-90571819D02*
X51619047Y-90571819D01*
X51619047Y-90571819D02*
X51761904Y-90619438D01*
X52095238Y-90571819D02*
X52333333Y-91571819D01*
X52333333Y-91571819D02*
X52523809Y-90857533D01*
X52523809Y-90857533D02*
X52714285Y-91571819D01*
X52714285Y-91571819D02*
X52952381Y-90571819D01*
X53285714Y-90667057D02*
X53333333Y-90619438D01*
X53333333Y-90619438D02*
X53428571Y-90571819D01*
X53428571Y-90571819D02*
X53666666Y-90571819D01*
X53666666Y-90571819D02*
X53761904Y-90619438D01*
X53761904Y-90619438D02*
X53809523Y-90667057D01*
X53809523Y-90667057D02*
X53857142Y-90762295D01*
X53857142Y-90762295D02*
X53857142Y-90857533D01*
X53857142Y-90857533D02*
X53809523Y-91000390D01*
X53809523Y-91000390D02*
X53238095Y-91571819D01*
X53238095Y-91571819D02*
X53857142Y-91571819D01*
X54809523Y-91571819D02*
X54238095Y-91571819D01*
X54523809Y-91571819D02*
X54523809Y-90571819D01*
X54523809Y-90571819D02*
X54428571Y-90714676D01*
X54428571Y-90714676D02*
X54333333Y-90809914D01*
X54333333Y-90809914D02*
X54238095Y-90857533D01*
X8238095Y-47956819D02*
X8809523Y-47956819D01*
X8523809Y-48956819D02*
X8523809Y-47956819D01*
X9142857Y-48956819D02*
X9142857Y-47956819D01*
X9142857Y-47956819D02*
X9523809Y-47956819D01*
X9523809Y-47956819D02*
X9619047Y-48004438D01*
X9619047Y-48004438D02*
X9666666Y-48052057D01*
X9666666Y-48052057D02*
X9714285Y-48147295D01*
X9714285Y-48147295D02*
X9714285Y-48290152D01*
X9714285Y-48290152D02*
X9666666Y-48385390D01*
X9666666Y-48385390D02*
X9619047Y-48433009D01*
X9619047Y-48433009D02*
X9523809Y-48480628D01*
X9523809Y-48480628D02*
X9142857Y-48480628D01*
X10666666Y-48956819D02*
X10095238Y-48956819D01*
X10380952Y-48956819D02*
X10380952Y-47956819D01*
X10380952Y-47956819D02*
X10285714Y-48099676D01*
X10285714Y-48099676D02*
X10190476Y-48194914D01*
X10190476Y-48194914D02*
X10095238Y-48242533D01*
X4940476Y-92336200D02*
X5083333Y-92383819D01*
X5083333Y-92383819D02*
X5321428Y-92383819D01*
X5321428Y-92383819D02*
X5416666Y-92336200D01*
X5416666Y-92336200D02*
X5464285Y-92288580D01*
X5464285Y-92288580D02*
X5511904Y-92193342D01*
X5511904Y-92193342D02*
X5511904Y-92098104D01*
X5511904Y-92098104D02*
X5464285Y-92002866D01*
X5464285Y-92002866D02*
X5416666Y-91955247D01*
X5416666Y-91955247D02*
X5321428Y-91907628D01*
X5321428Y-91907628D02*
X5130952Y-91860009D01*
X5130952Y-91860009D02*
X5035714Y-91812390D01*
X5035714Y-91812390D02*
X4988095Y-91764771D01*
X4988095Y-91764771D02*
X4940476Y-91669533D01*
X4940476Y-91669533D02*
X4940476Y-91574295D01*
X4940476Y-91574295D02*
X4988095Y-91479057D01*
X4988095Y-91479057D02*
X5035714Y-91431438D01*
X5035714Y-91431438D02*
X5130952Y-91383819D01*
X5130952Y-91383819D02*
X5369047Y-91383819D01*
X5369047Y-91383819D02*
X5511904Y-91431438D01*
X5845238Y-91383819D02*
X6083333Y-92383819D01*
X6083333Y-92383819D02*
X6273809Y-91669533D01*
X6273809Y-91669533D02*
X6464285Y-92383819D01*
X6464285Y-92383819D02*
X6702381Y-91383819D01*
X7607142Y-92383819D02*
X7035714Y-92383819D01*
X7321428Y-92383819D02*
X7321428Y-91383819D01*
X7321428Y-91383819D02*
X7226190Y-91526676D01*
X7226190Y-91526676D02*
X7130952Y-91621914D01*
X7130952Y-91621914D02*
X7035714Y-91669533D01*
X8178571Y-91812390D02*
X8083333Y-91764771D01*
X8083333Y-91764771D02*
X8035714Y-91717152D01*
X8035714Y-91717152D02*
X7988095Y-91621914D01*
X7988095Y-91621914D02*
X7988095Y-91574295D01*
X7988095Y-91574295D02*
X8035714Y-91479057D01*
X8035714Y-91479057D02*
X8083333Y-91431438D01*
X8083333Y-91431438D02*
X8178571Y-91383819D01*
X8178571Y-91383819D02*
X8369047Y-91383819D01*
X8369047Y-91383819D02*
X8464285Y-91431438D01*
X8464285Y-91431438D02*
X8511904Y-91479057D01*
X8511904Y-91479057D02*
X8559523Y-91574295D01*
X8559523Y-91574295D02*
X8559523Y-91621914D01*
X8559523Y-91621914D02*
X8511904Y-91717152D01*
X8511904Y-91717152D02*
X8464285Y-91764771D01*
X8464285Y-91764771D02*
X8369047Y-91812390D01*
X8369047Y-91812390D02*
X8178571Y-91812390D01*
X8178571Y-91812390D02*
X8083333Y-91860009D01*
X8083333Y-91860009D02*
X8035714Y-91907628D01*
X8035714Y-91907628D02*
X7988095Y-92002866D01*
X7988095Y-92002866D02*
X7988095Y-92193342D01*
X7988095Y-92193342D02*
X8035714Y-92288580D01*
X8035714Y-92288580D02*
X8083333Y-92336200D01*
X8083333Y-92336200D02*
X8178571Y-92383819D01*
X8178571Y-92383819D02*
X8369047Y-92383819D01*
X8369047Y-92383819D02*
X8464285Y-92336200D01*
X8464285Y-92336200D02*
X8511904Y-92288580D01*
X8511904Y-92288580D02*
X8559523Y-92193342D01*
X8559523Y-92193342D02*
X8559523Y-92002866D01*
X8559523Y-92002866D02*
X8511904Y-91907628D01*
X8511904Y-91907628D02*
X8464285Y-91860009D01*
X8464285Y-91860009D02*
X8369047Y-91812390D01*
X17916667Y-68336200D02*
X18059524Y-68383819D01*
X18059524Y-68383819D02*
X18297619Y-68383819D01*
X18297619Y-68383819D02*
X18392857Y-68336200D01*
X18392857Y-68336200D02*
X18440476Y-68288580D01*
X18440476Y-68288580D02*
X18488095Y-68193342D01*
X18488095Y-68193342D02*
X18488095Y-68098104D01*
X18488095Y-68098104D02*
X18440476Y-68002866D01*
X18440476Y-68002866D02*
X18392857Y-67955247D01*
X18392857Y-67955247D02*
X18297619Y-67907628D01*
X18297619Y-67907628D02*
X18107143Y-67860009D01*
X18107143Y-67860009D02*
X18011905Y-67812390D01*
X18011905Y-67812390D02*
X17964286Y-67764771D01*
X17964286Y-67764771D02*
X17916667Y-67669533D01*
X17916667Y-67669533D02*
X17916667Y-67574295D01*
X17916667Y-67574295D02*
X17964286Y-67479057D01*
X17964286Y-67479057D02*
X18011905Y-67431438D01*
X18011905Y-67431438D02*
X18107143Y-67383819D01*
X18107143Y-67383819D02*
X18345238Y-67383819D01*
X18345238Y-67383819D02*
X18488095Y-67431438D01*
X18821429Y-67383819D02*
X19059524Y-68383819D01*
X19059524Y-68383819D02*
X19250000Y-67669533D01*
X19250000Y-67669533D02*
X19440476Y-68383819D01*
X19440476Y-68383819D02*
X19678572Y-67383819D01*
X20202381Y-67812390D02*
X20107143Y-67764771D01*
X20107143Y-67764771D02*
X20059524Y-67717152D01*
X20059524Y-67717152D02*
X20011905Y-67621914D01*
X20011905Y-67621914D02*
X20011905Y-67574295D01*
X20011905Y-67574295D02*
X20059524Y-67479057D01*
X20059524Y-67479057D02*
X20107143Y-67431438D01*
X20107143Y-67431438D02*
X20202381Y-67383819D01*
X20202381Y-67383819D02*
X20392857Y-67383819D01*
X20392857Y-67383819D02*
X20488095Y-67431438D01*
X20488095Y-67431438D02*
X20535714Y-67479057D01*
X20535714Y-67479057D02*
X20583333Y-67574295D01*
X20583333Y-67574295D02*
X20583333Y-67621914D01*
X20583333Y-67621914D02*
X20535714Y-67717152D01*
X20535714Y-67717152D02*
X20488095Y-67764771D01*
X20488095Y-67764771D02*
X20392857Y-67812390D01*
X20392857Y-67812390D02*
X20202381Y-67812390D01*
X20202381Y-67812390D02*
X20107143Y-67860009D01*
X20107143Y-67860009D02*
X20059524Y-67907628D01*
X20059524Y-67907628D02*
X20011905Y-68002866D01*
X20011905Y-68002866D02*
X20011905Y-68193342D01*
X20011905Y-68193342D02*
X20059524Y-68288580D01*
X20059524Y-68288580D02*
X20107143Y-68336200D01*
X20107143Y-68336200D02*
X20202381Y-68383819D01*
X20202381Y-68383819D02*
X20392857Y-68383819D01*
X20392857Y-68383819D02*
X20488095Y-68336200D01*
X20488095Y-68336200D02*
X20535714Y-68288580D01*
X20535714Y-68288580D02*
X20583333Y-68193342D01*
X20583333Y-68193342D02*
X20583333Y-68002866D01*
X20583333Y-68002866D02*
X20535714Y-67907628D01*
X20535714Y-67907628D02*
X20488095Y-67860009D01*
X20488095Y-67860009D02*
X20392857Y-67812390D01*
X36190476Y-91524200D02*
X36333333Y-91571819D01*
X36333333Y-91571819D02*
X36571428Y-91571819D01*
X36571428Y-91571819D02*
X36666666Y-91524200D01*
X36666666Y-91524200D02*
X36714285Y-91476580D01*
X36714285Y-91476580D02*
X36761904Y-91381342D01*
X36761904Y-91381342D02*
X36761904Y-91286104D01*
X36761904Y-91286104D02*
X36714285Y-91190866D01*
X36714285Y-91190866D02*
X36666666Y-91143247D01*
X36666666Y-91143247D02*
X36571428Y-91095628D01*
X36571428Y-91095628D02*
X36380952Y-91048009D01*
X36380952Y-91048009D02*
X36285714Y-91000390D01*
X36285714Y-91000390D02*
X36238095Y-90952771D01*
X36238095Y-90952771D02*
X36190476Y-90857533D01*
X36190476Y-90857533D02*
X36190476Y-90762295D01*
X36190476Y-90762295D02*
X36238095Y-90667057D01*
X36238095Y-90667057D02*
X36285714Y-90619438D01*
X36285714Y-90619438D02*
X36380952Y-90571819D01*
X36380952Y-90571819D02*
X36619047Y-90571819D01*
X36619047Y-90571819D02*
X36761904Y-90619438D01*
X37095238Y-90571819D02*
X37333333Y-91571819D01*
X37333333Y-91571819D02*
X37523809Y-90857533D01*
X37523809Y-90857533D02*
X37714285Y-91571819D01*
X37714285Y-91571819D02*
X37952381Y-90571819D01*
X38285714Y-90667057D02*
X38333333Y-90619438D01*
X38333333Y-90619438D02*
X38428571Y-90571819D01*
X38428571Y-90571819D02*
X38666666Y-90571819D01*
X38666666Y-90571819D02*
X38761904Y-90619438D01*
X38761904Y-90619438D02*
X38809523Y-90667057D01*
X38809523Y-90667057D02*
X38857142Y-90762295D01*
X38857142Y-90762295D02*
X38857142Y-90857533D01*
X38857142Y-90857533D02*
X38809523Y-91000390D01*
X38809523Y-91000390D02*
X38238095Y-91571819D01*
X38238095Y-91571819D02*
X38857142Y-91571819D01*
X39476190Y-90571819D02*
X39571428Y-90571819D01*
X39571428Y-90571819D02*
X39666666Y-90619438D01*
X39666666Y-90619438D02*
X39714285Y-90667057D01*
X39714285Y-90667057D02*
X39761904Y-90762295D01*
X39761904Y-90762295D02*
X39809523Y-90952771D01*
X39809523Y-90952771D02*
X39809523Y-91190866D01*
X39809523Y-91190866D02*
X39761904Y-91381342D01*
X39761904Y-91381342D02*
X39714285Y-91476580D01*
X39714285Y-91476580D02*
X39666666Y-91524200D01*
X39666666Y-91524200D02*
X39571428Y-91571819D01*
X39571428Y-91571819D02*
X39476190Y-91571819D01*
X39476190Y-91571819D02*
X39380952Y-91524200D01*
X39380952Y-91524200D02*
X39333333Y-91476580D01*
X39333333Y-91476580D02*
X39285714Y-91381342D01*
X39285714Y-91381342D02*
X39238095Y-91190866D01*
X39238095Y-91190866D02*
X39238095Y-90952771D01*
X39238095Y-90952771D02*
X39285714Y-90762295D01*
X39285714Y-90762295D02*
X39333333Y-90667057D01*
X39333333Y-90667057D02*
X39380952Y-90619438D01*
X39380952Y-90619438D02*
X39476190Y-90571819D01*
X21190476Y-91524200D02*
X21333333Y-91571819D01*
X21333333Y-91571819D02*
X21571428Y-91571819D01*
X21571428Y-91571819D02*
X21666666Y-91524200D01*
X21666666Y-91524200D02*
X21714285Y-91476580D01*
X21714285Y-91476580D02*
X21761904Y-91381342D01*
X21761904Y-91381342D02*
X21761904Y-91286104D01*
X21761904Y-91286104D02*
X21714285Y-91190866D01*
X21714285Y-91190866D02*
X21666666Y-91143247D01*
X21666666Y-91143247D02*
X21571428Y-91095628D01*
X21571428Y-91095628D02*
X21380952Y-91048009D01*
X21380952Y-91048009D02*
X21285714Y-91000390D01*
X21285714Y-91000390D02*
X21238095Y-90952771D01*
X21238095Y-90952771D02*
X21190476Y-90857533D01*
X21190476Y-90857533D02*
X21190476Y-90762295D01*
X21190476Y-90762295D02*
X21238095Y-90667057D01*
X21238095Y-90667057D02*
X21285714Y-90619438D01*
X21285714Y-90619438D02*
X21380952Y-90571819D01*
X21380952Y-90571819D02*
X21619047Y-90571819D01*
X21619047Y-90571819D02*
X21761904Y-90619438D01*
X22095238Y-90571819D02*
X22333333Y-91571819D01*
X22333333Y-91571819D02*
X22523809Y-90857533D01*
X22523809Y-90857533D02*
X22714285Y-91571819D01*
X22714285Y-91571819D02*
X22952381Y-90571819D01*
X23857142Y-91571819D02*
X23285714Y-91571819D01*
X23571428Y-91571819D02*
X23571428Y-90571819D01*
X23571428Y-90571819D02*
X23476190Y-90714676D01*
X23476190Y-90714676D02*
X23380952Y-90809914D01*
X23380952Y-90809914D02*
X23285714Y-90857533D01*
X24333333Y-91571819D02*
X24523809Y-91571819D01*
X24523809Y-91571819D02*
X24619047Y-91524200D01*
X24619047Y-91524200D02*
X24666666Y-91476580D01*
X24666666Y-91476580D02*
X24761904Y-91333723D01*
X24761904Y-91333723D02*
X24809523Y-91143247D01*
X24809523Y-91143247D02*
X24809523Y-90762295D01*
X24809523Y-90762295D02*
X24761904Y-90667057D01*
X24761904Y-90667057D02*
X24714285Y-90619438D01*
X24714285Y-90619438D02*
X24619047Y-90571819D01*
X24619047Y-90571819D02*
X24428571Y-90571819D01*
X24428571Y-90571819D02*
X24333333Y-90619438D01*
X24333333Y-90619438D02*
X24285714Y-90667057D01*
X24285714Y-90667057D02*
X24238095Y-90762295D01*
X24238095Y-90762295D02*
X24238095Y-91000390D01*
X24238095Y-91000390D02*
X24285714Y-91095628D01*
X24285714Y-91095628D02*
X24333333Y-91143247D01*
X24333333Y-91143247D02*
X24428571Y-91190866D01*
X24428571Y-91190866D02*
X24619047Y-91190866D01*
X24619047Y-91190866D02*
X24714285Y-91143247D01*
X24714285Y-91143247D02*
X24761904Y-91095628D01*
X24761904Y-91095628D02*
X24809523Y-91000390D01*
X21190476Y-103524200D02*
X21333333Y-103571819D01*
X21333333Y-103571819D02*
X21571428Y-103571819D01*
X21571428Y-103571819D02*
X21666666Y-103524200D01*
X21666666Y-103524200D02*
X21714285Y-103476580D01*
X21714285Y-103476580D02*
X21761904Y-103381342D01*
X21761904Y-103381342D02*
X21761904Y-103286104D01*
X21761904Y-103286104D02*
X21714285Y-103190866D01*
X21714285Y-103190866D02*
X21666666Y-103143247D01*
X21666666Y-103143247D02*
X21571428Y-103095628D01*
X21571428Y-103095628D02*
X21380952Y-103048009D01*
X21380952Y-103048009D02*
X21285714Y-103000390D01*
X21285714Y-103000390D02*
X21238095Y-102952771D01*
X21238095Y-102952771D02*
X21190476Y-102857533D01*
X21190476Y-102857533D02*
X21190476Y-102762295D01*
X21190476Y-102762295D02*
X21238095Y-102667057D01*
X21238095Y-102667057D02*
X21285714Y-102619438D01*
X21285714Y-102619438D02*
X21380952Y-102571819D01*
X21380952Y-102571819D02*
X21619047Y-102571819D01*
X21619047Y-102571819D02*
X21761904Y-102619438D01*
X22095238Y-102571819D02*
X22333333Y-103571819D01*
X22333333Y-103571819D02*
X22523809Y-102857533D01*
X22523809Y-102857533D02*
X22714285Y-103571819D01*
X22714285Y-103571819D02*
X22952381Y-102571819D01*
X23285714Y-102667057D02*
X23333333Y-102619438D01*
X23333333Y-102619438D02*
X23428571Y-102571819D01*
X23428571Y-102571819D02*
X23666666Y-102571819D01*
X23666666Y-102571819D02*
X23761904Y-102619438D01*
X23761904Y-102619438D02*
X23809523Y-102667057D01*
X23809523Y-102667057D02*
X23857142Y-102762295D01*
X23857142Y-102762295D02*
X23857142Y-102857533D01*
X23857142Y-102857533D02*
X23809523Y-103000390D01*
X23809523Y-103000390D02*
X23238095Y-103571819D01*
X23238095Y-103571819D02*
X23857142Y-103571819D01*
X24714285Y-102905152D02*
X24714285Y-103571819D01*
X24476190Y-102524200D02*
X24238095Y-103238485D01*
X24238095Y-103238485D02*
X24857142Y-103238485D01*
%TO.C,TP2*%
D11*
X68300000Y-49300000D02*
X70700000Y-49300000D01*
X68300000Y-51700000D02*
X68300000Y-49300000D01*
X70700000Y-49300000D02*
X70700000Y-51700000D01*
X70700000Y-51700000D02*
X68300000Y-51700000D01*
%TO.C,TP3*%
X2110000Y-51640000D02*
X5510000Y-51640000D01*
X2110000Y-55040000D02*
X2110000Y-51640000D01*
X5510000Y-51640000D02*
X5510000Y-55040000D01*
X5510000Y-55040000D02*
X2110000Y-55040000D01*
%TO.C,TP1*%
X8300000Y-49300000D02*
X10700000Y-49300000D01*
X8300000Y-51700000D02*
X8300000Y-49300000D01*
X10700000Y-49300000D02*
X10700000Y-51700000D01*
X10700000Y-51700000D02*
X8300000Y-51700000D01*
%TD*%
M02*
