%TF.GenerationSoftware,KiCad,Pcbnew,10.0.3*%
%TF.CreationDate,2026-09-28T13:11:20+01:00*%
%TF.ProjectId,default,64656661-756c-4742-9e6b-696361645f70,rev?*%
%TF.SameCoordinates,Original*%
%TF.FileFunction,Soldermask,Bot*%
%TF.FilePolarity,Negative*%
%FSLAX46Y46*%
G04 Gerber Fmt 4.6, Leading zero omitted, Abs format (unit mm)*
G04 Created by KiCad (PCBNEW 10.0.3) date 2026-09-28 13:11:20*
%MOMM*%
%LPD*%
G01*
G04 APERTURE LIST*
G04 Aperture macros list*
%AMRoundRect*
0 Rectangle with rounded corners*
0 $1 Rounding radius*
0 $2 $3 $4 $5 $6 $7 $8 $9 X,Y pos of 4 corners*
0 Add a 4 corners polygon primitive as box body*
4,1,4,$2,$3,$4,$5,$6,$7,$8,$9,$2,$3,0*
0 Add four circle primitives for the rounded corners*
1,1,$1+$1,$2,$3*
1,1,$1+$1,$4,$5*
1,1,$1+$1,$6,$7*
1,1,$1+$1,$8,$9*
0 Add four rect primitives between the rounded corners*
20,1,$1+$1,$2,$3,$4,$5,0*
20,1,$1+$1,$4,$5,$6,$7,0*
20,1,$1+$1,$6,$7,$8,$9,0*
20,1,$1+$1,$8,$9,$2,$3,0*%
%AMOutline5P*
0 Free polygon, 5 corners , with rotation*
0 The origin of the aperture is its center*
0 number of corners: always 5*
0 $1 to $10 corner X, Y*
0 $11 Rotation angle, in degrees counterclockwise*
0 create outline with 5 corners*
4,1,5,$1,$2,$3,$4,$5,$6,$7,$8,$9,$10,$1,$2,$11*%
%AMOutline6P*
0 Free polygon, 6 corners , with rotation*
0 The origin of the aperture is its center*
0 number of corners: always 6*
0 $1 to $12 corner X, Y*
0 $13 Rotation angle, in degrees counterclockwise*
0 create outline with 6 corners*
4,1,6,$1,$2,$3,$4,$5,$6,$7,$8,$9,$10,$11,$12,$1,$2,$13*%
%AMOutline7P*
0 Free polygon, 7 corners , with rotation*
0 The origin of the aperture is its center*
0 number of corners: always 7*
0 $1 to $14 corner X, Y*
0 $15 Rotation angle, in degrees counterclockwise*
0 create outline with 7 corners*
4,1,7,$1,$2,$3,$4,$5,$6,$7,$8,$9,$10,$11,$12,$13,$14,$1,$2,$15*%
%AMOutline8P*
0 Free polygon, 8 corners , with rotation*
0 The origin of the aperture is its center*
0 number of corners: always 8*
0 $1 to $16 corner X, Y*
0 $17 Rotation angle, in degrees counterclockwise*
0 create outline with 8 corners*
4,1,8,$1,$2,$3,$4,$5,$6,$7,$8,$9,$10,$11,$12,$13,$14,$15,$16,$1,$2,$17*%
%AMFreePoly0*
4,1,7,1.050000,-0.975000,-1.050000,-0.975000,-1.050000,0.625000,-0.250000,0.625000,-0.250000,0.975000,1.050000,0.975000,1.050000,-0.975000,1.050000,-0.975000,$1*%
%AMFreePoly1*
4,1,7,0.250000,0.625000,1.050000,0.625000,1.050000,-0.975000,-1.050000,-0.975000,-1.050000,0.975000,0.250000,0.975000,0.250000,0.625000,0.250000,0.625000,$1*%
G04 Aperture macros list end*
%ADD10RoundRect,0.225000X-0.225000X-0.250000X0.225000X-0.250000X0.225000X0.250000X-0.225000X0.250000X0*%
%ADD11RoundRect,0.135000X-0.135000X-0.185000X0.135000X-0.185000X0.135000X0.185000X-0.135000X0.185000X0*%
%ADD12C,1.500000*%
%ADD13RoundRect,0.250000X-0.250000X-0.475000X0.250000X-0.475000X0.250000X0.475000X-0.250000X0.475000X0*%
%ADD14RoundRect,0.225000X-0.225000X-0.375000X0.225000X-0.375000X0.225000X0.375000X-0.225000X0.375000X0*%
%ADD15RoundRect,0.200000X-0.200000X-1.150000X0.200000X-1.150000X0.200000X1.150000X-0.200000X1.150000X0*%
%ADD16RoundRect,0.140000X-0.140000X-0.170000X0.140000X-0.170000X0.140000X0.170000X-0.140000X0.170000X0*%
%ADD17RoundRect,0.150000X-0.512500X-0.150000X0.512500X-0.150000X0.512500X0.150000X-0.512500X0.150000X0*%
%ADD18RoundRect,0.037500X-0.262500X-0.087500X0.262500X-0.087500X0.262500X0.087500X-0.262500X0.087500X0*%
%ADD19RoundRect,0.105000X-0.245000X-0.895000X0.245000X-0.895000X0.245000X0.895000X-0.245000X0.895000X0*%
%ADD20R,3.400000X0.980000*%
%ADD21R,0.800000X0.400000*%
%ADD22R,0.400000X0.800000*%
%ADD23R,1.200000X1.200000*%
%ADD24Outline5P,-0.600000X0.204000X-0.204000X0.600000X0.600000X0.600000X0.600000X-0.600000X-0.600000X-0.600000X0.000000*%
%ADD25R,0.800000X0.800000*%
%ADD26RoundRect,0.135000X0.315000X0.465000X-0.315000X0.465000X-0.315000X-0.465000X0.315000X-0.465000X0*%
%ADD27RoundRect,0.075000X-0.475000X0.075000X-0.475000X-0.075000X0.475000X-0.075000X0.475000X0.075000X0*%
%ADD28FreePoly0,270.000000*%
%ADD29FreePoly1,270.000000*%
%ADD30R,1.200000X4.000000*%
%ADD31RoundRect,0.062500X-0.325000X-0.062500X0.325000X-0.062500X0.325000X0.062500X-0.325000X0.062500X0*%
%ADD32R,0.800000X1.200000*%
%ADD33R,1.500000X3.600000*%
%ADD34RoundRect,0.112500X-0.350000X-0.112500X0.350000X-0.112500X0.350000X0.112500X-0.350000X0.112500X0*%
%ADD35C,0.900000*%
%ADD36RoundRect,0.187500X-0.187500X-0.712500X0.187500X-0.712500X0.187500X0.712500X-0.187500X0.712500X0*%
%ADD37RoundRect,0.150000X-0.150000X-0.750000X0.150000X-0.750000X0.150000X0.750000X-0.150000X0.750000X0*%
%ADD38RoundRect,0.225000X-0.425000X-0.225000X0.425000X-0.225000X0.425000X0.225000X-0.425000X0.225000X0*%
%ADD39C,0.650000*%
%ADD40RoundRect,0.150000X-0.150000X-0.425000X0.150000X-0.425000X0.150000X0.425000X-0.150000X0.425000X0*%
%ADD41RoundRect,0.075000X-0.075000X-0.500000X0.075000X-0.500000X0.075000X0.500000X-0.075000X0.500000X0*%
%ADD42O,1.000000X1.800000*%
%ADD43O,1.000000X2.100000*%
%ADD44RoundRect,0.150000X-0.587500X-0.150000X0.587500X-0.150000X0.587500X0.150000X-0.587500X0.150000X0*%
%ADD45RoundRect,0.097500X0.352500X0.227500X-0.352500X0.227500X-0.352500X-0.227500X0.352500X-0.227500X0*%
%ADD46RoundRect,0.150000X0.350000X0.600000X-0.350000X0.600000X-0.350000X-0.600000X0.350000X-0.600000X0*%
%ADD47RoundRect,0.050000X-0.312500X-0.050000X0.312500X-0.050000X0.312500X0.050000X-0.312500X0.050000X0*%
%ADD48R,0.900000X1.500000*%
%ADD49RoundRect,0.250000X0.250000X1.500000X-0.250000X1.500000X-0.250000X-1.500000X0.250000X-1.500000X0*%
%ADD50RoundRect,0.250001X0.499999X1.449999X-0.499999X1.449999X-0.499999X-1.449999X0.499999X-1.449999X0*%
%ADD51RoundRect,0.050000X0.232500X-0.050000X0.232500X0.050000X-0.232500X0.050000X-0.232500X-0.050000X0*%
%ADD52RoundRect,0.100000X0.182500X-0.100000X0.182500X0.100000X-0.182500X0.100000X-0.182500X-0.100000X0*%
G04 APERTURE END LIST*
D10*
%TO.C,C1*%
X41770000Y-10160000D03*
X43320000Y-10160000D03*
%TD*%
D11*
%TO.C,R19*%
X51560000Y-4445000D03*
X52580000Y-4445000D03*
%TD*%
D12*
%TO.C,TP4*%
X50800000Y-86360000D03*
%TD*%
D13*
%TO.C,C2*%
X27625000Y-71755000D03*
X29525000Y-71755000D03*
%TD*%
D12*
%TO.C,TP11*%
X27940000Y-132080000D03*
%TD*%
D11*
%TO.C,R18*%
X20445000Y-8890000D03*
X21465000Y-8890000D03*
%TD*%
%TO.C,R2*%
X33780000Y-10160000D03*
X34800000Y-10160000D03*
%TD*%
D14*
%TO.C,D2*%
X4700000Y-79375000D03*
X8000000Y-79375000D03*
%TD*%
D15*
%TO.C,L3*%
X59175000Y-66040000D03*
X61475000Y-66040000D03*
%TD*%
D12*
%TO.C,TP5*%
X53340000Y-86360000D03*
%TD*%
D13*
%TO.C,C8*%
X26355000Y-135255000D03*
X28255000Y-135255000D03*
%TD*%
D10*
%TO.C,C16*%
X13195000Y-65405000D03*
X14745000Y-65405000D03*
%TD*%
D11*
%TO.C,R4*%
X36320000Y-75565000D03*
X37340000Y-75565000D03*
%TD*%
D16*
%TO.C,C7*%
X47145000Y-136525000D03*
X48105000Y-136525000D03*
%TD*%
D11*
%TO.C,R3*%
X36320000Y-73025000D03*
X37340000Y-73025000D03*
%TD*%
D17*
%TO.C,U6*%
X64902500Y-66990000D03*
X64902500Y-66040000D03*
X64902500Y-65090000D03*
X67177500Y-65090000D03*
X67177500Y-66040000D03*
X67177500Y-66990000D03*
%TD*%
D16*
%TO.C,C9*%
X26825000Y-137795000D03*
X27785000Y-137795000D03*
%TD*%
D14*
%TO.C,D3*%
X11050000Y-79375000D03*
X14350000Y-79375000D03*
%TD*%
D10*
%TO.C,C18*%
X7480000Y-75565000D03*
X9030000Y-75565000D03*
%TD*%
D18*
%TO.C,U3*%
X32170000Y-89900000D03*
X32170000Y-89400000D03*
X32170000Y-88900000D03*
X32170000Y-88400000D03*
X32170000Y-87900000D03*
X33870000Y-87900000D03*
X33870000Y-88400000D03*
X33870000Y-88900000D03*
X33870000Y-89400000D03*
X33870000Y-89900000D03*
D19*
X33020000Y-88900000D03*
%TD*%
D11*
%TO.C,R22*%
X62990000Y-70485000D03*
X64010000Y-70485000D03*
%TD*%
D13*
%TO.C,C4*%
X32070000Y-92710000D03*
X33970000Y-92710000D03*
%TD*%
D20*
%TO.C,L1*%
X38735000Y-90085000D03*
X38735000Y-87715000D03*
%TD*%
D21*
%TO.C,U5*%
X31000000Y-136900000D03*
X31000000Y-136050000D03*
X31000000Y-135200000D03*
X31000000Y-134350000D03*
X31000000Y-133500000D03*
X31000000Y-132650000D03*
X31000000Y-131800000D03*
X31000000Y-130950000D03*
X31000000Y-130100000D03*
X31000000Y-129250000D03*
X31000000Y-128400000D03*
X31000000Y-127550000D03*
X31000000Y-126700000D03*
X31000000Y-125850000D03*
X31000000Y-125000000D03*
D22*
X32050000Y-123950000D03*
X32900000Y-123950000D03*
X33750000Y-123950000D03*
X34600000Y-123950000D03*
X35450000Y-123950000D03*
X36300000Y-123950000D03*
X37150000Y-123950000D03*
X38000000Y-123950000D03*
X38850000Y-123950000D03*
X39700000Y-123950000D03*
X40550000Y-123950000D03*
X41400000Y-123950000D03*
X42250000Y-123950000D03*
X43100000Y-123950000D03*
X43950000Y-123950000D03*
D21*
X45000000Y-125000000D03*
X45000000Y-125850000D03*
X45000000Y-126700000D03*
X45000000Y-127550000D03*
X45000000Y-128400000D03*
X45000000Y-129250000D03*
X45000000Y-130100000D03*
X45000000Y-130950000D03*
X45000000Y-131800000D03*
X45000000Y-132650000D03*
X45000000Y-133500000D03*
X45000000Y-134350000D03*
X45000000Y-135200000D03*
X45000000Y-136050000D03*
X45000000Y-136900000D03*
D22*
X43950000Y-137950000D03*
X43100000Y-137950000D03*
X42250000Y-137950000D03*
X41400000Y-137950000D03*
X40550000Y-137950000D03*
X39700000Y-137950000D03*
X38850000Y-137950000D03*
X38000000Y-137950000D03*
X37150000Y-137950000D03*
X36300000Y-137950000D03*
X35450000Y-137950000D03*
X34600000Y-137950000D03*
X33750000Y-137950000D03*
X32900000Y-137950000D03*
X32050000Y-137950000D03*
D23*
X36350000Y-129300000D03*
X36350000Y-130950000D03*
D24*
X36350000Y-132600000D03*
D23*
X38000000Y-129300000D03*
X38000000Y-130950000D03*
X38000000Y-132600000D03*
X39650000Y-129300000D03*
X39650000Y-130950000D03*
X39650000Y-132600000D03*
D25*
X31000000Y-137950000D03*
X31000000Y-123950000D03*
X45000000Y-123950000D03*
X45000000Y-137950000D03*
%TD*%
D11*
%TO.C,R16*%
X64260000Y-108585000D03*
X65280000Y-108585000D03*
%TD*%
%TO.C,R20*%
X48385000Y-4445000D03*
X49405000Y-4445000D03*
%TD*%
D10*
%TO.C,C21*%
X59550000Y-61595000D03*
X61100000Y-61595000D03*
%TD*%
%TO.C,C12*%
X11290000Y-60325000D03*
X12840000Y-60325000D03*
%TD*%
D13*
%TO.C,C20*%
X70170000Y-61595000D03*
X72070000Y-61595000D03*
%TD*%
D10*
%TO.C,C17*%
X19545000Y-73025000D03*
X21095000Y-73025000D03*
%TD*%
D11*
%TO.C,R7*%
X28065000Y-68580000D03*
X29085000Y-68580000D03*
%TD*%
D10*
%TO.C,C11*%
X6845000Y-60325000D03*
X8395000Y-60325000D03*
%TD*%
D16*
%TO.C,C22*%
X70640000Y-65405000D03*
X71600000Y-65405000D03*
%TD*%
D11*
%TO.C,R11*%
X10920000Y-87630000D03*
X11940000Y-87630000D03*
%TD*%
D14*
%TO.C,D6*%
X64390000Y-61595000D03*
X67690000Y-61595000D03*
%TD*%
D11*
%TO.C,R6*%
X39495000Y-70485000D03*
X40515000Y-70485000D03*
%TD*%
D26*
%TO.C,D4*%
X26980000Y-900000D03*
X23680000Y-900000D03*
%TD*%
D27*
%TO.C,J2*%
X6850000Y-24400000D03*
X6850000Y-24900000D03*
X6850000Y-25400000D03*
X6850000Y-25900000D03*
X6850000Y-26400000D03*
X6850000Y-26900000D03*
X6850000Y-27400000D03*
X6850000Y-27900000D03*
X6850000Y-28400000D03*
X6850000Y-28900000D03*
X6850000Y-29400000D03*
X6850000Y-29900000D03*
X6850000Y-30400000D03*
X6850000Y-30900000D03*
X6850000Y-31400000D03*
X6850000Y-31900000D03*
X6850000Y-32400000D03*
X6850000Y-32900000D03*
X6850000Y-33400000D03*
X6850000Y-33900000D03*
X6850000Y-34400000D03*
X6850000Y-34900000D03*
X6850000Y-35400000D03*
X6850000Y-35900000D03*
D28*
X7975000Y-22150000D03*
D29*
X7975000Y-38150000D03*
%TD*%
D11*
%TO.C,R5*%
X36320000Y-70485000D03*
X37340000Y-70485000D03*
%TD*%
%TO.C,R21*%
X70610000Y-67945000D03*
X71630000Y-67945000D03*
%TD*%
D10*
%TO.C,C13*%
X2400000Y-62865000D03*
X3950000Y-62865000D03*
%TD*%
D14*
%TO.C,D1*%
X18670000Y-69850000D03*
X21970000Y-69850000D03*
%TD*%
D11*
%TO.C,R14*%
X4570000Y-70485000D03*
X5590000Y-70485000D03*
%TD*%
D12*
%TO.C,TP6*%
X50800000Y-88900000D03*
%TD*%
D11*
%TO.C,R23*%
X66165000Y-70485000D03*
X67185000Y-70485000D03*
%TD*%
%TO.C,R17*%
X23620000Y-4445000D03*
X24640000Y-4445000D03*
%TD*%
D30*
%TO.C,LS1*%
X59170000Y-118110000D03*
X70370000Y-118110000D03*
%TD*%
D12*
%TO.C,TP7*%
X53340000Y-88900000D03*
%TD*%
D11*
%TO.C,R1*%
X30605000Y-10160000D03*
X31625000Y-10160000D03*
%TD*%
D10*
%TO.C,C14*%
X6845000Y-62865000D03*
X8395000Y-62865000D03*
%TD*%
D11*
%TO.C,R8*%
X28065000Y-95250000D03*
X29085000Y-95250000D03*
%TD*%
%TO.C,R12*%
X10920000Y-90170000D03*
X11940000Y-90170000D03*
%TD*%
D16*
%TO.C,C6*%
X3330000Y-89535000D03*
X4290000Y-89535000D03*
%TD*%
D31*
%TO.C,U4*%
X6632500Y-89650000D03*
X6632500Y-89150000D03*
X6632500Y-88650000D03*
X6632500Y-88150000D03*
X8607500Y-88150000D03*
X8607500Y-88650000D03*
X8607500Y-89150000D03*
X8607500Y-89650000D03*
D32*
X7620000Y-88900000D03*
%TD*%
D33*
%TO.C,L2*%
X12445000Y-71120000D03*
X15495000Y-71120000D03*
%TD*%
D34*
%TO.C,Q1*%
X8002500Y-71770000D03*
X8002500Y-70470000D03*
X9777500Y-71120000D03*
%TD*%
D11*
%TO.C,R10*%
X28065000Y-92710000D03*
X29085000Y-92710000D03*
%TD*%
D35*
%TO.C,SW40*%
X58525000Y-1800000D03*
X62775000Y-1800000D03*
D36*
X59425000Y-2700000D03*
X61875000Y-2700000D03*
D37*
X60650000Y-2700000D03*
D38*
X58800000Y-750000D03*
X62500000Y-750000D03*
%TD*%
D12*
%TO.C,TP10*%
X50800000Y-136525000D03*
%TD*%
D10*
%TO.C,C10*%
X2400000Y-60325000D03*
X3950000Y-60325000D03*
%TD*%
D39*
%TO.C,J1*%
X35110000Y-5080000D03*
X40890000Y-5080000D03*
D40*
X34800000Y-6155000D03*
X35600000Y-6155000D03*
D41*
X36750000Y-6155000D03*
X37750000Y-6155000D03*
X38250000Y-6155000D03*
X39250000Y-6155000D03*
D40*
X40400000Y-6155000D03*
X41200000Y-6155000D03*
X41200000Y-6155000D03*
X40400000Y-6155000D03*
D41*
X39750000Y-6155000D03*
X38750000Y-6155000D03*
X37250000Y-6155000D03*
X36250000Y-6155000D03*
D40*
X35600000Y-6155000D03*
X34800000Y-6155000D03*
D42*
X33680000Y-1400000D03*
D43*
X33680000Y-5580000D03*
D42*
X42320000Y-1400000D03*
D43*
X42320000Y-5580000D03*
%TD*%
D10*
%TO.C,C15*%
X11290000Y-62865000D03*
X12840000Y-62865000D03*
%TD*%
D12*
%TO.C,TP8*%
X48260000Y-130810000D03*
%TD*%
D11*
%TO.C,R15*%
X4570000Y-73025000D03*
X5590000Y-73025000D03*
%TD*%
D16*
%TO.C,C5*%
X36350000Y-92710000D03*
X37310000Y-92710000D03*
%TD*%
D10*
%TO.C,C19*%
X18275000Y-79375000D03*
X19825000Y-79375000D03*
%TD*%
D11*
%TO.C,R13*%
X47115000Y-133985000D03*
X48135000Y-133985000D03*
%TD*%
D44*
%TO.C,Q2*%
X24462500Y-9840000D03*
X24462500Y-7940000D03*
X26337500Y-8890000D03*
%TD*%
D45*
%TO.C,D5*%
X50570000Y-1865000D03*
D46*
X49070000Y-1050000D03*
X52070000Y-1050000D03*
%TD*%
D11*
%TO.C,R9*%
X28065000Y-90170000D03*
X29085000Y-90170000D03*
%TD*%
D47*
%TO.C,U2*%
X32007500Y-73190000D03*
X32007500Y-72790000D03*
X32007500Y-72390000D03*
X32007500Y-71990000D03*
X32007500Y-71590000D03*
X34032500Y-71590000D03*
X34032500Y-71990000D03*
X34032500Y-72390000D03*
X34032500Y-72790000D03*
X34032500Y-73190000D03*
D48*
X33020000Y-72390000D03*
%TD*%
D12*
%TO.C,TP9*%
X48260000Y-128270000D03*
%TD*%
D49*
%TO.C,BT1*%
X51800000Y-61920000D03*
X49800000Y-61920000D03*
D50*
X54150000Y-67670000D03*
X47450000Y-67670000D03*
%TD*%
D13*
%TO.C,C3*%
X27625000Y-74930000D03*
X29525000Y-74930000D03*
%TD*%
D35*
%TO.C,SW39*%
X69185000Y-1800000D03*
X73435000Y-1800000D03*
D36*
X70085000Y-2700000D03*
X72535000Y-2700000D03*
D37*
X71310000Y-2700000D03*
D38*
X69460000Y-750000D03*
X73160000Y-750000D03*
%TD*%
D51*
%TO.C,U1*%
X37682500Y-11160000D03*
X37682500Y-10660000D03*
D52*
X37682500Y-10160000D03*
D51*
X37682500Y-9660000D03*
X37682500Y-9160000D03*
X38517500Y-9160000D03*
X38517500Y-9660000D03*
D52*
X38517500Y-10160000D03*
D51*
X38517500Y-10660000D03*
X38517500Y-11160000D03*
%TD*%
M02*
