%TF.GenerationSoftware,KiCad,Pcbnew,10.0.3*%
%TF.CreationDate,2026-09-28T13:11:20+01:00*%
%TF.ProjectId,default,64656661-756c-4742-9e6b-696361645f70,rev?*%
%TF.SameCoordinates,Original*%
%TF.FileFunction,Copper,L1,Top*%
%TF.FilePolarity,Positive*%
%FSLAX46Y46*%
G04 Gerber Fmt 4.6, Leading zero omitted, Abs format (unit mm)*
G04 Created by KiCad (PCBNEW 10.0.3) date 2026-09-28 13:11:20*
%MOMM*%
%LPD*%
G01*
G04 APERTURE LIST*
G04 Aperture macros list*
%AMFreePoly0*
4,1,18,4.250000,-1.749600,4.250000,-1.815000,2.222400,-1.815000,1.147400,-0.740000,-1.147400,-0.740000,-2.770000,-2.362600,-2.770000,-4.657400,-1.147400,-6.280000,1.147400,-6.280000,2.222400,-5.205000,4.250000,-5.205000,1.760400,-7.760000,-1.760400,-7.760000,-4.250000,-5.270400,-4.250000,-1.749600,-1.760400,0.740000,1.760400,0.740000,4.250000,-1.749600,4.250000,-1.749600,$1*%
%AMFreePoly1*
4,1,45,0.339457,1.706566,0.559305,1.647658,0.769582,1.560559,0.966692,1.446757,1.147262,1.308201,1.308201,1.147262,1.446757,0.966692,1.557431,0.775000,5.000200,0.775000,5.000200,-0.775000,1.557431,-0.775000,1.446757,-0.966692,1.308201,-1.147262,1.147262,-1.308201,0.966692,-1.446757,0.769582,-1.560559,0.559305,-1.647658,0.339457,-1.706566,0.113801,-1.736275,-0.113801,-1.736275,
-0.339457,-1.706566,-0.559305,-1.647658,-0.769582,-1.560559,-0.966692,-1.446757,-1.147262,-1.308201,-1.308201,-1.147262,-1.446757,-0.966692,-1.560559,-0.769582,-1.647658,-0.559305,-1.706566,-0.339457,-1.736275,-0.113801,-1.736275,0.113801,-1.706566,0.339457,-1.647658,0.559305,-1.560559,0.769582,-1.446757,0.966692,-1.308201,1.147262,-1.147262,1.308201,-0.966692,1.446757,-0.769582,1.560559,
-0.559305,1.647658,-0.339457,1.706566,-0.113801,1.736275,0.113801,1.736275,0.339457,1.706566,0.339457,1.706566,$1*%
%AMFreePoly2*
4,1,18,5.000000,-2.003900,5.000000,-2.200000,2.579800,-2.200000,1.304800,-0.925000,-1.304800,-0.925000,-3.150000,-2.770200,-3.150000,-5.379800,-1.304800,-7.225000,1.304800,-7.225000,2.579800,-5.950000,5.000000,-5.950000,2.071100,-9.075000,-2.071100,-9.075000,-5.000000,-6.146100,-5.000000,-2.003900,-2.071100,0.925000,2.071100,0.925000,5.000000,-2.003900,5.000000,-2.003900,$1*%
%AMFreePoly3*
4,1,47,0.397984,2.000802,0.655737,1.931737,0.902269,1.829620,1.133363,1.696198,1.345065,1.533753,1.533753,1.345065,1.696198,1.133363,1.829620,0.902269,1.882337,0.775000,5.812000,0.775000,5.812000,-0.775000,1.882337,-0.775000,1.829620,-0.902269,1.696198,-1.133363,1.533753,-1.345065,1.345065,-1.533753,1.133363,-1.696198,0.902269,-1.829620,0.655737,-1.931737,0.397984,-2.000802,
0.133422,-2.035632,-0.133422,-2.035632,-0.397984,-2.000802,-0.655737,-1.931737,-0.902269,-1.829620,-1.133363,-1.696198,-1.345065,-1.533753,-1.533753,-1.345065,-1.696198,-1.133363,-1.829620,-0.902269,-1.931737,-0.655737,-2.000802,-0.397984,-2.035632,-0.133422,-2.035632,0.133422,-2.000802,0.397984,-1.931737,0.655737,-1.829620,0.902269,-1.696198,1.133363,-1.533753,1.345065,-1.345065,1.533753,
-1.133363,1.696198,-0.902269,1.829620,-0.655737,1.931737,-0.397984,2.000802,-0.133422,2.035632,0.133422,2.035632,0.397984,2.000802,0.397984,2.000802,$1*%
G04 Aperture macros list end*
%TA.AperFunction,SMDPad,CuDef*%
%ADD10R,2.000000X2.000000*%
%TD*%
%TA.AperFunction,SMDPad,CuDef*%
%ADD11FreePoly0,0.000000*%
%TD*%
%TA.AperFunction,SMDPad,CuDef*%
%ADD12FreePoly1,0.000000*%
%TD*%
%TA.AperFunction,SMDPad,CuDef*%
%ADD13R,3.000000X3.000000*%
%TD*%
%TA.AperFunction,SMDPad,CuDef*%
%ADD14FreePoly2,0.000000*%
%TD*%
%TA.AperFunction,SMDPad,CuDef*%
%ADD15FreePoly3,0.000000*%
%TD*%
%TA.AperFunction,ComponentPad*%
%ADD16O,1.000000X1.800000*%
%TD*%
%TA.AperFunction,ComponentPad*%
%ADD17O,1.000000X2.100000*%
%TD*%
%TA.AperFunction,ViaPad*%
%ADD18C,0.800000*%
%TD*%
%TA.AperFunction,ViaPad*%
%ADD19C,0.600000*%
%TD*%
%TA.AperFunction,Conductor*%
%ADD20C,0.500000*%
%TD*%
%TA.AperFunction,Conductor*%
%ADD21C,0.200000*%
%TD*%
G04 APERTURE END LIST*
D10*
%TO.P,TP2,1*%
%TO.N,fb*%
X69500000Y-50500000D03*
%TD*%
D11*
%TO.P,SW1,1*%
%TO.N,col0*%
X6750000Y-58490000D03*
D12*
%TO.P,SW1,2*%
%TO.N,row0*%
X6750000Y-62000000D03*
%TD*%
D11*
%TO.P,SW38,1*%
%TO.N,col0*%
X19250000Y-82490000D03*
D12*
%TO.P,SW38,2*%
%TO.N,row2*%
X19250000Y-86000000D03*
%TD*%
D11*
%TO.P,SW5,1*%
%TO.N,col4*%
X56750000Y-58490000D03*
D12*
%TO.P,SW5,2*%
%TO.N,row0*%
X56750000Y-62000000D03*
%TD*%
D11*
%TO.P,SW3,1*%
%TO.N,col2*%
X31750000Y-58490000D03*
D12*
%TO.P,SW3,2*%
%TO.N,row0*%
X31750000Y-62000000D03*
%TD*%
D13*
%TO.P,TP3,1*%
%TO.N,gnd*%
X3810000Y-53340000D03*
%TD*%
D11*
%TO.P,SW17,1*%
%TO.N,col5*%
X69250000Y-82490000D03*
D12*
%TO.P,SW17,2*%
%TO.N,row2*%
X69250000Y-86000000D03*
%TD*%
D14*
%TO.P,SW31,1*%
%TO.N,col3*%
X53000000Y-117925000D03*
D15*
%TO.P,SW31,2*%
%TO.N,row5*%
X53000000Y-122000000D03*
%TD*%
D11*
%TO.P,SW6,1*%
%TO.N,col5*%
X69250000Y-58490000D03*
D12*
%TO.P,SW6,2*%
%TO.N,row0*%
X69250000Y-62000000D03*
%TD*%
D14*
%TO.P,SW25,1*%
%TO.N,col2*%
X38000000Y-105925000D03*
D15*
%TO.P,SW25,2*%
%TO.N,row4*%
X38000000Y-110000000D03*
%TD*%
D14*
%TO.P,SW35,1*%
%TO.N,col2*%
X38000000Y-129925000D03*
D15*
%TO.P,SW35,2*%
%TO.N,row6*%
X38000000Y-134000000D03*
%TD*%
D11*
%TO.P,SW23,1*%
%TO.N,col0*%
X6750000Y-106490000D03*
D12*
%TO.P,SW23,2*%
%TO.N,row4*%
X6750000Y-110000000D03*
%TD*%
D14*
%TO.P,SW26,1*%
%TO.N,col3*%
X53000000Y-105925000D03*
D15*
%TO.P,SW26,2*%
%TO.N,row4*%
X53000000Y-110000000D03*
%TD*%
D14*
%TO.P,SW27,1*%
%TO.N,col4*%
X68000000Y-105925000D03*
D15*
%TO.P,SW27,2*%
%TO.N,row4*%
X68000000Y-110000000D03*
%TD*%
D14*
%TO.P,SW30,1*%
%TO.N,col2*%
X38000000Y-117925000D03*
D15*
%TO.P,SW30,2*%
%TO.N,row5*%
X38000000Y-122000000D03*
%TD*%
D11*
%TO.P,SW11,1*%
%TO.N,col4*%
X56750000Y-70490000D03*
D12*
%TO.P,SW11,2*%
%TO.N,row1*%
X56750000Y-74000000D03*
%TD*%
D14*
%TO.P,SW34,1*%
%TO.N,col1*%
X23000000Y-129925000D03*
D15*
%TO.P,SW34,2*%
%TO.N,row6*%
X23000000Y-134000000D03*
%TD*%
D11*
%TO.P,SW2,1*%
%TO.N,col1*%
X19250000Y-58490000D03*
D12*
%TO.P,SW2,2*%
%TO.N,row0*%
X19250000Y-62000000D03*
%TD*%
D14*
%TO.P,SW32,1*%
%TO.N,col4*%
X68000000Y-117925000D03*
D15*
%TO.P,SW32,2*%
%TO.N,row5*%
X68000000Y-122000000D03*
%TD*%
D11*
%TO.P,SW15,1*%
%TO.N,col3*%
X44250000Y-82490000D03*
D12*
%TO.P,SW15,2*%
%TO.N,row2*%
X44250000Y-86000000D03*
%TD*%
D14*
%TO.P,SW36,1*%
%TO.N,col3*%
X53000000Y-129925000D03*
D15*
%TO.P,SW36,2*%
%TO.N,row6*%
X53000000Y-134000000D03*
%TD*%
D11*
%TO.P,SW12,1*%
%TO.N,col5*%
X69250000Y-70490000D03*
D12*
%TO.P,SW12,2*%
%TO.N,row1*%
X69250000Y-74000000D03*
%TD*%
D11*
%TO.P,SW10,1*%
%TO.N,col3*%
X44250000Y-70490000D03*
D12*
%TO.P,SW10,2*%
%TO.N,row1*%
X44250000Y-74000000D03*
%TD*%
D11*
%TO.P,SW13,1*%
%TO.N,col0*%
X6750000Y-82490000D03*
D12*
%TO.P,SW13,2*%
%TO.N,row2*%
X6750000Y-86000000D03*
%TD*%
D14*
%TO.P,SW29,1*%
%TO.N,col1*%
X23000000Y-117925000D03*
D15*
%TO.P,SW29,2*%
%TO.N,row5*%
X23000000Y-122000000D03*
%TD*%
D14*
%TO.P,SW22,1*%
%TO.N,col4*%
X68000000Y-93925000D03*
D15*
%TO.P,SW22,2*%
%TO.N,row3*%
X68000000Y-98000000D03*
%TD*%
D11*
%TO.P,SW9,1*%
%TO.N,col2*%
X31750000Y-70490000D03*
D12*
%TO.P,SW9,2*%
%TO.N,row1*%
X31750000Y-74000000D03*
%TD*%
D11*
%TO.P,SW33,1*%
%TO.N,col0*%
X6750000Y-130490000D03*
D12*
%TO.P,SW33,2*%
%TO.N,row6*%
X6750000Y-134000000D03*
%TD*%
D11*
%TO.P,SW16,1*%
%TO.N,col4*%
X56750000Y-82490000D03*
D12*
%TO.P,SW16,2*%
%TO.N,row2*%
X56750000Y-86000000D03*
%TD*%
D14*
%TO.P,SW37,1*%
%TO.N,col4*%
X68000000Y-129925000D03*
D15*
%TO.P,SW37,2*%
%TO.N,row6*%
X68000000Y-134000000D03*
%TD*%
D11*
%TO.P,SW7,1*%
%TO.N,col0*%
X6750000Y-70490000D03*
D12*
%TO.P,SW7,2*%
%TO.N,row1*%
X6750000Y-74000000D03*
%TD*%
D11*
%TO.P,SW4,1*%
%TO.N,col3*%
X44250000Y-58490000D03*
D12*
%TO.P,SW4,2*%
%TO.N,row0*%
X44250000Y-62000000D03*
%TD*%
D11*
%TO.P,SW14,1*%
%TO.N,col2*%
X31750000Y-82490000D03*
D12*
%TO.P,SW14,2*%
%TO.N,row2*%
X31750000Y-86000000D03*
%TD*%
D11*
%TO.P,SW28,1*%
%TO.N,col0*%
X6750000Y-118490000D03*
D12*
%TO.P,SW28,2*%
%TO.N,row5*%
X6750000Y-122000000D03*
%TD*%
D14*
%TO.P,SW21,1*%
%TO.N,col3*%
X53000000Y-93925000D03*
D15*
%TO.P,SW21,2*%
%TO.N,row3*%
X53000000Y-98000000D03*
%TD*%
D10*
%TO.P,TP1,1*%
%TO.N,vled*%
X9500000Y-50500000D03*
%TD*%
D11*
%TO.P,SW18,1*%
%TO.N,col0*%
X6750000Y-94490000D03*
D12*
%TO.P,SW18,2*%
%TO.N,row3*%
X6750000Y-98000000D03*
%TD*%
D11*
%TO.P,SW8,1*%
%TO.N,col1*%
X19250000Y-70490000D03*
D12*
%TO.P,SW8,2*%
%TO.N,row1*%
X19250000Y-74000000D03*
%TD*%
D14*
%TO.P,SW20,1*%
%TO.N,col2*%
X38000000Y-93925000D03*
D15*
%TO.P,SW20,2*%
%TO.N,row3*%
X38000000Y-98000000D03*
%TD*%
D14*
%TO.P,SW19,1*%
%TO.N,col1*%
X23000000Y-93925000D03*
D15*
%TO.P,SW19,2*%
%TO.N,row3*%
X23000000Y-98000000D03*
%TD*%
D14*
%TO.P,SW24,1*%
%TO.N,col1*%
X23000000Y-105925000D03*
D15*
%TO.P,SW24,2*%
%TO.N,row4*%
X23000000Y-110000000D03*
%TD*%
D16*
%TO.P,J1,SH*%
%TO.N,gnd*%
X33680000Y-1400000D03*
D17*
X33680000Y-5580000D03*
D16*
X42320000Y-1400000D03*
D17*
X42320000Y-5580000D03*
%TD*%
D18*
%TO.N,vbus*%
X35600000Y-7400000D03*
X40400000Y-7400000D03*
%TO.N,bat*%
X32500000Y-80500000D03*
X29900000Y-80500000D03*
%TO.N,v3v3*%
X12445000Y-73700000D03*
X13195000Y-66700000D03*
%TO.N,gnd*%
X3810000Y-55600000D03*
%TO.N,v3v3*%
X1774000Y-59836000D03*
X14670000Y-59491000D03*
X32190000Y-96153000D03*
X32248000Y-97265000D03*
X26756000Y-129524000D03*
X26971000Y-138304000D03*
X24492000Y-1014000D03*
X49402000Y-1962000D03*
X7590000Y-31612000D03*
X6110000Y-31688000D03*
X12480000Y-87630000D03*
X12480000Y-90170000D03*
X47248000Y-135120000D03*
X40403000Y-69957000D03*
X29625000Y-68580000D03*
X51770000Y-88900000D03*
X36653000Y-84338000D03*
X31720000Y-135200000D03*
%TO.N,gnd*%
X39000000Y-86500000D03*
X33000000Y-94000000D03*
X36000000Y-90500000D03*
X73000000Y-70500000D03*
X60500000Y-70500000D03*
X64000000Y-63000000D03*
X67000000Y-68500000D03*
X63000000Y-67000000D03*
X72000000Y-66500000D03*
X65000000Y-71000000D03*
X22500000Y-79500000D03*
X1500000Y-64000000D03*
X1500000Y-81000000D03*
X16000000Y-66000000D03*
X11500000Y-76500000D03*
X1500000Y-72500000D03*
X8500000Y-68500000D03*
X23000000Y-69000000D03*
D19*
%TO.N,usb_dm*%
X33750000Y-117450000D03*
X34450000Y-116450000D03*
X33600000Y-104750000D03*
X34050000Y-103500000D03*
X41700000Y-104550000D03*
X42100000Y-103250000D03*
X38650000Y-92200000D03*
X38450000Y-89050000D03*
X39400000Y-84250000D03*
X38900000Y-77750000D03*
X39200000Y-71300000D03*
X37650000Y-69200000D03*
%TO.N,usb_dp*%
X40550000Y-116650000D03*
X41900000Y-115200000D03*
X36650000Y-104400000D03*
X42100000Y-102400000D03*
X39450000Y-92400000D03*
X42950000Y-95050000D03*
X42200000Y-92200000D03*
X37100000Y-82200000D03*
X39450000Y-19750000D03*
X38300000Y-18600000D03*
%TO.N,epd_cs*%
X28400000Y-103000000D03*
X27200000Y-103000000D03*
X22550000Y-82450000D03*
X25300000Y-79700000D03*
X25300000Y-72500000D03*
X24000000Y-67200000D03*
X10400000Y-32250000D03*
X5950000Y-29900000D03*
%TO.N,epd_dc*%
X41750000Y-105550000D03*
X40800000Y-104600000D03*
X28400000Y-101050000D03*
X26400000Y-103050000D03*
X14400000Y-81300000D03*
X14400000Y-78250000D03*
X14200000Y-69300000D03*
X14200000Y-67700000D03*
X14000000Y-66200000D03*
X14050000Y-64550000D03*
X17000000Y-48500000D03*
X19850000Y-47700000D03*
X15800000Y-36750000D03*
X16000000Y-35550000D03*
%TO.N,epd_rst*%
X45100000Y-125050000D03*
X47850000Y-119250000D03*
X46650000Y-93850000D03*
X47300000Y-90600000D03*
X48400000Y-83250000D03*
X47200000Y-79650000D03*
X39600000Y-59200000D03*
X37050000Y-55900000D03*
%TO.N,epd_sck*%
X44050000Y-124900000D03*
X45150000Y-122300000D03*
X46000000Y-116050000D03*
X44350000Y-113450000D03*
X31800000Y-100250000D03*
X31650000Y-103800000D03*
X28400000Y-104450000D03*
X18700000Y-103300000D03*
X17300000Y-94650000D03*
X23600000Y-91500000D03*
X23900000Y-82050000D03*
X25900000Y-79100000D03*
X25300000Y-71700000D03*
X24750000Y-67550000D03*
X12800000Y-33750000D03*
X13650000Y-32900000D03*
%TO.N,epd_mosi*%
X48200000Y-92200000D03*
X48200000Y-90600000D03*
X49350000Y-82200000D03*
X49350000Y-79700000D03*
X39600000Y-56750000D03*
X37050000Y-56750000D03*
%TO.N,epd_busy*%
X45950000Y-92200000D03*
X46500000Y-90600000D03*
X48150000Y-81900000D03*
X48900000Y-78400000D03*
X39600000Y-54550000D03*
X36550000Y-54550000D03*
X7950000Y-25800000D03*
X5800000Y-25700000D03*
%TO.N,ilim_vset*%
X36600000Y-72600000D03*
X34500000Y-69100000D03*
%TO.N,iset*%
X39200000Y-73750000D03*
X35300000Y-69100000D03*
%TO.N,ctrl*%
X63900000Y-67700000D03*
X63900000Y-69300000D03*
%TO.N,cfg2*%
X28150000Y-89250000D03*
X28150000Y-91000000D03*
%TO.N,fb*%
X73500000Y-51450000D03*
X71950000Y-69500000D03*
X71100000Y-68650000D03*
%TO.N,vdd*%
X4350000Y-37000000D03*
X8100000Y-33100000D03*
%TO.N,vsl*%
X8450000Y-56300000D03*
X9950000Y-65650000D03*
%TO.N,vsh1*%
X9900000Y-37900000D03*
X9300000Y-33600000D03*
%TO.N,buzzer*%
X44100000Y-127150000D03*
X48850000Y-127150000D03*
X59650000Y-111850000D03*
X61450000Y-111850000D03*
%TO.N,vsh2*%
X7950000Y-27050000D03*
X5750000Y-29000000D03*
X3700000Y-57650000D03*
X1250000Y-60750000D03*
%TO.N,prevgh*%
X17100000Y-69300000D03*
X17100000Y-67700000D03*
%TO.N,prevgl*%
X10550000Y-69300000D03*
X10550000Y-67700000D03*
%TO.N,chg_stat2*%
X27600000Y-118150000D03*
X27600000Y-116550000D03*
X26000000Y-82150000D03*
X26750000Y-79700000D03*
X26600000Y-72050000D03*
X27600000Y-69200000D03*
%TO.N,chg_stat*%
X41400000Y-92200000D03*
X41400000Y-90600000D03*
X46950000Y-81850000D03*
X44400000Y-79700000D03*
X41200000Y-78050000D03*
X40300000Y-77150000D03*
X39200000Y-68150000D03*
X35900000Y-68150000D03*
%TO.N,vled*%
X11000000Y-50050000D03*
X17000000Y-47700000D03*
X19000000Y-47700000D03*
X37050000Y-57900000D03*
X40800000Y-57900000D03*
X50550000Y-57500000D03*
X52150000Y-57500000D03*
X62200000Y-58400000D03*
X63400000Y-58400000D03*
%TO.N,frontlight_pwm*%
X60100000Y-101150000D03*
X59250000Y-102000000D03*
%TO.N,led_green*%
X52100000Y-104150000D03*
X49750000Y-104150000D03*
X49750000Y-92200000D03*
X49750000Y-88200000D03*
X50150000Y-81300000D03*
X50150000Y-79700000D03*
%TO.N,led_red*%
X52850000Y-83050000D03*
X52500000Y-92200000D03*
X47550000Y-125650000D03*
X43250000Y-127150000D03*
%TO.N,ir_led*%
X36550000Y-53550000D03*
X34400000Y-56800000D03*
X23400000Y-79700000D03*
X23400000Y-81300000D03*
X18750000Y-94350000D03*
X17900000Y-95200000D03*
X26850000Y-105350000D03*
X27700000Y-106200000D03*
X35600000Y-115650000D03*
X37850000Y-115600000D03*
%TO.N,en*%
X46650000Y-136550000D03*
X46300000Y-135250000D03*
%TO.N,boot*%
X29550000Y-134200000D03*
X30900000Y-134250000D03*
X43600000Y-135550000D03*
X46500000Y-137350000D03*
X59300000Y-129700000D03*
X58450000Y-127650000D03*
X60100000Y-69300000D03*
X60100000Y-67700000D03*
%TO.N,row5*%
X32150000Y-124950000D03*
%TO.N,row6*%
X41000000Y-127500000D03*
%TO.N,row4*%
X32050000Y-123950000D03*
X33250000Y-114100000D03*
X28500000Y-112500000D03*
%TO.N,row3*%
X31750000Y-98600000D03*
X29150000Y-98200000D03*
X30100000Y-100050000D03*
X30450000Y-124850000D03*
%TO.N,row2*%
X24550000Y-88150000D03*
X25400000Y-89000000D03*
X30650000Y-125900000D03*
%TO.N,row1*%
X9600000Y-82000000D03*
X3900000Y-82000000D03*
X29050000Y-128150000D03*
%TO.N,row0*%
X27750000Y-78150000D03*
X27550000Y-79650000D03*
X29650000Y-127300000D03*
%TO.N,col2*%
X31400000Y-66850000D03*
X31200000Y-69050000D03*
X32750000Y-78850000D03*
X35500000Y-79900000D03*
X30000000Y-92250000D03*
X30300000Y-95400000D03*
X35450000Y-103400000D03*
X35150000Y-104600000D03*
X43600000Y-111700000D03*
X43200000Y-115500000D03*
X34500000Y-126650000D03*
X34350000Y-129550000D03*
X32400000Y-131900000D03*
%TO.N,col1*%
X29200000Y-132100000D03*
X25950000Y-129000000D03*
X25950000Y-126950000D03*
X17400000Y-120050000D03*
X17400000Y-111200000D03*
X19900000Y-105150000D03*
X20000000Y-102900000D03*
X20900000Y-92400000D03*
X15600000Y-82750000D03*
X14400000Y-82750000D03*
X12950000Y-81300000D03*
X12950000Y-79700000D03*
X12950000Y-78550000D03*
X13800000Y-77700000D03*
X13800000Y-75800000D03*
X21050000Y-67700000D03*
X21050000Y-66850000D03*
%TO.N,col3*%
X50800000Y-127600000D03*
X51750000Y-128400000D03*
X49800000Y-117250000D03*
X50500000Y-115400000D03*
X50450000Y-104600000D03*
X50050000Y-102950000D03*
X51100000Y-90600000D03*
X48500000Y-89500000D03*
X43200000Y-79700000D03*
X42050000Y-78650000D03*
X45800000Y-69150000D03*
X45800000Y-66850000D03*
X44100000Y-131500000D03*
%TO.N,col0*%
X7750000Y-66850000D03*
X7750000Y-67950000D03*
X6700000Y-78850000D03*
X6700000Y-79700000D03*
X7150000Y-90850000D03*
X7150000Y-93150000D03*
X5600000Y-102850000D03*
X5600000Y-105150000D03*
X7900000Y-114850000D03*
X7900000Y-117150000D03*
X8200000Y-126850000D03*
X8200000Y-129150000D03*
X11600000Y-84250000D03*
X14350000Y-84250000D03*
X11600000Y-132300000D03*
X28550000Y-136500000D03*
X29550000Y-135000000D03*
%TO.N,col5*%
X69150000Y-81150000D03*
X69150000Y-78850000D03*
X74000000Y-71950000D03*
X74100000Y-63700000D03*
X67000000Y-90650000D03*
X60850000Y-112450000D03*
X59650000Y-113950000D03*
X49450000Y-127800000D03*
X44100000Y-127950000D03*
%TO.N,col4*%
X56000000Y-66850000D03*
X54000000Y-69900000D03*
X53850000Y-78000000D03*
X53850000Y-82050000D03*
X59900000Y-89700000D03*
X62800000Y-95300000D03*
X66400000Y-103600000D03*
X65100000Y-105000000D03*
X62400000Y-124100000D03*
X64850000Y-129250000D03*
X58700000Y-129100000D03*
X57850000Y-128250000D03*
X47150000Y-132650000D03*
X44050000Y-132750000D03*
X32950000Y-131150000D03*
X33150000Y-129950000D03*
%TO.N,gnd*%
X26900000Y-73100000D03*
X34450000Y-10800000D03*
X29150000Y-135700000D03*
X38000000Y-75450000D03*
X56100000Y-129200000D03*
X37300000Y-73700000D03*
X66050000Y-65650000D03*
X34200000Y-81600000D03*
X30550000Y-90850000D03*
X37400000Y-83800000D03*
X45750000Y-134250000D03*
X44250000Y-135050000D03*
X42900000Y-131000000D03*
X45000000Y-123200000D03*
X61600000Y-60700000D03*
X22050000Y-78050000D03*
X7750000Y-27900000D03*
X5800000Y-32550000D03*
X7750000Y-39550000D03*
X37650000Y-71150000D03*
X6650000Y-69150000D03*
X58200000Y-117000000D03*
X53400000Y-90000000D03*
X31500000Y-10850000D03*
X29100000Y-94550000D03*
X29000000Y-93400000D03*
X37850000Y-92250000D03*
X23900000Y-8600000D03*
X29150000Y-90850000D03*
X35600000Y-77000000D03*
X32000000Y-69150000D03*
X34450000Y-78150000D03*
X49700000Y-59800000D03*
X26900000Y-73850000D03*
X39150000Y-10150000D03*
X28450000Y-137950000D03*
X31750000Y-137050000D03*
X31750000Y-136200000D03*
X45750000Y-138300000D03*
X33350000Y-137250000D03*
X32500000Y-137250000D03*
X30250000Y-138350000D03*
X42750000Y-137150000D03*
X32750000Y-136650000D03*
X43200000Y-136700000D03*
X32400000Y-135850000D03*
X32400000Y-134550000D03*
X30250000Y-137750000D03*
X30250000Y-137150000D03*
X45750000Y-137650000D03*
X13500000Y-60950000D03*
X8600000Y-57150000D03*
X12900000Y-63700000D03*
%TD*%
%TO.N,v3v3*%
D20*
X12445000Y-73700000D02*
X12445000Y-67450000D01*
X12445000Y-67450000D02*
X13195000Y-66700000D01*
%TO.N,gnd*%
X3810000Y-54500000D02*
X3810000Y-55600000D01*
%TO.N,vbus*%
X35600000Y-7400000D02*
X40400000Y-7400000D01*
%TO.N,bat*%
X32500000Y-80500000D02*
X29900000Y-80500000D01*
%TO.N,usb_dm*%
D21*
X33750000Y-117450000D02*
X33750000Y-117150000D01*
X33750000Y-117150000D02*
X34450000Y-116450000D01*
X33600000Y-104750000D02*
X33900000Y-104450000D01*
X33900000Y-104450000D02*
X33900000Y-104350000D01*
X33900000Y-104350000D02*
X33950000Y-104300000D01*
X33950000Y-104300000D02*
X33950000Y-103600000D01*
X33950000Y-103600000D02*
X34050000Y-103500000D01*
X41700000Y-104550000D02*
X41700000Y-103650000D01*
X41700000Y-103650000D02*
X42100000Y-103250000D01*
X38650000Y-92200000D02*
X38750000Y-92100000D01*
X38750000Y-92100000D02*
X38750000Y-90800000D01*
X38750000Y-90800000D02*
X38450000Y-90500000D01*
X38450000Y-90500000D02*
X38450000Y-89050000D01*
X39400000Y-84250000D02*
X39500000Y-84250000D01*
X39500000Y-84250000D02*
X40450000Y-83300000D01*
X40450000Y-83300000D02*
X40450000Y-82600000D01*
X40450000Y-82600000D02*
X40850000Y-82200000D01*
X40850000Y-82200000D02*
X40850000Y-79550000D01*
X40850000Y-79550000D02*
X39050000Y-77750000D01*
X39050000Y-77750000D02*
X38900000Y-77750000D01*
X39200000Y-71300000D02*
X39200000Y-70750000D01*
X39200000Y-70750000D02*
X37650000Y-69200000D01*
%TO.N,usb_dp*%
X40550000Y-116650000D02*
X40550000Y-116550000D01*
X40550000Y-116550000D02*
X41900000Y-115200000D01*
X36650000Y-104400000D02*
X37100000Y-104400000D01*
X37100000Y-104400000D02*
X37150000Y-104450000D01*
X37150000Y-104450000D02*
X40050000Y-104450000D01*
X40050000Y-104450000D02*
X42100000Y-102400000D01*
X39450000Y-92400000D02*
X39700000Y-92650000D01*
X39700000Y-92650000D02*
X40300000Y-92650000D01*
X40300000Y-92650000D02*
X42700000Y-95050000D01*
X42700000Y-95050000D02*
X42950000Y-95050000D01*
X42200000Y-92200000D02*
X42200000Y-90550000D01*
X42200000Y-90550000D02*
X38900000Y-87250000D01*
X38900000Y-87250000D02*
X38650000Y-87250000D01*
X38650000Y-87250000D02*
X38250000Y-86850000D01*
X38250000Y-86850000D02*
X38250000Y-85100000D01*
X38250000Y-85100000D02*
X38700000Y-84650000D01*
X38700000Y-84650000D02*
X38700000Y-84000000D01*
X38700000Y-84000000D02*
X38550000Y-83850000D01*
X38550000Y-83850000D02*
X38550000Y-83450000D01*
X38550000Y-83450000D02*
X38450000Y-83350000D01*
X38450000Y-83350000D02*
X38450000Y-83300000D01*
X38450000Y-83300000D02*
X38200000Y-83050000D01*
X38200000Y-83050000D02*
X38100000Y-83050000D01*
X38100000Y-83050000D02*
X38050000Y-83000000D01*
X38050000Y-83000000D02*
X37700000Y-83000000D01*
X37700000Y-83000000D02*
X37650000Y-83050000D01*
X37650000Y-83050000D02*
X37350000Y-83050000D01*
X37350000Y-83050000D02*
X37100000Y-82800000D01*
X37100000Y-82800000D02*
X37100000Y-82200000D01*
X39450000Y-19750000D02*
X38300000Y-18600000D01*
%TO.N,epd_cs*%
X28400000Y-103000000D02*
X27200000Y-103000000D01*
X22550000Y-82450000D02*
X23450000Y-82450000D01*
X23450000Y-82450000D02*
X23650000Y-82650000D01*
X23650000Y-82650000D02*
X24150000Y-82650000D01*
X24150000Y-82650000D02*
X24550000Y-82250000D01*
X24550000Y-82250000D02*
X24550000Y-81900000D01*
X24550000Y-81900000D02*
X25050000Y-81400000D01*
X25050000Y-81400000D02*
X25050000Y-79950000D01*
X25050000Y-79950000D02*
X25300000Y-79700000D01*
X25300000Y-72500000D02*
X25050000Y-72250000D01*
X25050000Y-72250000D02*
X25000000Y-72250000D01*
X25000000Y-72250000D02*
X24450000Y-71700000D01*
X24450000Y-71700000D02*
X24450000Y-71500000D01*
X24450000Y-71500000D02*
X24200000Y-71250000D01*
X24200000Y-71250000D02*
X24200000Y-70900000D01*
X24200000Y-70900000D02*
X24000000Y-70700000D01*
X24000000Y-70700000D02*
X24000000Y-67200000D01*
X10400000Y-32250000D02*
X9300000Y-32250000D01*
X9300000Y-32250000D02*
X6950000Y-29900000D01*
X6950000Y-29900000D02*
X5950000Y-29900000D01*
%TO.N,epd_dc*%
X41750000Y-105550000D02*
X40800000Y-104600000D01*
X28400000Y-101050000D02*
X28300000Y-101050000D01*
X28300000Y-101050000D02*
X26400000Y-102950000D01*
X26400000Y-102950000D02*
X26400000Y-103050000D01*
X14400000Y-81300000D02*
X14400000Y-78250000D01*
X14200000Y-69300000D02*
X14200000Y-67700000D01*
X14000000Y-66200000D02*
X14000000Y-64600000D01*
X14000000Y-64600000D02*
X14050000Y-64550000D01*
X17000000Y-48500000D02*
X19050000Y-48500000D01*
X19050000Y-48500000D02*
X19850000Y-47700000D01*
X15800000Y-36750000D02*
X15800000Y-35750000D01*
X15800000Y-35750000D02*
X16000000Y-35550000D01*
%TO.N,epd_rst*%
X45100000Y-125050000D02*
X45600000Y-125050000D01*
X45600000Y-125050000D02*
X47650000Y-123000000D01*
X47650000Y-123000000D02*
X47650000Y-119450000D01*
X47650000Y-119450000D02*
X47850000Y-119250000D01*
X46650000Y-93850000D02*
X46650000Y-91300000D01*
X46650000Y-91300000D02*
X47300000Y-90650000D01*
X47300000Y-90650000D02*
X47300000Y-90600000D01*
X48400000Y-83250000D02*
X48400000Y-83000000D01*
X48400000Y-83000000D02*
X47550000Y-82150000D01*
X47550000Y-82150000D02*
X47550000Y-81300000D01*
X47550000Y-81300000D02*
X47600000Y-81250000D01*
X47600000Y-81250000D02*
X47600000Y-81050000D01*
X47600000Y-81050000D02*
X47450000Y-80900000D01*
X47450000Y-80900000D02*
X47450000Y-80850000D01*
X47450000Y-80850000D02*
X47400000Y-80800000D01*
X47400000Y-80800000D02*
X47400000Y-79850000D01*
X47400000Y-79850000D02*
X47200000Y-79650000D01*
X39600000Y-59200000D02*
X37500000Y-59200000D01*
X37500000Y-59200000D02*
X36450000Y-58150000D01*
X36450000Y-58150000D02*
X36450000Y-56500000D01*
X36450000Y-56500000D02*
X37050000Y-55900000D01*
%TO.N,epd_sck*%
X44050000Y-124900000D02*
X44050000Y-123050000D01*
X44050000Y-123050000D02*
X44100000Y-123000000D01*
X44100000Y-123000000D02*
X44100000Y-122950000D01*
X44100000Y-122950000D02*
X44150000Y-122900000D01*
X44150000Y-122900000D02*
X44150000Y-122800000D01*
X44150000Y-122800000D02*
X44650000Y-122300000D01*
X44650000Y-122300000D02*
X45150000Y-122300000D01*
X46000000Y-116050000D02*
X46000000Y-115100000D01*
X46000000Y-115100000D02*
X44350000Y-113450000D01*
X31800000Y-100250000D02*
X31800000Y-101000000D01*
X31800000Y-101000000D02*
X32150000Y-101350000D01*
X32150000Y-101350000D02*
X32150000Y-101950000D01*
X32150000Y-101950000D02*
X31650000Y-102450000D01*
X31650000Y-102450000D02*
X31650000Y-103800000D01*
X28400000Y-104450000D02*
X20200000Y-104450000D01*
X20200000Y-104450000D02*
X19650000Y-103900000D01*
X19650000Y-103900000D02*
X19550000Y-103900000D01*
X19550000Y-103900000D02*
X18950000Y-103300000D01*
X18950000Y-103300000D02*
X18700000Y-103300000D01*
X17300000Y-94650000D02*
X17600000Y-94650000D01*
X17600000Y-94650000D02*
X20350000Y-91900000D01*
X20350000Y-91900000D02*
X20550000Y-91900000D01*
X20550000Y-91900000D02*
X20650000Y-91800000D01*
X20650000Y-91800000D02*
X21100000Y-91800000D01*
X21100000Y-91800000D02*
X21150000Y-91850000D01*
X21150000Y-91850000D02*
X21900000Y-91850000D01*
X21900000Y-91850000D02*
X22250000Y-91500000D01*
X22250000Y-91500000D02*
X23600000Y-91500000D01*
X23900000Y-82050000D02*
X24050000Y-81900000D01*
X24050000Y-81900000D02*
X24050000Y-80100000D01*
X24050000Y-80100000D02*
X25050000Y-79100000D01*
X25050000Y-79100000D02*
X25900000Y-79100000D01*
X25300000Y-71700000D02*
X25050000Y-71450000D01*
X25050000Y-71450000D02*
X25000000Y-71450000D01*
X25000000Y-71450000D02*
X24600000Y-71050000D01*
X24600000Y-71050000D02*
X24600000Y-67700000D01*
X24600000Y-67700000D02*
X24750000Y-67550000D01*
X12800000Y-33750000D02*
X13650000Y-32900000D01*
%TO.N,epd_mosi*%
X48200000Y-92200000D02*
X48200000Y-90600000D01*
X49350000Y-82200000D02*
X49350000Y-79700000D01*
X39600000Y-56750000D02*
X37050000Y-56750000D01*
%TO.N,epd_busy*%
X45950000Y-92200000D02*
X45950000Y-91150000D01*
X45950000Y-91150000D02*
X46500000Y-90600000D01*
X48150000Y-81900000D02*
X48150000Y-81400000D01*
X48150000Y-81400000D02*
X48100000Y-81350000D01*
X48100000Y-81350000D02*
X48100000Y-80450000D01*
X48100000Y-80450000D02*
X47800000Y-80150000D01*
X47800000Y-80150000D02*
X47800000Y-79500000D01*
X47800000Y-79500000D02*
X48900000Y-78400000D01*
X39600000Y-54550000D02*
X36550000Y-54550000D01*
X7950000Y-25800000D02*
X5900000Y-25800000D01*
X5900000Y-25800000D02*
X5800000Y-25700000D01*
%TO.N,ilim_vset*%
X36600000Y-72600000D02*
X36600000Y-71250000D01*
X36600000Y-71250000D02*
X34500000Y-69150000D01*
X34500000Y-69150000D02*
X34500000Y-69100000D01*
%TO.N,iset*%
X39200000Y-73750000D02*
X39200000Y-72150000D01*
X39200000Y-72150000D02*
X38250000Y-71200000D01*
X38250000Y-71200000D02*
X38250000Y-70900000D01*
X38250000Y-70900000D02*
X37700000Y-70350000D01*
X37700000Y-70350000D02*
X37050000Y-70350000D01*
X37050000Y-70350000D02*
X35800000Y-69100000D01*
X35800000Y-69100000D02*
X35300000Y-69100000D01*
%TO.N,ctrl*%
X63900000Y-67700000D02*
X63900000Y-69300000D01*
%TO.N,cfg2*%
X28150000Y-89250000D02*
X28150000Y-91000000D01*
%TO.N,fb*%
X70450000Y-51450000D02*
X73500000Y-51450000D01*
X71950000Y-69500000D02*
X71100000Y-68650000D01*
%TO.N,vdd*%
X4350000Y-37000000D02*
X4350000Y-36850000D01*
X4350000Y-36850000D02*
X8100000Y-33100000D01*
%TO.N,vsl*%
X8450000Y-56300000D02*
X9050000Y-56300000D01*
X9050000Y-56300000D02*
X11350000Y-58600000D01*
X11350000Y-58600000D02*
X11350000Y-60450000D01*
X11350000Y-60450000D02*
X11150000Y-60650000D01*
X11150000Y-60650000D02*
X8350000Y-60650000D01*
X8350000Y-60650000D02*
X7650000Y-59950000D01*
X7650000Y-59950000D02*
X5850000Y-59950000D01*
X5850000Y-59950000D02*
X4700000Y-61100000D01*
X4700000Y-61100000D02*
X4700000Y-62900000D01*
X4700000Y-62900000D02*
X5850000Y-64050000D01*
X5850000Y-64050000D02*
X8100000Y-64050000D01*
X8100000Y-64050000D02*
X8800000Y-63350000D01*
X8800000Y-63350000D02*
X11150000Y-63350000D01*
X11150000Y-63350000D02*
X11350000Y-63550000D01*
X11350000Y-63550000D02*
X11350000Y-64250000D01*
X11350000Y-64250000D02*
X9950000Y-65650000D01*
%TO.N,vsh1*%
X9900000Y-37900000D02*
X9900000Y-34200000D01*
X9900000Y-34200000D02*
X9300000Y-33600000D01*
%TO.N,buzzer*%
X44100000Y-127150000D02*
X48850000Y-127150000D01*
X59650000Y-111850000D02*
X61450000Y-111850000D01*
%TO.N,vsh2*%
X7950000Y-27050000D02*
X7700000Y-27050000D01*
X7700000Y-27050000D02*
X5750000Y-29000000D01*
X3700000Y-57650000D02*
X2900000Y-57650000D01*
X2900000Y-57650000D02*
X1050000Y-59500000D01*
X1050000Y-59500000D02*
X1050000Y-60550000D01*
X1050000Y-60550000D02*
X1250000Y-60750000D01*
%TO.N,prevgh*%
X17100000Y-69300000D02*
X17100000Y-67700000D01*
%TO.N,prevgl*%
X10550000Y-69300000D02*
X10550000Y-67700000D01*
%TO.N,chg_stat2*%
X27600000Y-118150000D02*
X27600000Y-116550000D01*
X26000000Y-82150000D02*
X26050000Y-82100000D01*
X26050000Y-82100000D02*
X26050000Y-81900000D01*
X26050000Y-81900000D02*
X26750000Y-81200000D01*
X26750000Y-81200000D02*
X26750000Y-79700000D01*
X26600000Y-72050000D02*
X26700000Y-72050000D01*
X26700000Y-72050000D02*
X27600000Y-71150000D01*
X27600000Y-71150000D02*
X27600000Y-69200000D01*
%TO.N,chg_stat*%
X41400000Y-92200000D02*
X41400000Y-90600000D01*
X46950000Y-81850000D02*
X46600000Y-81850000D01*
X46600000Y-81850000D02*
X46150000Y-81400000D01*
X46150000Y-81400000D02*
X44650000Y-81400000D01*
X44650000Y-81400000D02*
X44400000Y-81150000D01*
X44400000Y-81150000D02*
X44400000Y-79700000D01*
X41200000Y-78050000D02*
X40300000Y-77150000D01*
X39200000Y-68150000D02*
X35900000Y-68150000D01*
%TO.N,vled*%
X10450000Y-50050000D02*
X11000000Y-50050000D01*
X17000000Y-47700000D02*
X19000000Y-47700000D01*
X37050000Y-57900000D02*
X40800000Y-57900000D01*
X50550000Y-57500000D02*
X52150000Y-57500000D01*
X62200000Y-58400000D02*
X63400000Y-58400000D01*
%TO.N,frontlight_pwm*%
X60100000Y-101150000D02*
X59250000Y-102000000D01*
%TO.N,led_green*%
X52100000Y-104150000D02*
X50850000Y-104150000D01*
X50850000Y-104150000D02*
X50700000Y-104000000D01*
X50700000Y-104000000D02*
X49900000Y-104000000D01*
X49900000Y-104000000D02*
X49750000Y-104150000D01*
X49750000Y-92200000D02*
X49750000Y-88200000D01*
X50150000Y-81300000D02*
X50150000Y-79700000D01*
%TO.N,led_red*%
X52850000Y-83050000D02*
X52850000Y-83400000D01*
X52850000Y-83400000D02*
X52150000Y-84100000D01*
X52150000Y-84100000D02*
X52150000Y-88200000D01*
X52150000Y-88200000D02*
X52500000Y-88550000D01*
X52500000Y-88550000D02*
X52500000Y-92200000D01*
X47550000Y-125650000D02*
X44750000Y-125650000D01*
X44750000Y-125650000D02*
X43250000Y-127150000D01*
%TO.N,ir_led*%
X36550000Y-53550000D02*
X36550000Y-53700000D01*
X36550000Y-53700000D02*
X34400000Y-55850000D01*
X34400000Y-55850000D02*
X34400000Y-56800000D01*
X23400000Y-79700000D02*
X23400000Y-81300000D01*
X18750000Y-94350000D02*
X17900000Y-95200000D01*
X26850000Y-105350000D02*
X27700000Y-106200000D01*
X35600000Y-115650000D02*
X37800000Y-115650000D01*
X37800000Y-115650000D02*
X37850000Y-115600000D01*
%TO.N,en*%
X46650000Y-136550000D02*
X46650000Y-135600000D01*
X46650000Y-135600000D02*
X46300000Y-135250000D01*
%TO.N,boot*%
X29550000Y-134200000D02*
X30850000Y-134200000D01*
X30850000Y-134200000D02*
X30900000Y-134250000D01*
X43600000Y-135550000D02*
X43900000Y-135550000D01*
X43900000Y-135550000D02*
X43950000Y-135600000D01*
X43950000Y-135600000D02*
X44000000Y-135600000D01*
X44000000Y-135600000D02*
X44050000Y-135650000D01*
X44050000Y-135650000D02*
X44800000Y-135650000D01*
X44800000Y-135650000D02*
X46500000Y-137350000D01*
X59300000Y-129700000D02*
X59300000Y-128500000D01*
X59300000Y-128500000D02*
X58450000Y-127650000D01*
X60100000Y-69300000D02*
X60100000Y-67700000D01*
%TO.N,row5*%
X58350000Y-121250000D02*
X58350000Y-119750000D01*
X58350000Y-119750000D02*
X55250000Y-116650000D01*
X55250000Y-116650000D02*
X47650000Y-116650000D01*
X47650000Y-116650000D02*
X43800000Y-120500000D01*
X43800000Y-120500000D02*
X43800000Y-121250000D01*
X58800000Y-122750000D02*
X60200000Y-122750000D01*
X60200000Y-122750000D02*
X64800000Y-127350000D01*
X64800000Y-127350000D02*
X70250000Y-127350000D01*
X70250000Y-127350000D02*
X73350000Y-124250000D01*
X73350000Y-124250000D02*
X73350000Y-122750000D01*
X43350000Y-122750000D02*
X43350000Y-124250000D01*
X43350000Y-124250000D02*
X40250000Y-127350000D01*
X40250000Y-127350000D02*
X36200000Y-127350000D01*
X36200000Y-127350000D02*
X35500000Y-128050000D01*
X35500000Y-128050000D02*
X34950000Y-128050000D01*
X34950000Y-128050000D02*
X34400000Y-127500000D01*
X34400000Y-127500000D02*
X34400000Y-127400000D01*
X34400000Y-127400000D02*
X33800000Y-126800000D01*
X33800000Y-126800000D02*
X33800000Y-125800000D01*
X33800000Y-125800000D02*
X33500000Y-125500000D01*
X33500000Y-125500000D02*
X32800000Y-125500000D01*
X32800000Y-125500000D02*
X32750000Y-125550000D01*
X32750000Y-125550000D02*
X32150000Y-124950000D01*
X32650000Y-125450000D02*
X30900000Y-127200000D01*
X30900000Y-127200000D02*
X30400000Y-127200000D01*
X30400000Y-127200000D02*
X29800000Y-126600000D01*
X29800000Y-126600000D02*
X28950000Y-126600000D01*
X28950000Y-126600000D02*
X28150000Y-125800000D01*
X28150000Y-125800000D02*
X28150000Y-124250000D01*
X28150000Y-124250000D02*
X28300000Y-124100000D01*
X28300000Y-124100000D02*
X28300000Y-124000000D01*
X28300000Y-124000000D02*
X28350000Y-123950000D01*
X28350000Y-123950000D02*
X28350000Y-122750000D01*
X28350000Y-121250000D02*
X28350000Y-119750000D01*
X28350000Y-119750000D02*
X25250000Y-116650000D01*
X25250000Y-116650000D02*
X20750000Y-116650000D01*
X20750000Y-116650000D02*
X18500000Y-118900000D01*
X18500000Y-118900000D02*
X13150000Y-118900000D01*
X13150000Y-118900000D02*
X11750000Y-120300000D01*
X11750000Y-120300000D02*
X11750000Y-121250000D01*
%TO.N,row6*%
X43200000Y-133250000D02*
X43200000Y-132450000D01*
X43200000Y-132450000D02*
X43350000Y-132300000D01*
X43350000Y-132300000D02*
X43350000Y-131400000D01*
X43350000Y-131400000D02*
X46350000Y-128400000D01*
X46350000Y-128400000D02*
X50900000Y-128400000D01*
X50900000Y-128400000D02*
X51500000Y-127800000D01*
X51500000Y-127800000D02*
X54400000Y-127800000D01*
X54400000Y-127800000D02*
X54800000Y-128200000D01*
X54800000Y-128200000D02*
X55950000Y-128200000D01*
X55950000Y-128200000D02*
X58350000Y-130600000D01*
X58350000Y-130600000D02*
X58350000Y-133250000D01*
X58350000Y-130600000D02*
X62650000Y-130600000D01*
X62650000Y-130600000D02*
X64600000Y-128650000D01*
X64600000Y-128650000D02*
X70250000Y-128650000D01*
X70250000Y-128650000D02*
X73350000Y-131750000D01*
X73350000Y-131750000D02*
X73350000Y-133250000D01*
X43750000Y-131000000D02*
X43150000Y-130400000D01*
X43150000Y-130400000D02*
X42000000Y-130400000D01*
X42000000Y-130400000D02*
X39750000Y-128150000D01*
X39750000Y-128150000D02*
X36000000Y-128150000D01*
X36000000Y-128150000D02*
X35450000Y-128700000D01*
X35450000Y-128700000D02*
X34150000Y-128700000D01*
X34150000Y-128700000D02*
X33650000Y-129200000D01*
X33650000Y-129200000D02*
X33200000Y-129200000D01*
X33200000Y-129200000D02*
X33050000Y-129350000D01*
X33050000Y-129350000D02*
X32800000Y-129350000D01*
X32800000Y-129350000D02*
X28800000Y-133350000D01*
X30250000Y-131900000D02*
X26750000Y-128400000D01*
X26750000Y-128400000D02*
X22250000Y-128400000D01*
X22250000Y-128400000D02*
X22000000Y-128650000D01*
X22000000Y-128650000D02*
X20700000Y-128650000D01*
X20700000Y-128650000D02*
X16100000Y-133250000D01*
X16100000Y-133250000D02*
X11750000Y-133250000D01*
X40050000Y-128450000D02*
X41000000Y-127500000D01*
%TO.N,row4*%
X43800000Y-110750000D02*
X43800000Y-110850000D01*
X43800000Y-110850000D02*
X48950000Y-116000000D01*
X48950000Y-116000000D02*
X54600000Y-116000000D01*
X54600000Y-116000000D02*
X58350000Y-112250000D01*
X58350000Y-112250000D02*
X58350000Y-110750000D01*
X58800000Y-109250000D02*
X60000000Y-109250000D01*
X60000000Y-109250000D02*
X65200000Y-104050000D01*
X65200000Y-104050000D02*
X66000000Y-104050000D01*
X66000000Y-104050000D02*
X66600000Y-104650000D01*
X66600000Y-104650000D02*
X70250000Y-104650000D01*
X70250000Y-104650000D02*
X73350000Y-107750000D01*
X73350000Y-107750000D02*
X73350000Y-109250000D01*
X44550000Y-111600000D02*
X40100000Y-116050000D01*
X40100000Y-116050000D02*
X39400000Y-116050000D01*
X39400000Y-116050000D02*
X38900000Y-116550000D01*
X38900000Y-116550000D02*
X38000000Y-116550000D01*
X38000000Y-116550000D02*
X37600000Y-116150000D01*
X37600000Y-116150000D02*
X36250000Y-116150000D01*
X36250000Y-116150000D02*
X32650000Y-119750000D01*
X32650000Y-119750000D02*
X32650000Y-123350000D01*
X32650000Y-123350000D02*
X32050000Y-123950000D01*
X35350000Y-117050000D02*
X35050000Y-116750000D01*
X35050000Y-116750000D02*
X35050000Y-116200000D01*
X35050000Y-116200000D02*
X34500000Y-115650000D01*
X34500000Y-115650000D02*
X34500000Y-115100000D01*
X34500000Y-115100000D02*
X33500000Y-114100000D01*
X33500000Y-114100000D02*
X33250000Y-114100000D01*
X28500000Y-112500000D02*
X28500000Y-110750000D01*
X28500000Y-112400000D02*
X28100000Y-112400000D01*
X28100000Y-112400000D02*
X26200000Y-114300000D01*
X26200000Y-114300000D02*
X26200000Y-114400000D01*
X26200000Y-114400000D02*
X25250000Y-115350000D01*
X25250000Y-115350000D02*
X24400000Y-115350000D01*
X24400000Y-115350000D02*
X23700000Y-116050000D01*
X23700000Y-116050000D02*
X21350000Y-116050000D01*
X21350000Y-116050000D02*
X20800000Y-115500000D01*
X20800000Y-115500000D02*
X20800000Y-115400000D01*
X20800000Y-115400000D02*
X17150000Y-111750000D01*
X17150000Y-111750000D02*
X16450000Y-111750000D01*
X16450000Y-111750000D02*
X15950000Y-111250000D01*
X15950000Y-111250000D02*
X12250000Y-111250000D01*
X12250000Y-111250000D02*
X11750000Y-110750000D01*
%TO.N,row3*%
X73350000Y-97250000D02*
X73350000Y-95750000D01*
X73350000Y-95750000D02*
X70250000Y-92650000D01*
X70250000Y-92650000D02*
X62150000Y-92650000D01*
X62150000Y-92650000D02*
X58800000Y-96000000D01*
X58800000Y-96000000D02*
X58800000Y-97250000D01*
X58350000Y-98750000D02*
X58350000Y-100650000D01*
X58350000Y-100650000D02*
X54950000Y-104050000D01*
X54950000Y-104050000D02*
X53750000Y-104050000D01*
X53750000Y-104050000D02*
X53250000Y-103550000D01*
X53250000Y-103550000D02*
X47400000Y-103550000D01*
X47400000Y-103550000D02*
X43650000Y-99800000D01*
X43650000Y-99800000D02*
X43650000Y-98750000D01*
X43750000Y-99900000D02*
X39600000Y-104050000D01*
X39600000Y-104050000D02*
X37400000Y-104050000D01*
X37400000Y-104050000D02*
X36900000Y-103550000D01*
X36900000Y-103550000D02*
X36150000Y-103550000D01*
X36150000Y-103550000D02*
X35700000Y-104000000D01*
X35700000Y-104000000D02*
X35200000Y-104000000D01*
X35200000Y-104000000D02*
X34850000Y-103650000D01*
X34850000Y-103650000D02*
X34850000Y-102450000D01*
X34850000Y-102450000D02*
X31850000Y-99450000D01*
X31850000Y-99450000D02*
X31850000Y-98700000D01*
X31850000Y-98700000D02*
X31750000Y-98600000D01*
X29150000Y-98200000D02*
X28800000Y-98200000D01*
X28350000Y-98750000D02*
X28350000Y-100250000D01*
X28350000Y-100250000D02*
X24550000Y-104050000D01*
X24550000Y-104050000D02*
X20400000Y-104050000D01*
X20400000Y-104050000D02*
X19850000Y-103500000D01*
X19850000Y-103500000D02*
X19750000Y-103500000D01*
X19750000Y-103500000D02*
X18350000Y-102100000D01*
X18350000Y-102100000D02*
X18350000Y-101800000D01*
X18350000Y-101800000D02*
X15300000Y-98750000D01*
X15300000Y-98750000D02*
X11750000Y-98750000D01*
X30100000Y-100050000D02*
X30100000Y-100450000D01*
X30100000Y-100450000D02*
X30200000Y-100550000D01*
X30200000Y-100550000D02*
X30200000Y-101150000D01*
X30200000Y-101150000D02*
X30650000Y-101600000D01*
X30650000Y-101600000D02*
X30650000Y-102300000D01*
X30650000Y-102300000D02*
X30950000Y-102600000D01*
X30950000Y-102600000D02*
X30950000Y-104800000D01*
X30950000Y-104800000D02*
X30600000Y-105150000D01*
X30600000Y-105150000D02*
X30600000Y-106650000D01*
X30600000Y-106650000D02*
X31300000Y-107350000D01*
X31300000Y-107350000D02*
X31300000Y-109300000D01*
X31300000Y-109300000D02*
X30150000Y-110450000D01*
X30150000Y-110450000D02*
X30150000Y-111100000D01*
X30150000Y-111100000D02*
X30650000Y-111600000D01*
X30650000Y-111600000D02*
X30650000Y-114150000D01*
X30650000Y-114150000D02*
X31350000Y-114850000D01*
X31350000Y-114850000D02*
X31350000Y-115400000D01*
X31350000Y-115400000D02*
X30550000Y-116200000D01*
X30550000Y-116200000D02*
X30550000Y-118750000D01*
X30550000Y-118750000D02*
X30150000Y-119150000D01*
X30150000Y-119150000D02*
X30150000Y-119850000D01*
X30150000Y-119850000D02*
X30400000Y-120100000D01*
X30400000Y-120100000D02*
X30400000Y-121300000D01*
X30400000Y-121300000D02*
X30850000Y-121750000D01*
X30850000Y-121750000D02*
X30850000Y-123900000D01*
X30850000Y-123900000D02*
X30400000Y-124350000D01*
X30400000Y-124350000D02*
X30400000Y-124800000D01*
X30400000Y-124800000D02*
X30450000Y-124850000D01*
%TO.N,row2*%
X23850000Y-86750000D02*
X23850000Y-87900000D01*
X23850000Y-87900000D02*
X21150000Y-90600000D01*
X21150000Y-90600000D02*
X16550000Y-90600000D01*
X16550000Y-90600000D02*
X12700000Y-86750000D01*
X12700000Y-86750000D02*
X11750000Y-86750000D01*
X23850000Y-87900000D02*
X24300000Y-87900000D01*
X24300000Y-87900000D02*
X24550000Y-88150000D01*
X25400000Y-89000000D02*
X26800000Y-90400000D01*
X26800000Y-90400000D02*
X26800000Y-91550000D01*
X26800000Y-91550000D02*
X28200000Y-92950000D01*
X28200000Y-92950000D02*
X28600000Y-92950000D01*
X28600000Y-92950000D02*
X28750000Y-92800000D01*
X28750000Y-92800000D02*
X29750000Y-92800000D01*
X29750000Y-92800000D02*
X29800000Y-92850000D01*
X29800000Y-92850000D02*
X30200000Y-92850000D01*
X30200000Y-92850000D02*
X30250000Y-92800000D01*
X30250000Y-92800000D02*
X31450000Y-92800000D01*
X31450000Y-92800000D02*
X36350000Y-87900000D01*
X36350000Y-87900000D02*
X36350000Y-86750000D01*
X36350000Y-87900000D02*
X37400000Y-87900000D01*
X37400000Y-87900000D02*
X37950000Y-88450000D01*
X37950000Y-88450000D02*
X38700000Y-88450000D01*
X38700000Y-88450000D02*
X39050000Y-88800000D01*
X39050000Y-88800000D02*
X39050000Y-89400000D01*
X39050000Y-89400000D02*
X38850000Y-89600000D01*
X38850000Y-89600000D02*
X38850000Y-90300000D01*
X38850000Y-90300000D02*
X40800000Y-92250000D01*
X40800000Y-92250000D02*
X40800000Y-92450000D01*
X40800000Y-92450000D02*
X42800000Y-94450000D01*
X42800000Y-94450000D02*
X46900000Y-94450000D01*
X46900000Y-94450000D02*
X49100000Y-92250000D01*
X49100000Y-92250000D02*
X49100000Y-86750000D01*
X49250000Y-85250000D02*
X50250000Y-85250000D01*
X50250000Y-85250000D02*
X52250000Y-83250000D01*
X52250000Y-83250000D02*
X52250000Y-82800000D01*
X52250000Y-82800000D02*
X53650000Y-81400000D01*
X53650000Y-81400000D02*
X58650000Y-81400000D01*
X58650000Y-81400000D02*
X61350000Y-84100000D01*
X61350000Y-84100000D02*
X61350000Y-85250000D01*
X61750000Y-86750000D02*
X62250000Y-86750000D01*
X62250000Y-86750000D02*
X66750000Y-91250000D01*
X66750000Y-91250000D02*
X70500000Y-91250000D01*
X70500000Y-91250000D02*
X73850000Y-87900000D01*
X73850000Y-87900000D02*
X73850000Y-86750000D01*
X28200000Y-92950000D02*
X28200000Y-93250000D01*
X28200000Y-93250000D02*
X27850000Y-93600000D01*
X27850000Y-93600000D02*
X27850000Y-95250000D01*
X27850000Y-95250000D02*
X28800000Y-96200000D01*
X28800000Y-96200000D02*
X28800000Y-96700000D01*
X28800000Y-96700000D02*
X29200000Y-97100000D01*
X29200000Y-97100000D02*
X29200000Y-97400000D01*
X29200000Y-97400000D02*
X30250000Y-98450000D01*
X30250000Y-98450000D02*
X30250000Y-99050000D01*
X30250000Y-99050000D02*
X29000000Y-100300000D01*
X29000000Y-100300000D02*
X29000000Y-108900000D01*
X29000000Y-108900000D02*
X29150000Y-109050000D01*
X29150000Y-109050000D02*
X29150000Y-112800000D01*
X29150000Y-112800000D02*
X29850000Y-113500000D01*
X29850000Y-113500000D02*
X29850000Y-114000000D01*
X29850000Y-114000000D02*
X29400000Y-114450000D01*
X29400000Y-114450000D02*
X29250000Y-114450000D01*
X29250000Y-114450000D02*
X28900000Y-114800000D01*
X28900000Y-114800000D02*
X28900000Y-118700000D01*
X28900000Y-118700000D02*
X29700000Y-119500000D01*
X29700000Y-119500000D02*
X29700000Y-120400000D01*
X29700000Y-120400000D02*
X29800000Y-120500000D01*
X29800000Y-120500000D02*
X29800000Y-121150000D01*
X29800000Y-121150000D02*
X29150000Y-121800000D01*
X29150000Y-121800000D02*
X29150000Y-123600000D01*
X29150000Y-123600000D02*
X29850000Y-124300000D01*
X29850000Y-124300000D02*
X29850000Y-125100000D01*
X29850000Y-125100000D02*
X30650000Y-125900000D01*
%TO.N,row1*%
X61350000Y-74750000D02*
X61350000Y-75900000D01*
X61350000Y-75900000D02*
X58650000Y-78600000D01*
X58650000Y-78600000D02*
X51900000Y-78600000D01*
X51900000Y-78600000D02*
X49150000Y-75850000D01*
X49150000Y-75850000D02*
X49150000Y-74750000D01*
X61350000Y-75900000D02*
X64650000Y-75900000D01*
X64650000Y-75900000D02*
X68200000Y-79450000D01*
X68200000Y-79450000D02*
X70600000Y-79450000D01*
X70600000Y-79450000D02*
X73850000Y-76200000D01*
X73850000Y-76200000D02*
X73850000Y-74750000D01*
X49250000Y-75950000D02*
X45950000Y-79250000D01*
X45950000Y-79250000D02*
X44800000Y-79250000D01*
X44800000Y-79250000D02*
X44650000Y-79100000D01*
X44650000Y-79100000D02*
X42450000Y-79100000D01*
X42450000Y-79100000D02*
X42300000Y-79250000D01*
X42300000Y-79250000D02*
X41250000Y-79250000D01*
X41250000Y-79250000D02*
X39150000Y-77150000D01*
X39150000Y-77150000D02*
X38400000Y-77150000D01*
X38400000Y-77150000D02*
X36750000Y-75500000D01*
X36750000Y-75500000D02*
X36750000Y-74750000D01*
X37550000Y-76300000D02*
X34900000Y-78950000D01*
X34900000Y-78950000D02*
X34900000Y-79650000D01*
X34900000Y-79650000D02*
X34550000Y-80000000D01*
X34550000Y-80000000D02*
X33100000Y-80000000D01*
X33100000Y-80000000D02*
X32850000Y-79750000D01*
X32850000Y-79750000D02*
X28500000Y-79750000D01*
X28500000Y-79750000D02*
X26900000Y-78150000D01*
X26900000Y-78150000D02*
X26750000Y-78150000D01*
X26750000Y-78150000D02*
X24700000Y-76100000D01*
X24700000Y-76100000D02*
X24700000Y-75200000D01*
X24700000Y-75200000D02*
X24250000Y-74750000D01*
X24900000Y-76300000D02*
X22450000Y-78750000D01*
X22450000Y-78750000D02*
X22150000Y-78750000D01*
X22150000Y-78750000D02*
X21850000Y-79050000D01*
X21850000Y-79050000D02*
X21850000Y-79150000D01*
X21850000Y-79150000D02*
X21750000Y-79250000D01*
X21750000Y-79250000D02*
X21750000Y-79800000D01*
X21750000Y-79800000D02*
X21950000Y-80000000D01*
X21950000Y-80000000D02*
X21950000Y-80700000D01*
X21950000Y-80700000D02*
X21800000Y-80850000D01*
X21800000Y-80850000D02*
X17850000Y-80850000D01*
X17850000Y-80850000D02*
X11750000Y-74750000D01*
X17850000Y-80850000D02*
X16700000Y-82000000D01*
X16700000Y-82000000D02*
X9600000Y-82000000D01*
X3900000Y-82000000D02*
X3900000Y-82350000D01*
X3900000Y-82350000D02*
X2150000Y-84100000D01*
X2150000Y-84100000D02*
X2150000Y-95500000D01*
X2150000Y-95500000D02*
X1750000Y-95900000D01*
X1750000Y-95900000D02*
X1750000Y-124100000D01*
X1750000Y-124100000D02*
X5400000Y-127750000D01*
X5400000Y-127750000D02*
X6250000Y-127750000D01*
X6250000Y-127750000D02*
X6350000Y-127850000D01*
X6350000Y-127850000D02*
X20550000Y-127850000D01*
X20550000Y-127850000D02*
X20650000Y-127950000D01*
X20650000Y-127950000D02*
X28850000Y-127950000D01*
X28850000Y-127950000D02*
X29050000Y-128150000D01*
%TO.N,row0*%
X11750000Y-61250000D02*
X15600000Y-57400000D01*
X15600000Y-57400000D02*
X21150000Y-57400000D01*
X21150000Y-57400000D02*
X24000000Y-60250000D01*
X24000000Y-60250000D02*
X24000000Y-61250000D01*
X24250000Y-61300000D02*
X24900000Y-61300000D01*
X24900000Y-61300000D02*
X28800000Y-57400000D01*
X28800000Y-57400000D02*
X33650000Y-57400000D01*
X33650000Y-57400000D02*
X36350000Y-60100000D01*
X36350000Y-60100000D02*
X36350000Y-61250000D01*
X36350000Y-60100000D02*
X39650000Y-60100000D01*
X39650000Y-60100000D02*
X42350000Y-57400000D01*
X42350000Y-57400000D02*
X46150000Y-57400000D01*
X46150000Y-57400000D02*
X48850000Y-60100000D01*
X48850000Y-60100000D02*
X48850000Y-61250000D01*
X49250000Y-61250000D02*
X51000000Y-61250000D01*
X51000000Y-61250000D02*
X54850000Y-57400000D01*
X54850000Y-57400000D02*
X59300000Y-57400000D01*
X59300000Y-57400000D02*
X62200000Y-60300000D01*
X62200000Y-60300000D02*
X62200000Y-60950000D01*
X62200000Y-60950000D02*
X61850000Y-61300000D01*
X61850000Y-61300000D02*
X61750000Y-61300000D01*
X60800000Y-58900000D02*
X62300000Y-57400000D01*
X62300000Y-57400000D02*
X72350000Y-57400000D01*
X72350000Y-57400000D02*
X74000000Y-59050000D01*
X74000000Y-59050000D02*
X74000000Y-61250000D01*
X24250000Y-62750000D02*
X28500000Y-67000000D01*
X28500000Y-67000000D02*
X28500000Y-67450000D01*
X28500000Y-67450000D02*
X27000000Y-68950000D01*
X27000000Y-68950000D02*
X27000000Y-69450000D01*
X27000000Y-69450000D02*
X26250000Y-70200000D01*
X26250000Y-70200000D02*
X26250000Y-71100000D01*
X26250000Y-71100000D02*
X26050000Y-71300000D01*
X26050000Y-71300000D02*
X26050000Y-71800000D01*
X26050000Y-71800000D02*
X26000000Y-71850000D01*
X26000000Y-71850000D02*
X26000000Y-74300000D01*
X26000000Y-74300000D02*
X26700000Y-75000000D01*
X26700000Y-75000000D02*
X26800000Y-75000000D01*
X26800000Y-75000000D02*
X27150000Y-75350000D01*
X27150000Y-75350000D02*
X27150000Y-75900000D01*
X27150000Y-75900000D02*
X28350000Y-77100000D01*
X28350000Y-77100000D02*
X28350000Y-77550000D01*
X28350000Y-77550000D02*
X27750000Y-78150000D01*
X27550000Y-79650000D02*
X27550000Y-82100000D01*
X27550000Y-82100000D02*
X26950000Y-82700000D01*
X26950000Y-82700000D02*
X26950000Y-86600000D01*
X26950000Y-86600000D02*
X22550000Y-91000000D01*
X22550000Y-91000000D02*
X7900000Y-91000000D01*
X7900000Y-91000000D02*
X5500000Y-93400000D01*
X5500000Y-93400000D02*
X4850000Y-93400000D01*
X4850000Y-93400000D02*
X2150000Y-96100000D01*
X2150000Y-96100000D02*
X2150000Y-123900000D01*
X2150000Y-123900000D02*
X5600000Y-127350000D01*
X5600000Y-127350000D02*
X6450000Y-127350000D01*
X6450000Y-127350000D02*
X6550000Y-127450000D01*
X6550000Y-127450000D02*
X19700000Y-127450000D01*
X19700000Y-127450000D02*
X19900000Y-127250000D01*
X19900000Y-127250000D02*
X20700000Y-127250000D01*
X20700000Y-127250000D02*
X20800000Y-127350000D01*
X20800000Y-127350000D02*
X25500000Y-127350000D01*
X25500000Y-127350000D02*
X25700000Y-127550000D01*
X25700000Y-127550000D02*
X29400000Y-127550000D01*
X29400000Y-127550000D02*
X29650000Y-127300000D01*
%TO.N,col2*%
X31400000Y-66200000D02*
X31400000Y-66850000D01*
X31200000Y-69050000D02*
X31200000Y-69800000D01*
X32750000Y-78200000D02*
X32750000Y-78850000D01*
X35500000Y-79900000D02*
X35500000Y-81650000D01*
X35500000Y-81650000D02*
X34450000Y-82700000D01*
X29950000Y-90200000D02*
X29750000Y-90400000D01*
X29750000Y-90400000D02*
X29750000Y-91550000D01*
X29750000Y-91550000D02*
X30000000Y-91800000D01*
X30000000Y-91800000D02*
X30000000Y-92250000D01*
X30300000Y-95400000D02*
X32550000Y-95400000D01*
X32550000Y-95400000D02*
X33050000Y-95900000D01*
X35900000Y-102950000D02*
X35450000Y-103400000D01*
X35150000Y-104600000D02*
X34900000Y-104600000D01*
X34900000Y-104600000D02*
X34750000Y-104750000D01*
X34750000Y-104750000D02*
X34750000Y-105200000D01*
X34750000Y-105200000D02*
X35250000Y-105700000D01*
X42950000Y-111900000D02*
X43400000Y-111900000D01*
X43400000Y-111900000D02*
X43600000Y-111700000D01*
X43200000Y-115500000D02*
X40850000Y-117850000D01*
X35000000Y-126050000D02*
X34500000Y-126550000D01*
X34500000Y-126550000D02*
X34500000Y-126650000D01*
X34350000Y-129550000D02*
X34350000Y-129600000D01*
X34350000Y-129600000D02*
X34850000Y-130100000D01*
X33050000Y-131900000D02*
X32400000Y-131900000D01*
%TO.N,col1*%
X27950000Y-132100000D02*
X29200000Y-132100000D01*
X25500000Y-129450000D02*
X25950000Y-129000000D01*
X25950000Y-126950000D02*
X25500000Y-126500000D01*
X18050000Y-120050000D02*
X17400000Y-120050000D01*
X17400000Y-111200000D02*
X18050000Y-111200000D01*
X20350000Y-105600000D02*
X19900000Y-105150000D01*
X20000000Y-102900000D02*
X20450000Y-102450000D01*
X20900000Y-93050000D02*
X20900000Y-92400000D01*
X15600000Y-82750000D02*
X14400000Y-82750000D01*
X12950000Y-81300000D02*
X12950000Y-79700000D01*
X12950000Y-78550000D02*
X13800000Y-77700000D01*
X13800000Y-75800000D02*
X15050000Y-75800000D01*
X21050000Y-69800000D02*
X21050000Y-67700000D01*
X21050000Y-66850000D02*
X21050000Y-66200000D01*
%TO.N,col3*%
X50900000Y-126950000D02*
X50900000Y-127500000D01*
X50900000Y-127500000D02*
X50800000Y-127600000D01*
X51750000Y-128400000D02*
X51750000Y-129050000D01*
X50250000Y-117700000D02*
X49800000Y-117250000D01*
X50500000Y-115400000D02*
X50950000Y-114950000D01*
X50900000Y-105050000D02*
X50450000Y-104600000D01*
X50050000Y-102950000D02*
X50500000Y-102500000D01*
X51100000Y-93050000D02*
X51100000Y-90600000D01*
X48500000Y-89500000D02*
X47600000Y-88600000D01*
X43200000Y-81800000D02*
X43200000Y-79700000D01*
X42050000Y-78650000D02*
X42500000Y-78200000D01*
X45800000Y-69800000D02*
X45800000Y-69150000D01*
X45800000Y-66850000D02*
X45800000Y-66200000D01*
X48050000Y-131900000D02*
X44500000Y-131900000D01*
X44500000Y-131900000D02*
X44100000Y-131500000D01*
%TO.N,col0*%
X7750000Y-66200000D02*
X7750000Y-66850000D01*
X7750000Y-67950000D02*
X7750000Y-69800000D01*
X6700000Y-78200000D02*
X6700000Y-78850000D01*
X6700000Y-79700000D02*
X6700000Y-81800000D01*
X7150000Y-90200000D02*
X7150000Y-90850000D01*
X7150000Y-93150000D02*
X7150000Y-93800000D01*
X5600000Y-102200000D02*
X5600000Y-102850000D01*
X5600000Y-105150000D02*
X5600000Y-105800000D01*
X7900000Y-114200000D02*
X7900000Y-114850000D01*
X7900000Y-117150000D02*
X7900000Y-117800000D01*
X8200000Y-126200000D02*
X8200000Y-126850000D01*
X8200000Y-129150000D02*
X8200000Y-129800000D01*
X10950000Y-84250000D02*
X11600000Y-84250000D01*
X14350000Y-84250000D02*
X15050000Y-84250000D01*
X10950000Y-132300000D02*
X11600000Y-132300000D01*
X28550000Y-136500000D02*
X28550000Y-135450000D01*
X28550000Y-135450000D02*
X28900000Y-135100000D01*
X28900000Y-135100000D02*
X29450000Y-135100000D01*
X29450000Y-135100000D02*
X29550000Y-135000000D01*
%TO.N,col5*%
X69150000Y-81800000D02*
X69150000Y-81150000D01*
X69150000Y-78850000D02*
X69150000Y-78200000D01*
X73450000Y-72200000D02*
X73750000Y-72200000D01*
X73750000Y-72200000D02*
X74000000Y-71950000D01*
X74100000Y-63700000D02*
X73450000Y-63700000D01*
X67450000Y-90200000D02*
X67000000Y-90650000D01*
X60850000Y-112450000D02*
X59650000Y-113650000D01*
X59650000Y-113650000D02*
X59650000Y-113950000D01*
X49450000Y-127800000D02*
X44250000Y-127800000D01*
X44250000Y-127800000D02*
X44100000Y-127950000D01*
%TO.N,col4*%
X56000000Y-66200000D02*
X56000000Y-66850000D01*
X54000000Y-69900000D02*
X54450000Y-70350000D01*
X54300000Y-77550000D02*
X53850000Y-78000000D01*
X53850000Y-82050000D02*
X54300000Y-82500000D01*
X59450000Y-89250000D02*
X59900000Y-89700000D01*
X62800000Y-95300000D02*
X63250000Y-95750000D01*
X66400000Y-102950000D02*
X66400000Y-103600000D01*
X65100000Y-105000000D02*
X65100000Y-105050000D01*
X65100000Y-105050000D02*
X65500000Y-105450000D01*
X65950000Y-114950000D02*
X65950000Y-117050000D01*
X63050000Y-124100000D02*
X62400000Y-124100000D01*
X64850000Y-129250000D02*
X65300000Y-129700000D01*
X58700000Y-129100000D02*
X57850000Y-128250000D01*
X47150000Y-132650000D02*
X44150000Y-132650000D01*
X44150000Y-132650000D02*
X44050000Y-132750000D01*
X32950000Y-131150000D02*
X32950000Y-130150000D01*
X32950000Y-130150000D02*
X33150000Y-129950000D01*
%TD*%
M02*
