%TF.GenerationSoftware,KiCad,Pcbnew,10.0.3*%
%TF.CreationDate,2026-09-28T13:11:20+01:00*%
%TF.ProjectId,default,64656661-756c-4742-9e6b-696361645f70,rev?*%
%TF.SameCoordinates,Original*%
%TF.FileFunction,Legend,Bot*%
%TF.FilePolarity,Positive*%
%FSLAX46Y46*%
G04 Gerber Fmt 4.6, Leading zero omitted, Abs format (unit mm)*
G04 Created by KiCad (PCBNEW 10.0.3) date 2026-09-28 13:11:20*
%MOMM*%
%LPD*%
G01*
G04 APERTURE LIST*
%ADD10C,0.150000*%
%ADD11C,0.120000*%
%ADD12C,0.210000*%
%ADD13C,0.225000*%
G04 APERTURE END LIST*
D10*
X42711666Y-11949580D02*
X42759285Y-11997200D01*
X42759285Y-11997200D02*
X42902142Y-12044819D01*
X42902142Y-12044819D02*
X42997380Y-12044819D01*
X42997380Y-12044819D02*
X43140237Y-11997200D01*
X43140237Y-11997200D02*
X43235475Y-11901961D01*
X43235475Y-11901961D02*
X43283094Y-11806723D01*
X43283094Y-11806723D02*
X43330713Y-11616247D01*
X43330713Y-11616247D02*
X43330713Y-11473390D01*
X43330713Y-11473390D02*
X43283094Y-11282914D01*
X43283094Y-11282914D02*
X43235475Y-11187676D01*
X43235475Y-11187676D02*
X43140237Y-11092438D01*
X43140237Y-11092438D02*
X42997380Y-11044819D01*
X42997380Y-11044819D02*
X42902142Y-11044819D01*
X42902142Y-11044819D02*
X42759285Y-11092438D01*
X42759285Y-11092438D02*
X42711666Y-11140057D01*
X41759285Y-12044819D02*
X42330713Y-12044819D01*
X42044999Y-12044819D02*
X42044999Y-11044819D01*
X42044999Y-11044819D02*
X42140237Y-11187676D01*
X42140237Y-11187676D02*
X42235475Y-11282914D01*
X42235475Y-11282914D02*
X42330713Y-11330533D01*
X52712857Y-6069819D02*
X53046190Y-5593628D01*
X53284285Y-6069819D02*
X53284285Y-5069819D01*
X53284285Y-5069819D02*
X52903333Y-5069819D01*
X52903333Y-5069819D02*
X52808095Y-5117438D01*
X52808095Y-5117438D02*
X52760476Y-5165057D01*
X52760476Y-5165057D02*
X52712857Y-5260295D01*
X52712857Y-5260295D02*
X52712857Y-5403152D01*
X52712857Y-5403152D02*
X52760476Y-5498390D01*
X52760476Y-5498390D02*
X52808095Y-5546009D01*
X52808095Y-5546009D02*
X52903333Y-5593628D01*
X52903333Y-5593628D02*
X53284285Y-5593628D01*
X51760476Y-6069819D02*
X52331904Y-6069819D01*
X52046190Y-6069819D02*
X52046190Y-5069819D01*
X52046190Y-5069819D02*
X52141428Y-5212676D01*
X52141428Y-5212676D02*
X52236666Y-5307914D01*
X52236666Y-5307914D02*
X52331904Y-5355533D01*
X51284285Y-6069819D02*
X51093809Y-6069819D01*
X51093809Y-6069819D02*
X50998571Y-6022200D01*
X50998571Y-6022200D02*
X50950952Y-5974580D01*
X50950952Y-5974580D02*
X50855714Y-5831723D01*
X50855714Y-5831723D02*
X50808095Y-5641247D01*
X50808095Y-5641247D02*
X50808095Y-5260295D01*
X50808095Y-5260295D02*
X50855714Y-5165057D01*
X50855714Y-5165057D02*
X50903333Y-5117438D01*
X50903333Y-5117438D02*
X50998571Y-5069819D01*
X50998571Y-5069819D02*
X51189047Y-5069819D01*
X51189047Y-5069819D02*
X51284285Y-5117438D01*
X51284285Y-5117438D02*
X51331904Y-5165057D01*
X51331904Y-5165057D02*
X51379523Y-5260295D01*
X51379523Y-5260295D02*
X51379523Y-5498390D01*
X51379523Y-5498390D02*
X51331904Y-5593628D01*
X51331904Y-5593628D02*
X51284285Y-5641247D01*
X51284285Y-5641247D02*
X51189047Y-5688866D01*
X51189047Y-5688866D02*
X50998571Y-5688866D01*
X50998571Y-5688866D02*
X50903333Y-5641247D01*
X50903333Y-5641247D02*
X50855714Y-5593628D01*
X50855714Y-5593628D02*
X50808095Y-5498390D01*
X52061904Y-87462819D02*
X51490476Y-87462819D01*
X51776190Y-88462819D02*
X51776190Y-87462819D01*
X51157142Y-88462819D02*
X51157142Y-87462819D01*
X51157142Y-87462819D02*
X50776190Y-87462819D01*
X50776190Y-87462819D02*
X50680952Y-87510438D01*
X50680952Y-87510438D02*
X50633333Y-87558057D01*
X50633333Y-87558057D02*
X50585714Y-87653295D01*
X50585714Y-87653295D02*
X50585714Y-87796152D01*
X50585714Y-87796152D02*
X50633333Y-87891390D01*
X50633333Y-87891390D02*
X50680952Y-87939009D01*
X50680952Y-87939009D02*
X50776190Y-87986628D01*
X50776190Y-87986628D02*
X51157142Y-87986628D01*
X49728571Y-87796152D02*
X49728571Y-88462819D01*
X49966666Y-87415200D02*
X50204761Y-88129485D01*
X50204761Y-88129485D02*
X49585714Y-88129485D01*
X28741666Y-73794580D02*
X28789285Y-73842200D01*
X28789285Y-73842200D02*
X28932142Y-73889819D01*
X28932142Y-73889819D02*
X29027380Y-73889819D01*
X29027380Y-73889819D02*
X29170237Y-73842200D01*
X29170237Y-73842200D02*
X29265475Y-73746961D01*
X29265475Y-73746961D02*
X29313094Y-73651723D01*
X29313094Y-73651723D02*
X29360713Y-73461247D01*
X29360713Y-73461247D02*
X29360713Y-73318390D01*
X29360713Y-73318390D02*
X29313094Y-73127914D01*
X29313094Y-73127914D02*
X29265475Y-73032676D01*
X29265475Y-73032676D02*
X29170237Y-72937438D01*
X29170237Y-72937438D02*
X29027380Y-72889819D01*
X29027380Y-72889819D02*
X28932142Y-72889819D01*
X28932142Y-72889819D02*
X28789285Y-72937438D01*
X28789285Y-72937438D02*
X28741666Y-72985057D01*
X28360713Y-72985057D02*
X28313094Y-72937438D01*
X28313094Y-72937438D02*
X28217856Y-72889819D01*
X28217856Y-72889819D02*
X27979761Y-72889819D01*
X27979761Y-72889819D02*
X27884523Y-72937438D01*
X27884523Y-72937438D02*
X27836904Y-72985057D01*
X27836904Y-72985057D02*
X27789285Y-73080295D01*
X27789285Y-73080295D02*
X27789285Y-73175533D01*
X27789285Y-73175533D02*
X27836904Y-73318390D01*
X27836904Y-73318390D02*
X28408332Y-73889819D01*
X28408332Y-73889819D02*
X27789285Y-73889819D01*
X29678094Y-133182819D02*
X29106666Y-133182819D01*
X29392380Y-134182819D02*
X29392380Y-133182819D01*
X28773332Y-134182819D02*
X28773332Y-133182819D01*
X28773332Y-133182819D02*
X28392380Y-133182819D01*
X28392380Y-133182819D02*
X28297142Y-133230438D01*
X28297142Y-133230438D02*
X28249523Y-133278057D01*
X28249523Y-133278057D02*
X28201904Y-133373295D01*
X28201904Y-133373295D02*
X28201904Y-133516152D01*
X28201904Y-133516152D02*
X28249523Y-133611390D01*
X28249523Y-133611390D02*
X28297142Y-133659009D01*
X28297142Y-133659009D02*
X28392380Y-133706628D01*
X28392380Y-133706628D02*
X28773332Y-133706628D01*
X27249523Y-134182819D02*
X27820951Y-134182819D01*
X27535237Y-134182819D02*
X27535237Y-133182819D01*
X27535237Y-133182819D02*
X27630475Y-133325676D01*
X27630475Y-133325676D02*
X27725713Y-133420914D01*
X27725713Y-133420914D02*
X27820951Y-133468533D01*
X26297142Y-134182819D02*
X26868570Y-134182819D01*
X26582856Y-134182819D02*
X26582856Y-133182819D01*
X26582856Y-133182819D02*
X26678094Y-133325676D01*
X26678094Y-133325676D02*
X26773332Y-133420914D01*
X26773332Y-133420914D02*
X26868570Y-133468533D01*
X21597857Y-10514819D02*
X21931190Y-10038628D01*
X22169285Y-10514819D02*
X22169285Y-9514819D01*
X22169285Y-9514819D02*
X21788333Y-9514819D01*
X21788333Y-9514819D02*
X21693095Y-9562438D01*
X21693095Y-9562438D02*
X21645476Y-9610057D01*
X21645476Y-9610057D02*
X21597857Y-9705295D01*
X21597857Y-9705295D02*
X21597857Y-9848152D01*
X21597857Y-9848152D02*
X21645476Y-9943390D01*
X21645476Y-9943390D02*
X21693095Y-9991009D01*
X21693095Y-9991009D02*
X21788333Y-10038628D01*
X21788333Y-10038628D02*
X22169285Y-10038628D01*
X20645476Y-10514819D02*
X21216904Y-10514819D01*
X20931190Y-10514819D02*
X20931190Y-9514819D01*
X20931190Y-9514819D02*
X21026428Y-9657676D01*
X21026428Y-9657676D02*
X21121666Y-9752914D01*
X21121666Y-9752914D02*
X21216904Y-9800533D01*
X20074047Y-9943390D02*
X20169285Y-9895771D01*
X20169285Y-9895771D02*
X20216904Y-9848152D01*
X20216904Y-9848152D02*
X20264523Y-9752914D01*
X20264523Y-9752914D02*
X20264523Y-9705295D01*
X20264523Y-9705295D02*
X20216904Y-9610057D01*
X20216904Y-9610057D02*
X20169285Y-9562438D01*
X20169285Y-9562438D02*
X20074047Y-9514819D01*
X20074047Y-9514819D02*
X19883571Y-9514819D01*
X19883571Y-9514819D02*
X19788333Y-9562438D01*
X19788333Y-9562438D02*
X19740714Y-9610057D01*
X19740714Y-9610057D02*
X19693095Y-9705295D01*
X19693095Y-9705295D02*
X19693095Y-9752914D01*
X19693095Y-9752914D02*
X19740714Y-9848152D01*
X19740714Y-9848152D02*
X19788333Y-9895771D01*
X19788333Y-9895771D02*
X19883571Y-9943390D01*
X19883571Y-9943390D02*
X20074047Y-9943390D01*
X20074047Y-9943390D02*
X20169285Y-9991009D01*
X20169285Y-9991009D02*
X20216904Y-10038628D01*
X20216904Y-10038628D02*
X20264523Y-10133866D01*
X20264523Y-10133866D02*
X20264523Y-10324342D01*
X20264523Y-10324342D02*
X20216904Y-10419580D01*
X20216904Y-10419580D02*
X20169285Y-10467200D01*
X20169285Y-10467200D02*
X20074047Y-10514819D01*
X20074047Y-10514819D02*
X19883571Y-10514819D01*
X19883571Y-10514819D02*
X19788333Y-10467200D01*
X19788333Y-10467200D02*
X19740714Y-10419580D01*
X19740714Y-10419580D02*
X19693095Y-10324342D01*
X19693095Y-10324342D02*
X19693095Y-10133866D01*
X19693095Y-10133866D02*
X19740714Y-10038628D01*
X19740714Y-10038628D02*
X19788333Y-9991009D01*
X19788333Y-9991009D02*
X19883571Y-9943390D01*
X34456666Y-11784819D02*
X34789999Y-11308628D01*
X35028094Y-11784819D02*
X35028094Y-10784819D01*
X35028094Y-10784819D02*
X34647142Y-10784819D01*
X34647142Y-10784819D02*
X34551904Y-10832438D01*
X34551904Y-10832438D02*
X34504285Y-10880057D01*
X34504285Y-10880057D02*
X34456666Y-10975295D01*
X34456666Y-10975295D02*
X34456666Y-11118152D01*
X34456666Y-11118152D02*
X34504285Y-11213390D01*
X34504285Y-11213390D02*
X34551904Y-11261009D01*
X34551904Y-11261009D02*
X34647142Y-11308628D01*
X34647142Y-11308628D02*
X35028094Y-11308628D01*
X34075713Y-10880057D02*
X34028094Y-10832438D01*
X34028094Y-10832438D02*
X33932856Y-10784819D01*
X33932856Y-10784819D02*
X33694761Y-10784819D01*
X33694761Y-10784819D02*
X33599523Y-10832438D01*
X33599523Y-10832438D02*
X33551904Y-10880057D01*
X33551904Y-10880057D02*
X33504285Y-10975295D01*
X33504285Y-10975295D02*
X33504285Y-11070533D01*
X33504285Y-11070533D02*
X33551904Y-11213390D01*
X33551904Y-11213390D02*
X34123332Y-11784819D01*
X34123332Y-11784819D02*
X33504285Y-11784819D01*
X7088094Y-81829819D02*
X7088094Y-80829819D01*
X7088094Y-80829819D02*
X6849999Y-80829819D01*
X6849999Y-80829819D02*
X6707142Y-80877438D01*
X6707142Y-80877438D02*
X6611904Y-80972676D01*
X6611904Y-80972676D02*
X6564285Y-81067914D01*
X6564285Y-81067914D02*
X6516666Y-81258390D01*
X6516666Y-81258390D02*
X6516666Y-81401247D01*
X6516666Y-81401247D02*
X6564285Y-81591723D01*
X6564285Y-81591723D02*
X6611904Y-81686961D01*
X6611904Y-81686961D02*
X6707142Y-81782200D01*
X6707142Y-81782200D02*
X6849999Y-81829819D01*
X6849999Y-81829819D02*
X7088094Y-81829819D01*
X6135713Y-80925057D02*
X6088094Y-80877438D01*
X6088094Y-80877438D02*
X5992856Y-80829819D01*
X5992856Y-80829819D02*
X5754761Y-80829819D01*
X5754761Y-80829819D02*
X5659523Y-80877438D01*
X5659523Y-80877438D02*
X5611904Y-80925057D01*
X5611904Y-80925057D02*
X5564285Y-81020295D01*
X5564285Y-81020295D02*
X5564285Y-81115533D01*
X5564285Y-81115533D02*
X5611904Y-81258390D01*
X5611904Y-81258390D02*
X6183332Y-81829819D01*
X6183332Y-81829819D02*
X5564285Y-81829819D01*
X60491666Y-68944819D02*
X60967856Y-68944819D01*
X60967856Y-68944819D02*
X60967856Y-67944819D01*
X60253570Y-67944819D02*
X59634523Y-67944819D01*
X59634523Y-67944819D02*
X59967856Y-68325771D01*
X59967856Y-68325771D02*
X59824999Y-68325771D01*
X59824999Y-68325771D02*
X59729761Y-68373390D01*
X59729761Y-68373390D02*
X59682142Y-68421009D01*
X59682142Y-68421009D02*
X59634523Y-68516247D01*
X59634523Y-68516247D02*
X59634523Y-68754342D01*
X59634523Y-68754342D02*
X59682142Y-68849580D01*
X59682142Y-68849580D02*
X59729761Y-68897200D01*
X59729761Y-68897200D02*
X59824999Y-68944819D01*
X59824999Y-68944819D02*
X60110713Y-68944819D01*
X60110713Y-68944819D02*
X60205951Y-68897200D01*
X60205951Y-68897200D02*
X60253570Y-68849580D01*
X54601904Y-87462819D02*
X54030476Y-87462819D01*
X54316190Y-88462819D02*
X54316190Y-87462819D01*
X53697142Y-88462819D02*
X53697142Y-87462819D01*
X53697142Y-87462819D02*
X53316190Y-87462819D01*
X53316190Y-87462819D02*
X53220952Y-87510438D01*
X53220952Y-87510438D02*
X53173333Y-87558057D01*
X53173333Y-87558057D02*
X53125714Y-87653295D01*
X53125714Y-87653295D02*
X53125714Y-87796152D01*
X53125714Y-87796152D02*
X53173333Y-87891390D01*
X53173333Y-87891390D02*
X53220952Y-87939009D01*
X53220952Y-87939009D02*
X53316190Y-87986628D01*
X53316190Y-87986628D02*
X53697142Y-87986628D01*
X52220952Y-87462819D02*
X52697142Y-87462819D01*
X52697142Y-87462819D02*
X52744761Y-87939009D01*
X52744761Y-87939009D02*
X52697142Y-87891390D01*
X52697142Y-87891390D02*
X52601904Y-87843771D01*
X52601904Y-87843771D02*
X52363809Y-87843771D01*
X52363809Y-87843771D02*
X52268571Y-87891390D01*
X52268571Y-87891390D02*
X52220952Y-87939009D01*
X52220952Y-87939009D02*
X52173333Y-88034247D01*
X52173333Y-88034247D02*
X52173333Y-88272342D01*
X52173333Y-88272342D02*
X52220952Y-88367580D01*
X52220952Y-88367580D02*
X52268571Y-88415200D01*
X52268571Y-88415200D02*
X52363809Y-88462819D01*
X52363809Y-88462819D02*
X52601904Y-88462819D01*
X52601904Y-88462819D02*
X52697142Y-88415200D01*
X52697142Y-88415200D02*
X52744761Y-88367580D01*
X27471666Y-137294580D02*
X27519285Y-137342200D01*
X27519285Y-137342200D02*
X27662142Y-137389819D01*
X27662142Y-137389819D02*
X27757380Y-137389819D01*
X27757380Y-137389819D02*
X27900237Y-137342200D01*
X27900237Y-137342200D02*
X27995475Y-137246961D01*
X27995475Y-137246961D02*
X28043094Y-137151723D01*
X28043094Y-137151723D02*
X28090713Y-136961247D01*
X28090713Y-136961247D02*
X28090713Y-136818390D01*
X28090713Y-136818390D02*
X28043094Y-136627914D01*
X28043094Y-136627914D02*
X27995475Y-136532676D01*
X27995475Y-136532676D02*
X27900237Y-136437438D01*
X27900237Y-136437438D02*
X27757380Y-136389819D01*
X27757380Y-136389819D02*
X27662142Y-136389819D01*
X27662142Y-136389819D02*
X27519285Y-136437438D01*
X27519285Y-136437438D02*
X27471666Y-136485057D01*
X26900237Y-136818390D02*
X26995475Y-136770771D01*
X26995475Y-136770771D02*
X27043094Y-136723152D01*
X27043094Y-136723152D02*
X27090713Y-136627914D01*
X27090713Y-136627914D02*
X27090713Y-136580295D01*
X27090713Y-136580295D02*
X27043094Y-136485057D01*
X27043094Y-136485057D02*
X26995475Y-136437438D01*
X26995475Y-136437438D02*
X26900237Y-136389819D01*
X26900237Y-136389819D02*
X26709761Y-136389819D01*
X26709761Y-136389819D02*
X26614523Y-136437438D01*
X26614523Y-136437438D02*
X26566904Y-136485057D01*
X26566904Y-136485057D02*
X26519285Y-136580295D01*
X26519285Y-136580295D02*
X26519285Y-136627914D01*
X26519285Y-136627914D02*
X26566904Y-136723152D01*
X26566904Y-136723152D02*
X26614523Y-136770771D01*
X26614523Y-136770771D02*
X26709761Y-136818390D01*
X26709761Y-136818390D02*
X26900237Y-136818390D01*
X26900237Y-136818390D02*
X26995475Y-136866009D01*
X26995475Y-136866009D02*
X27043094Y-136913628D01*
X27043094Y-136913628D02*
X27090713Y-137008866D01*
X27090713Y-137008866D02*
X27090713Y-137199342D01*
X27090713Y-137199342D02*
X27043094Y-137294580D01*
X27043094Y-137294580D02*
X26995475Y-137342200D01*
X26995475Y-137342200D02*
X26900237Y-137389819D01*
X26900237Y-137389819D02*
X26709761Y-137389819D01*
X26709761Y-137389819D02*
X26614523Y-137342200D01*
X26614523Y-137342200D02*
X26566904Y-137294580D01*
X26566904Y-137294580D02*
X26519285Y-137199342D01*
X26519285Y-137199342D02*
X26519285Y-137008866D01*
X26519285Y-137008866D02*
X26566904Y-136913628D01*
X26566904Y-136913628D02*
X26614523Y-136866009D01*
X26614523Y-136866009D02*
X26709761Y-136818390D01*
X14612857Y-67194580D02*
X14660476Y-67242200D01*
X14660476Y-67242200D02*
X14803333Y-67289819D01*
X14803333Y-67289819D02*
X14898571Y-67289819D01*
X14898571Y-67289819D02*
X15041428Y-67242200D01*
X15041428Y-67242200D02*
X15136666Y-67146961D01*
X15136666Y-67146961D02*
X15184285Y-67051723D01*
X15184285Y-67051723D02*
X15231904Y-66861247D01*
X15231904Y-66861247D02*
X15231904Y-66718390D01*
X15231904Y-66718390D02*
X15184285Y-66527914D01*
X15184285Y-66527914D02*
X15136666Y-66432676D01*
X15136666Y-66432676D02*
X15041428Y-66337438D01*
X15041428Y-66337438D02*
X14898571Y-66289819D01*
X14898571Y-66289819D02*
X14803333Y-66289819D01*
X14803333Y-66289819D02*
X14660476Y-66337438D01*
X14660476Y-66337438D02*
X14612857Y-66385057D01*
X13660476Y-67289819D02*
X14231904Y-67289819D01*
X13946190Y-67289819D02*
X13946190Y-66289819D01*
X13946190Y-66289819D02*
X14041428Y-66432676D01*
X14041428Y-66432676D02*
X14136666Y-66527914D01*
X14136666Y-66527914D02*
X14231904Y-66575533D01*
X12803333Y-66289819D02*
X12993809Y-66289819D01*
X12993809Y-66289819D02*
X13089047Y-66337438D01*
X13089047Y-66337438D02*
X13136666Y-66385057D01*
X13136666Y-66385057D02*
X13231904Y-66527914D01*
X13231904Y-66527914D02*
X13279523Y-66718390D01*
X13279523Y-66718390D02*
X13279523Y-67099342D01*
X13279523Y-67099342D02*
X13231904Y-67194580D01*
X13231904Y-67194580D02*
X13184285Y-67242200D01*
X13184285Y-67242200D02*
X13089047Y-67289819D01*
X13089047Y-67289819D02*
X12898571Y-67289819D01*
X12898571Y-67289819D02*
X12803333Y-67242200D01*
X12803333Y-67242200D02*
X12755714Y-67194580D01*
X12755714Y-67194580D02*
X12708095Y-67099342D01*
X12708095Y-67099342D02*
X12708095Y-66861247D01*
X12708095Y-66861247D02*
X12755714Y-66766009D01*
X12755714Y-66766009D02*
X12803333Y-66718390D01*
X12803333Y-66718390D02*
X12898571Y-66670771D01*
X12898571Y-66670771D02*
X13089047Y-66670771D01*
X13089047Y-66670771D02*
X13184285Y-66718390D01*
X13184285Y-66718390D02*
X13231904Y-66766009D01*
X13231904Y-66766009D02*
X13279523Y-66861247D01*
X36996666Y-77189819D02*
X37329999Y-76713628D01*
X37568094Y-77189819D02*
X37568094Y-76189819D01*
X37568094Y-76189819D02*
X37187142Y-76189819D01*
X37187142Y-76189819D02*
X37091904Y-76237438D01*
X37091904Y-76237438D02*
X37044285Y-76285057D01*
X37044285Y-76285057D02*
X36996666Y-76380295D01*
X36996666Y-76380295D02*
X36996666Y-76523152D01*
X36996666Y-76523152D02*
X37044285Y-76618390D01*
X37044285Y-76618390D02*
X37091904Y-76666009D01*
X37091904Y-76666009D02*
X37187142Y-76713628D01*
X37187142Y-76713628D02*
X37568094Y-76713628D01*
X36139523Y-76523152D02*
X36139523Y-77189819D01*
X36377618Y-76142200D02*
X36615713Y-76856485D01*
X36615713Y-76856485D02*
X35996666Y-76856485D01*
X47791666Y-138044580D02*
X47839285Y-138092200D01*
X47839285Y-138092200D02*
X47982142Y-138139819D01*
X47982142Y-138139819D02*
X48077380Y-138139819D01*
X48077380Y-138139819D02*
X48220237Y-138092200D01*
X48220237Y-138092200D02*
X48315475Y-137996961D01*
X48315475Y-137996961D02*
X48363094Y-137901723D01*
X48363094Y-137901723D02*
X48410713Y-137711247D01*
X48410713Y-137711247D02*
X48410713Y-137568390D01*
X48410713Y-137568390D02*
X48363094Y-137377914D01*
X48363094Y-137377914D02*
X48315475Y-137282676D01*
X48315475Y-137282676D02*
X48220237Y-137187438D01*
X48220237Y-137187438D02*
X48077380Y-137139819D01*
X48077380Y-137139819D02*
X47982142Y-137139819D01*
X47982142Y-137139819D02*
X47839285Y-137187438D01*
X47839285Y-137187438D02*
X47791666Y-137235057D01*
X47458332Y-137139819D02*
X46791666Y-137139819D01*
X46791666Y-137139819D02*
X47220237Y-138139819D01*
X36996666Y-74649819D02*
X37329999Y-74173628D01*
X37568094Y-74649819D02*
X37568094Y-73649819D01*
X37568094Y-73649819D02*
X37187142Y-73649819D01*
X37187142Y-73649819D02*
X37091904Y-73697438D01*
X37091904Y-73697438D02*
X37044285Y-73745057D01*
X37044285Y-73745057D02*
X36996666Y-73840295D01*
X36996666Y-73840295D02*
X36996666Y-73983152D01*
X36996666Y-73983152D02*
X37044285Y-74078390D01*
X37044285Y-74078390D02*
X37091904Y-74126009D01*
X37091904Y-74126009D02*
X37187142Y-74173628D01*
X37187142Y-74173628D02*
X37568094Y-74173628D01*
X36663332Y-73649819D02*
X36044285Y-73649819D01*
X36044285Y-73649819D02*
X36377618Y-74030771D01*
X36377618Y-74030771D02*
X36234761Y-74030771D01*
X36234761Y-74030771D02*
X36139523Y-74078390D01*
X36139523Y-74078390D02*
X36091904Y-74126009D01*
X36091904Y-74126009D02*
X36044285Y-74221247D01*
X36044285Y-74221247D02*
X36044285Y-74459342D01*
X36044285Y-74459342D02*
X36091904Y-74554580D01*
X36091904Y-74554580D02*
X36139523Y-74602200D01*
X36139523Y-74602200D02*
X36234761Y-74649819D01*
X36234761Y-74649819D02*
X36520475Y-74649819D01*
X36520475Y-74649819D02*
X36615713Y-74602200D01*
X36615713Y-74602200D02*
X36663332Y-74554580D01*
X66801904Y-67894819D02*
X66801904Y-68704342D01*
X66801904Y-68704342D02*
X66754285Y-68799580D01*
X66754285Y-68799580D02*
X66706666Y-68847200D01*
X66706666Y-68847200D02*
X66611428Y-68894819D01*
X66611428Y-68894819D02*
X66420952Y-68894819D01*
X66420952Y-68894819D02*
X66325714Y-68847200D01*
X66325714Y-68847200D02*
X66278095Y-68799580D01*
X66278095Y-68799580D02*
X66230476Y-68704342D01*
X66230476Y-68704342D02*
X66230476Y-67894819D01*
X65325714Y-67894819D02*
X65516190Y-67894819D01*
X65516190Y-67894819D02*
X65611428Y-67942438D01*
X65611428Y-67942438D02*
X65659047Y-67990057D01*
X65659047Y-67990057D02*
X65754285Y-68132914D01*
X65754285Y-68132914D02*
X65801904Y-68323390D01*
X65801904Y-68323390D02*
X65801904Y-68704342D01*
X65801904Y-68704342D02*
X65754285Y-68799580D01*
X65754285Y-68799580D02*
X65706666Y-68847200D01*
X65706666Y-68847200D02*
X65611428Y-68894819D01*
X65611428Y-68894819D02*
X65420952Y-68894819D01*
X65420952Y-68894819D02*
X65325714Y-68847200D01*
X65325714Y-68847200D02*
X65278095Y-68799580D01*
X65278095Y-68799580D02*
X65230476Y-68704342D01*
X65230476Y-68704342D02*
X65230476Y-68466247D01*
X65230476Y-68466247D02*
X65278095Y-68371009D01*
X65278095Y-68371009D02*
X65325714Y-68323390D01*
X65325714Y-68323390D02*
X65420952Y-68275771D01*
X65420952Y-68275771D02*
X65611428Y-68275771D01*
X65611428Y-68275771D02*
X65706666Y-68323390D01*
X65706666Y-68323390D02*
X65754285Y-68371009D01*
X65754285Y-68371009D02*
X65801904Y-68466247D01*
X27471666Y-139314580D02*
X27519285Y-139362200D01*
X27519285Y-139362200D02*
X27662142Y-139409819D01*
X27662142Y-139409819D02*
X27757380Y-139409819D01*
X27757380Y-139409819D02*
X27900237Y-139362200D01*
X27900237Y-139362200D02*
X27995475Y-139266961D01*
X27995475Y-139266961D02*
X28043094Y-139171723D01*
X28043094Y-139171723D02*
X28090713Y-138981247D01*
X28090713Y-138981247D02*
X28090713Y-138838390D01*
X28090713Y-138838390D02*
X28043094Y-138647914D01*
X28043094Y-138647914D02*
X27995475Y-138552676D01*
X27995475Y-138552676D02*
X27900237Y-138457438D01*
X27900237Y-138457438D02*
X27757380Y-138409819D01*
X27757380Y-138409819D02*
X27662142Y-138409819D01*
X27662142Y-138409819D02*
X27519285Y-138457438D01*
X27519285Y-138457438D02*
X27471666Y-138505057D01*
X26995475Y-139409819D02*
X26804999Y-139409819D01*
X26804999Y-139409819D02*
X26709761Y-139362200D01*
X26709761Y-139362200D02*
X26662142Y-139314580D01*
X26662142Y-139314580D02*
X26566904Y-139171723D01*
X26566904Y-139171723D02*
X26519285Y-138981247D01*
X26519285Y-138981247D02*
X26519285Y-138600295D01*
X26519285Y-138600295D02*
X26566904Y-138505057D01*
X26566904Y-138505057D02*
X26614523Y-138457438D01*
X26614523Y-138457438D02*
X26709761Y-138409819D01*
X26709761Y-138409819D02*
X26900237Y-138409819D01*
X26900237Y-138409819D02*
X26995475Y-138457438D01*
X26995475Y-138457438D02*
X27043094Y-138505057D01*
X27043094Y-138505057D02*
X27090713Y-138600295D01*
X27090713Y-138600295D02*
X27090713Y-138838390D01*
X27090713Y-138838390D02*
X27043094Y-138933628D01*
X27043094Y-138933628D02*
X26995475Y-138981247D01*
X26995475Y-138981247D02*
X26900237Y-139028866D01*
X26900237Y-139028866D02*
X26709761Y-139028866D01*
X26709761Y-139028866D02*
X26614523Y-138981247D01*
X26614523Y-138981247D02*
X26566904Y-138933628D01*
X26566904Y-138933628D02*
X26519285Y-138838390D01*
X13438094Y-81829819D02*
X13438094Y-80829819D01*
X13438094Y-80829819D02*
X13199999Y-80829819D01*
X13199999Y-80829819D02*
X13057142Y-80877438D01*
X13057142Y-80877438D02*
X12961904Y-80972676D01*
X12961904Y-80972676D02*
X12914285Y-81067914D01*
X12914285Y-81067914D02*
X12866666Y-81258390D01*
X12866666Y-81258390D02*
X12866666Y-81401247D01*
X12866666Y-81401247D02*
X12914285Y-81591723D01*
X12914285Y-81591723D02*
X12961904Y-81686961D01*
X12961904Y-81686961D02*
X13057142Y-81782200D01*
X13057142Y-81782200D02*
X13199999Y-81829819D01*
X13199999Y-81829819D02*
X13438094Y-81829819D01*
X12533332Y-80829819D02*
X11914285Y-80829819D01*
X11914285Y-80829819D02*
X12247618Y-81210771D01*
X12247618Y-81210771D02*
X12104761Y-81210771D01*
X12104761Y-81210771D02*
X12009523Y-81258390D01*
X12009523Y-81258390D02*
X11961904Y-81306009D01*
X11961904Y-81306009D02*
X11914285Y-81401247D01*
X11914285Y-81401247D02*
X11914285Y-81639342D01*
X11914285Y-81639342D02*
X11961904Y-81734580D01*
X11961904Y-81734580D02*
X12009523Y-81782200D01*
X12009523Y-81782200D02*
X12104761Y-81829819D01*
X12104761Y-81829819D02*
X12390475Y-81829819D01*
X12390475Y-81829819D02*
X12485713Y-81782200D01*
X12485713Y-81782200D02*
X12533332Y-81734580D01*
X8897857Y-77354580D02*
X8945476Y-77402200D01*
X8945476Y-77402200D02*
X9088333Y-77449819D01*
X9088333Y-77449819D02*
X9183571Y-77449819D01*
X9183571Y-77449819D02*
X9326428Y-77402200D01*
X9326428Y-77402200D02*
X9421666Y-77306961D01*
X9421666Y-77306961D02*
X9469285Y-77211723D01*
X9469285Y-77211723D02*
X9516904Y-77021247D01*
X9516904Y-77021247D02*
X9516904Y-76878390D01*
X9516904Y-76878390D02*
X9469285Y-76687914D01*
X9469285Y-76687914D02*
X9421666Y-76592676D01*
X9421666Y-76592676D02*
X9326428Y-76497438D01*
X9326428Y-76497438D02*
X9183571Y-76449819D01*
X9183571Y-76449819D02*
X9088333Y-76449819D01*
X9088333Y-76449819D02*
X8945476Y-76497438D01*
X8945476Y-76497438D02*
X8897857Y-76545057D01*
X7945476Y-77449819D02*
X8516904Y-77449819D01*
X8231190Y-77449819D02*
X8231190Y-76449819D01*
X8231190Y-76449819D02*
X8326428Y-76592676D01*
X8326428Y-76592676D02*
X8421666Y-76687914D01*
X8421666Y-76687914D02*
X8516904Y-76735533D01*
X7374047Y-76878390D02*
X7469285Y-76830771D01*
X7469285Y-76830771D02*
X7516904Y-76783152D01*
X7516904Y-76783152D02*
X7564523Y-76687914D01*
X7564523Y-76687914D02*
X7564523Y-76640295D01*
X7564523Y-76640295D02*
X7516904Y-76545057D01*
X7516904Y-76545057D02*
X7469285Y-76497438D01*
X7469285Y-76497438D02*
X7374047Y-76449819D01*
X7374047Y-76449819D02*
X7183571Y-76449819D01*
X7183571Y-76449819D02*
X7088333Y-76497438D01*
X7088333Y-76497438D02*
X7040714Y-76545057D01*
X7040714Y-76545057D02*
X6993095Y-76640295D01*
X6993095Y-76640295D02*
X6993095Y-76687914D01*
X6993095Y-76687914D02*
X7040714Y-76783152D01*
X7040714Y-76783152D02*
X7088333Y-76830771D01*
X7088333Y-76830771D02*
X7183571Y-76878390D01*
X7183571Y-76878390D02*
X7374047Y-76878390D01*
X7374047Y-76878390D02*
X7469285Y-76926009D01*
X7469285Y-76926009D02*
X7516904Y-76973628D01*
X7516904Y-76973628D02*
X7564523Y-77068866D01*
X7564523Y-77068866D02*
X7564523Y-77259342D01*
X7564523Y-77259342D02*
X7516904Y-77354580D01*
X7516904Y-77354580D02*
X7469285Y-77402200D01*
X7469285Y-77402200D02*
X7374047Y-77449819D01*
X7374047Y-77449819D02*
X7183571Y-77449819D01*
X7183571Y-77449819D02*
X7088333Y-77402200D01*
X7088333Y-77402200D02*
X7040714Y-77354580D01*
X7040714Y-77354580D02*
X6993095Y-77259342D01*
X6993095Y-77259342D02*
X6993095Y-77068866D01*
X6993095Y-77068866D02*
X7040714Y-76973628D01*
X7040714Y-76973628D02*
X7088333Y-76926009D01*
X7088333Y-76926009D02*
X7183571Y-76878390D01*
X33781904Y-90604819D02*
X33781904Y-91414342D01*
X33781904Y-91414342D02*
X33734285Y-91509580D01*
X33734285Y-91509580D02*
X33686666Y-91557200D01*
X33686666Y-91557200D02*
X33591428Y-91604819D01*
X33591428Y-91604819D02*
X33400952Y-91604819D01*
X33400952Y-91604819D02*
X33305714Y-91557200D01*
X33305714Y-91557200D02*
X33258095Y-91509580D01*
X33258095Y-91509580D02*
X33210476Y-91414342D01*
X33210476Y-91414342D02*
X33210476Y-90604819D01*
X32829523Y-90604819D02*
X32210476Y-90604819D01*
X32210476Y-90604819D02*
X32543809Y-90985771D01*
X32543809Y-90985771D02*
X32400952Y-90985771D01*
X32400952Y-90985771D02*
X32305714Y-91033390D01*
X32305714Y-91033390D02*
X32258095Y-91081009D01*
X32258095Y-91081009D02*
X32210476Y-91176247D01*
X32210476Y-91176247D02*
X32210476Y-91414342D01*
X32210476Y-91414342D02*
X32258095Y-91509580D01*
X32258095Y-91509580D02*
X32305714Y-91557200D01*
X32305714Y-91557200D02*
X32400952Y-91604819D01*
X32400952Y-91604819D02*
X32686666Y-91604819D01*
X32686666Y-91604819D02*
X32781904Y-91557200D01*
X32781904Y-91557200D02*
X32829523Y-91509580D01*
X64142857Y-72109819D02*
X64476190Y-71633628D01*
X64714285Y-72109819D02*
X64714285Y-71109819D01*
X64714285Y-71109819D02*
X64333333Y-71109819D01*
X64333333Y-71109819D02*
X64238095Y-71157438D01*
X64238095Y-71157438D02*
X64190476Y-71205057D01*
X64190476Y-71205057D02*
X64142857Y-71300295D01*
X64142857Y-71300295D02*
X64142857Y-71443152D01*
X64142857Y-71443152D02*
X64190476Y-71538390D01*
X64190476Y-71538390D02*
X64238095Y-71586009D01*
X64238095Y-71586009D02*
X64333333Y-71633628D01*
X64333333Y-71633628D02*
X64714285Y-71633628D01*
X63761904Y-71205057D02*
X63714285Y-71157438D01*
X63714285Y-71157438D02*
X63619047Y-71109819D01*
X63619047Y-71109819D02*
X63380952Y-71109819D01*
X63380952Y-71109819D02*
X63285714Y-71157438D01*
X63285714Y-71157438D02*
X63238095Y-71205057D01*
X63238095Y-71205057D02*
X63190476Y-71300295D01*
X63190476Y-71300295D02*
X63190476Y-71395533D01*
X63190476Y-71395533D02*
X63238095Y-71538390D01*
X63238095Y-71538390D02*
X63809523Y-72109819D01*
X63809523Y-72109819D02*
X63190476Y-72109819D01*
X62809523Y-71205057D02*
X62761904Y-71157438D01*
X62761904Y-71157438D02*
X62666666Y-71109819D01*
X62666666Y-71109819D02*
X62428571Y-71109819D01*
X62428571Y-71109819D02*
X62333333Y-71157438D01*
X62333333Y-71157438D02*
X62285714Y-71205057D01*
X62285714Y-71205057D02*
X62238095Y-71300295D01*
X62238095Y-71300295D02*
X62238095Y-71395533D01*
X62238095Y-71395533D02*
X62285714Y-71538390D01*
X62285714Y-71538390D02*
X62857142Y-72109819D01*
X62857142Y-72109819D02*
X62238095Y-72109819D01*
X33186666Y-94749580D02*
X33234285Y-94797200D01*
X33234285Y-94797200D02*
X33377142Y-94844819D01*
X33377142Y-94844819D02*
X33472380Y-94844819D01*
X33472380Y-94844819D02*
X33615237Y-94797200D01*
X33615237Y-94797200D02*
X33710475Y-94701961D01*
X33710475Y-94701961D02*
X33758094Y-94606723D01*
X33758094Y-94606723D02*
X33805713Y-94416247D01*
X33805713Y-94416247D02*
X33805713Y-94273390D01*
X33805713Y-94273390D02*
X33758094Y-94082914D01*
X33758094Y-94082914D02*
X33710475Y-93987676D01*
X33710475Y-93987676D02*
X33615237Y-93892438D01*
X33615237Y-93892438D02*
X33472380Y-93844819D01*
X33472380Y-93844819D02*
X33377142Y-93844819D01*
X33377142Y-93844819D02*
X33234285Y-93892438D01*
X33234285Y-93892438D02*
X33186666Y-93940057D01*
X32329523Y-94178152D02*
X32329523Y-94844819D01*
X32567618Y-93797200D02*
X32805713Y-94511485D01*
X32805713Y-94511485D02*
X32186666Y-94511485D01*
X41901666Y-89354819D02*
X42377856Y-89354819D01*
X42377856Y-89354819D02*
X42377856Y-88354819D01*
X41044523Y-89354819D02*
X41615951Y-89354819D01*
X41330237Y-89354819D02*
X41330237Y-88354819D01*
X41330237Y-88354819D02*
X41425475Y-88497676D01*
X41425475Y-88497676D02*
X41520713Y-88592914D01*
X41520713Y-88592914D02*
X41615951Y-88640533D01*
X32811904Y-121104819D02*
X32811904Y-121914342D01*
X32811904Y-121914342D02*
X32764285Y-122009580D01*
X32764285Y-122009580D02*
X32716666Y-122057200D01*
X32716666Y-122057200D02*
X32621428Y-122104819D01*
X32621428Y-122104819D02*
X32430952Y-122104819D01*
X32430952Y-122104819D02*
X32335714Y-122057200D01*
X32335714Y-122057200D02*
X32288095Y-122009580D01*
X32288095Y-122009580D02*
X32240476Y-121914342D01*
X32240476Y-121914342D02*
X32240476Y-121104819D01*
X31288095Y-121104819D02*
X31764285Y-121104819D01*
X31764285Y-121104819D02*
X31811904Y-121581009D01*
X31811904Y-121581009D02*
X31764285Y-121533390D01*
X31764285Y-121533390D02*
X31669047Y-121485771D01*
X31669047Y-121485771D02*
X31430952Y-121485771D01*
X31430952Y-121485771D02*
X31335714Y-121533390D01*
X31335714Y-121533390D02*
X31288095Y-121581009D01*
X31288095Y-121581009D02*
X31240476Y-121676247D01*
X31240476Y-121676247D02*
X31240476Y-121914342D01*
X31240476Y-121914342D02*
X31288095Y-122009580D01*
X31288095Y-122009580D02*
X31335714Y-122057200D01*
X31335714Y-122057200D02*
X31430952Y-122104819D01*
X31430952Y-122104819D02*
X31669047Y-122104819D01*
X31669047Y-122104819D02*
X31764285Y-122057200D01*
X31764285Y-122057200D02*
X31811904Y-122009580D01*
X65412857Y-110209819D02*
X65746190Y-109733628D01*
X65984285Y-110209819D02*
X65984285Y-109209819D01*
X65984285Y-109209819D02*
X65603333Y-109209819D01*
X65603333Y-109209819D02*
X65508095Y-109257438D01*
X65508095Y-109257438D02*
X65460476Y-109305057D01*
X65460476Y-109305057D02*
X65412857Y-109400295D01*
X65412857Y-109400295D02*
X65412857Y-109543152D01*
X65412857Y-109543152D02*
X65460476Y-109638390D01*
X65460476Y-109638390D02*
X65508095Y-109686009D01*
X65508095Y-109686009D02*
X65603333Y-109733628D01*
X65603333Y-109733628D02*
X65984285Y-109733628D01*
X64460476Y-110209819D02*
X65031904Y-110209819D01*
X64746190Y-110209819D02*
X64746190Y-109209819D01*
X64746190Y-109209819D02*
X64841428Y-109352676D01*
X64841428Y-109352676D02*
X64936666Y-109447914D01*
X64936666Y-109447914D02*
X65031904Y-109495533D01*
X63603333Y-109209819D02*
X63793809Y-109209819D01*
X63793809Y-109209819D02*
X63889047Y-109257438D01*
X63889047Y-109257438D02*
X63936666Y-109305057D01*
X63936666Y-109305057D02*
X64031904Y-109447914D01*
X64031904Y-109447914D02*
X64079523Y-109638390D01*
X64079523Y-109638390D02*
X64079523Y-110019342D01*
X64079523Y-110019342D02*
X64031904Y-110114580D01*
X64031904Y-110114580D02*
X63984285Y-110162200D01*
X63984285Y-110162200D02*
X63889047Y-110209819D01*
X63889047Y-110209819D02*
X63698571Y-110209819D01*
X63698571Y-110209819D02*
X63603333Y-110162200D01*
X63603333Y-110162200D02*
X63555714Y-110114580D01*
X63555714Y-110114580D02*
X63508095Y-110019342D01*
X63508095Y-110019342D02*
X63508095Y-109781247D01*
X63508095Y-109781247D02*
X63555714Y-109686009D01*
X63555714Y-109686009D02*
X63603333Y-109638390D01*
X63603333Y-109638390D02*
X63698571Y-109590771D01*
X63698571Y-109590771D02*
X63889047Y-109590771D01*
X63889047Y-109590771D02*
X63984285Y-109638390D01*
X63984285Y-109638390D02*
X64031904Y-109686009D01*
X64031904Y-109686009D02*
X64079523Y-109781247D01*
X49537857Y-6069819D02*
X49871190Y-5593628D01*
X50109285Y-6069819D02*
X50109285Y-5069819D01*
X50109285Y-5069819D02*
X49728333Y-5069819D01*
X49728333Y-5069819D02*
X49633095Y-5117438D01*
X49633095Y-5117438D02*
X49585476Y-5165057D01*
X49585476Y-5165057D02*
X49537857Y-5260295D01*
X49537857Y-5260295D02*
X49537857Y-5403152D01*
X49537857Y-5403152D02*
X49585476Y-5498390D01*
X49585476Y-5498390D02*
X49633095Y-5546009D01*
X49633095Y-5546009D02*
X49728333Y-5593628D01*
X49728333Y-5593628D02*
X50109285Y-5593628D01*
X49156904Y-5165057D02*
X49109285Y-5117438D01*
X49109285Y-5117438D02*
X49014047Y-5069819D01*
X49014047Y-5069819D02*
X48775952Y-5069819D01*
X48775952Y-5069819D02*
X48680714Y-5117438D01*
X48680714Y-5117438D02*
X48633095Y-5165057D01*
X48633095Y-5165057D02*
X48585476Y-5260295D01*
X48585476Y-5260295D02*
X48585476Y-5355533D01*
X48585476Y-5355533D02*
X48633095Y-5498390D01*
X48633095Y-5498390D02*
X49204523Y-6069819D01*
X49204523Y-6069819D02*
X48585476Y-6069819D01*
X47966428Y-5069819D02*
X47871190Y-5069819D01*
X47871190Y-5069819D02*
X47775952Y-5117438D01*
X47775952Y-5117438D02*
X47728333Y-5165057D01*
X47728333Y-5165057D02*
X47680714Y-5260295D01*
X47680714Y-5260295D02*
X47633095Y-5450771D01*
X47633095Y-5450771D02*
X47633095Y-5688866D01*
X47633095Y-5688866D02*
X47680714Y-5879342D01*
X47680714Y-5879342D02*
X47728333Y-5974580D01*
X47728333Y-5974580D02*
X47775952Y-6022200D01*
X47775952Y-6022200D02*
X47871190Y-6069819D01*
X47871190Y-6069819D02*
X47966428Y-6069819D01*
X47966428Y-6069819D02*
X48061666Y-6022200D01*
X48061666Y-6022200D02*
X48109285Y-5974580D01*
X48109285Y-5974580D02*
X48156904Y-5879342D01*
X48156904Y-5879342D02*
X48204523Y-5688866D01*
X48204523Y-5688866D02*
X48204523Y-5450771D01*
X48204523Y-5450771D02*
X48156904Y-5260295D01*
X48156904Y-5260295D02*
X48109285Y-5165057D01*
X48109285Y-5165057D02*
X48061666Y-5117438D01*
X48061666Y-5117438D02*
X47966428Y-5069819D01*
X60967857Y-63384580D02*
X61015476Y-63432200D01*
X61015476Y-63432200D02*
X61158333Y-63479819D01*
X61158333Y-63479819D02*
X61253571Y-63479819D01*
X61253571Y-63479819D02*
X61396428Y-63432200D01*
X61396428Y-63432200D02*
X61491666Y-63336961D01*
X61491666Y-63336961D02*
X61539285Y-63241723D01*
X61539285Y-63241723D02*
X61586904Y-63051247D01*
X61586904Y-63051247D02*
X61586904Y-62908390D01*
X61586904Y-62908390D02*
X61539285Y-62717914D01*
X61539285Y-62717914D02*
X61491666Y-62622676D01*
X61491666Y-62622676D02*
X61396428Y-62527438D01*
X61396428Y-62527438D02*
X61253571Y-62479819D01*
X61253571Y-62479819D02*
X61158333Y-62479819D01*
X61158333Y-62479819D02*
X61015476Y-62527438D01*
X61015476Y-62527438D02*
X60967857Y-62575057D01*
X60586904Y-62575057D02*
X60539285Y-62527438D01*
X60539285Y-62527438D02*
X60444047Y-62479819D01*
X60444047Y-62479819D02*
X60205952Y-62479819D01*
X60205952Y-62479819D02*
X60110714Y-62527438D01*
X60110714Y-62527438D02*
X60063095Y-62575057D01*
X60063095Y-62575057D02*
X60015476Y-62670295D01*
X60015476Y-62670295D02*
X60015476Y-62765533D01*
X60015476Y-62765533D02*
X60063095Y-62908390D01*
X60063095Y-62908390D02*
X60634523Y-63479819D01*
X60634523Y-63479819D02*
X60015476Y-63479819D01*
X59063095Y-63479819D02*
X59634523Y-63479819D01*
X59348809Y-63479819D02*
X59348809Y-62479819D01*
X59348809Y-62479819D02*
X59444047Y-62622676D01*
X59444047Y-62622676D02*
X59539285Y-62717914D01*
X59539285Y-62717914D02*
X59634523Y-62765533D01*
X12707857Y-62114580D02*
X12755476Y-62162200D01*
X12755476Y-62162200D02*
X12898333Y-62209819D01*
X12898333Y-62209819D02*
X12993571Y-62209819D01*
X12993571Y-62209819D02*
X13136428Y-62162200D01*
X13136428Y-62162200D02*
X13231666Y-62066961D01*
X13231666Y-62066961D02*
X13279285Y-61971723D01*
X13279285Y-61971723D02*
X13326904Y-61781247D01*
X13326904Y-61781247D02*
X13326904Y-61638390D01*
X13326904Y-61638390D02*
X13279285Y-61447914D01*
X13279285Y-61447914D02*
X13231666Y-61352676D01*
X13231666Y-61352676D02*
X13136428Y-61257438D01*
X13136428Y-61257438D02*
X12993571Y-61209819D01*
X12993571Y-61209819D02*
X12898333Y-61209819D01*
X12898333Y-61209819D02*
X12755476Y-61257438D01*
X12755476Y-61257438D02*
X12707857Y-61305057D01*
X11755476Y-62209819D02*
X12326904Y-62209819D01*
X12041190Y-62209819D02*
X12041190Y-61209819D01*
X12041190Y-61209819D02*
X12136428Y-61352676D01*
X12136428Y-61352676D02*
X12231666Y-61447914D01*
X12231666Y-61447914D02*
X12326904Y-61495533D01*
X11374523Y-61305057D02*
X11326904Y-61257438D01*
X11326904Y-61257438D02*
X11231666Y-61209819D01*
X11231666Y-61209819D02*
X10993571Y-61209819D01*
X10993571Y-61209819D02*
X10898333Y-61257438D01*
X10898333Y-61257438D02*
X10850714Y-61305057D01*
X10850714Y-61305057D02*
X10803095Y-61400295D01*
X10803095Y-61400295D02*
X10803095Y-61495533D01*
X10803095Y-61495533D02*
X10850714Y-61638390D01*
X10850714Y-61638390D02*
X11422142Y-62209819D01*
X11422142Y-62209819D02*
X10803095Y-62209819D01*
X71762857Y-63634580D02*
X71810476Y-63682200D01*
X71810476Y-63682200D02*
X71953333Y-63729819D01*
X71953333Y-63729819D02*
X72048571Y-63729819D01*
X72048571Y-63729819D02*
X72191428Y-63682200D01*
X72191428Y-63682200D02*
X72286666Y-63586961D01*
X72286666Y-63586961D02*
X72334285Y-63491723D01*
X72334285Y-63491723D02*
X72381904Y-63301247D01*
X72381904Y-63301247D02*
X72381904Y-63158390D01*
X72381904Y-63158390D02*
X72334285Y-62967914D01*
X72334285Y-62967914D02*
X72286666Y-62872676D01*
X72286666Y-62872676D02*
X72191428Y-62777438D01*
X72191428Y-62777438D02*
X72048571Y-62729819D01*
X72048571Y-62729819D02*
X71953333Y-62729819D01*
X71953333Y-62729819D02*
X71810476Y-62777438D01*
X71810476Y-62777438D02*
X71762857Y-62825057D01*
X71381904Y-62825057D02*
X71334285Y-62777438D01*
X71334285Y-62777438D02*
X71239047Y-62729819D01*
X71239047Y-62729819D02*
X71000952Y-62729819D01*
X71000952Y-62729819D02*
X70905714Y-62777438D01*
X70905714Y-62777438D02*
X70858095Y-62825057D01*
X70858095Y-62825057D02*
X70810476Y-62920295D01*
X70810476Y-62920295D02*
X70810476Y-63015533D01*
X70810476Y-63015533D02*
X70858095Y-63158390D01*
X70858095Y-63158390D02*
X71429523Y-63729819D01*
X71429523Y-63729819D02*
X70810476Y-63729819D01*
X70191428Y-62729819D02*
X70096190Y-62729819D01*
X70096190Y-62729819D02*
X70000952Y-62777438D01*
X70000952Y-62777438D02*
X69953333Y-62825057D01*
X69953333Y-62825057D02*
X69905714Y-62920295D01*
X69905714Y-62920295D02*
X69858095Y-63110771D01*
X69858095Y-63110771D02*
X69858095Y-63348866D01*
X69858095Y-63348866D02*
X69905714Y-63539342D01*
X69905714Y-63539342D02*
X69953333Y-63634580D01*
X69953333Y-63634580D02*
X70000952Y-63682200D01*
X70000952Y-63682200D02*
X70096190Y-63729819D01*
X70096190Y-63729819D02*
X70191428Y-63729819D01*
X70191428Y-63729819D02*
X70286666Y-63682200D01*
X70286666Y-63682200D02*
X70334285Y-63634580D01*
X70334285Y-63634580D02*
X70381904Y-63539342D01*
X70381904Y-63539342D02*
X70429523Y-63348866D01*
X70429523Y-63348866D02*
X70429523Y-63110771D01*
X70429523Y-63110771D02*
X70381904Y-62920295D01*
X70381904Y-62920295D02*
X70334285Y-62825057D01*
X70334285Y-62825057D02*
X70286666Y-62777438D01*
X70286666Y-62777438D02*
X70191428Y-62729819D01*
X20962857Y-74814580D02*
X21010476Y-74862200D01*
X21010476Y-74862200D02*
X21153333Y-74909819D01*
X21153333Y-74909819D02*
X21248571Y-74909819D01*
X21248571Y-74909819D02*
X21391428Y-74862200D01*
X21391428Y-74862200D02*
X21486666Y-74766961D01*
X21486666Y-74766961D02*
X21534285Y-74671723D01*
X21534285Y-74671723D02*
X21581904Y-74481247D01*
X21581904Y-74481247D02*
X21581904Y-74338390D01*
X21581904Y-74338390D02*
X21534285Y-74147914D01*
X21534285Y-74147914D02*
X21486666Y-74052676D01*
X21486666Y-74052676D02*
X21391428Y-73957438D01*
X21391428Y-73957438D02*
X21248571Y-73909819D01*
X21248571Y-73909819D02*
X21153333Y-73909819D01*
X21153333Y-73909819D02*
X21010476Y-73957438D01*
X21010476Y-73957438D02*
X20962857Y-74005057D01*
X20010476Y-74909819D02*
X20581904Y-74909819D01*
X20296190Y-74909819D02*
X20296190Y-73909819D01*
X20296190Y-73909819D02*
X20391428Y-74052676D01*
X20391428Y-74052676D02*
X20486666Y-74147914D01*
X20486666Y-74147914D02*
X20581904Y-74195533D01*
X19677142Y-73909819D02*
X19010476Y-73909819D01*
X19010476Y-73909819D02*
X19439047Y-74909819D01*
X28741666Y-70204819D02*
X29074999Y-69728628D01*
X29313094Y-70204819D02*
X29313094Y-69204819D01*
X29313094Y-69204819D02*
X28932142Y-69204819D01*
X28932142Y-69204819D02*
X28836904Y-69252438D01*
X28836904Y-69252438D02*
X28789285Y-69300057D01*
X28789285Y-69300057D02*
X28741666Y-69395295D01*
X28741666Y-69395295D02*
X28741666Y-69538152D01*
X28741666Y-69538152D02*
X28789285Y-69633390D01*
X28789285Y-69633390D02*
X28836904Y-69681009D01*
X28836904Y-69681009D02*
X28932142Y-69728628D01*
X28932142Y-69728628D02*
X29313094Y-69728628D01*
X28408332Y-69204819D02*
X27741666Y-69204819D01*
X27741666Y-69204819D02*
X28170237Y-70204819D01*
X8262857Y-62114580D02*
X8310476Y-62162200D01*
X8310476Y-62162200D02*
X8453333Y-62209819D01*
X8453333Y-62209819D02*
X8548571Y-62209819D01*
X8548571Y-62209819D02*
X8691428Y-62162200D01*
X8691428Y-62162200D02*
X8786666Y-62066961D01*
X8786666Y-62066961D02*
X8834285Y-61971723D01*
X8834285Y-61971723D02*
X8881904Y-61781247D01*
X8881904Y-61781247D02*
X8881904Y-61638390D01*
X8881904Y-61638390D02*
X8834285Y-61447914D01*
X8834285Y-61447914D02*
X8786666Y-61352676D01*
X8786666Y-61352676D02*
X8691428Y-61257438D01*
X8691428Y-61257438D02*
X8548571Y-61209819D01*
X8548571Y-61209819D02*
X8453333Y-61209819D01*
X8453333Y-61209819D02*
X8310476Y-61257438D01*
X8310476Y-61257438D02*
X8262857Y-61305057D01*
X7310476Y-62209819D02*
X7881904Y-62209819D01*
X7596190Y-62209819D02*
X7596190Y-61209819D01*
X7596190Y-61209819D02*
X7691428Y-61352676D01*
X7691428Y-61352676D02*
X7786666Y-61447914D01*
X7786666Y-61447914D02*
X7881904Y-61495533D01*
X6358095Y-62209819D02*
X6929523Y-62209819D01*
X6643809Y-62209819D02*
X6643809Y-61209819D01*
X6643809Y-61209819D02*
X6739047Y-61352676D01*
X6739047Y-61352676D02*
X6834285Y-61447914D01*
X6834285Y-61447914D02*
X6929523Y-61495533D01*
X71762857Y-66924580D02*
X71810476Y-66972200D01*
X71810476Y-66972200D02*
X71953333Y-67019819D01*
X71953333Y-67019819D02*
X72048571Y-67019819D01*
X72048571Y-67019819D02*
X72191428Y-66972200D01*
X72191428Y-66972200D02*
X72286666Y-66876961D01*
X72286666Y-66876961D02*
X72334285Y-66781723D01*
X72334285Y-66781723D02*
X72381904Y-66591247D01*
X72381904Y-66591247D02*
X72381904Y-66448390D01*
X72381904Y-66448390D02*
X72334285Y-66257914D01*
X72334285Y-66257914D02*
X72286666Y-66162676D01*
X72286666Y-66162676D02*
X72191428Y-66067438D01*
X72191428Y-66067438D02*
X72048571Y-66019819D01*
X72048571Y-66019819D02*
X71953333Y-66019819D01*
X71953333Y-66019819D02*
X71810476Y-66067438D01*
X71810476Y-66067438D02*
X71762857Y-66115057D01*
X71381904Y-66115057D02*
X71334285Y-66067438D01*
X71334285Y-66067438D02*
X71239047Y-66019819D01*
X71239047Y-66019819D02*
X71000952Y-66019819D01*
X71000952Y-66019819D02*
X70905714Y-66067438D01*
X70905714Y-66067438D02*
X70858095Y-66115057D01*
X70858095Y-66115057D02*
X70810476Y-66210295D01*
X70810476Y-66210295D02*
X70810476Y-66305533D01*
X70810476Y-66305533D02*
X70858095Y-66448390D01*
X70858095Y-66448390D02*
X71429523Y-67019819D01*
X71429523Y-67019819D02*
X70810476Y-67019819D01*
X70429523Y-66115057D02*
X70381904Y-66067438D01*
X70381904Y-66067438D02*
X70286666Y-66019819D01*
X70286666Y-66019819D02*
X70048571Y-66019819D01*
X70048571Y-66019819D02*
X69953333Y-66067438D01*
X69953333Y-66067438D02*
X69905714Y-66115057D01*
X69905714Y-66115057D02*
X69858095Y-66210295D01*
X69858095Y-66210295D02*
X69858095Y-66305533D01*
X69858095Y-66305533D02*
X69905714Y-66448390D01*
X69905714Y-66448390D02*
X70477142Y-67019819D01*
X70477142Y-67019819D02*
X69858095Y-67019819D01*
X12072857Y-89254819D02*
X12406190Y-88778628D01*
X12644285Y-89254819D02*
X12644285Y-88254819D01*
X12644285Y-88254819D02*
X12263333Y-88254819D01*
X12263333Y-88254819D02*
X12168095Y-88302438D01*
X12168095Y-88302438D02*
X12120476Y-88350057D01*
X12120476Y-88350057D02*
X12072857Y-88445295D01*
X12072857Y-88445295D02*
X12072857Y-88588152D01*
X12072857Y-88588152D02*
X12120476Y-88683390D01*
X12120476Y-88683390D02*
X12168095Y-88731009D01*
X12168095Y-88731009D02*
X12263333Y-88778628D01*
X12263333Y-88778628D02*
X12644285Y-88778628D01*
X11120476Y-89254819D02*
X11691904Y-89254819D01*
X11406190Y-89254819D02*
X11406190Y-88254819D01*
X11406190Y-88254819D02*
X11501428Y-88397676D01*
X11501428Y-88397676D02*
X11596666Y-88492914D01*
X11596666Y-88492914D02*
X11691904Y-88540533D01*
X10168095Y-89254819D02*
X10739523Y-89254819D01*
X10453809Y-89254819D02*
X10453809Y-88254819D01*
X10453809Y-88254819D02*
X10549047Y-88397676D01*
X10549047Y-88397676D02*
X10644285Y-88492914D01*
X10644285Y-88492914D02*
X10739523Y-88540533D01*
X66778094Y-64049819D02*
X66778094Y-63049819D01*
X66778094Y-63049819D02*
X66539999Y-63049819D01*
X66539999Y-63049819D02*
X66397142Y-63097438D01*
X66397142Y-63097438D02*
X66301904Y-63192676D01*
X66301904Y-63192676D02*
X66254285Y-63287914D01*
X66254285Y-63287914D02*
X66206666Y-63478390D01*
X66206666Y-63478390D02*
X66206666Y-63621247D01*
X66206666Y-63621247D02*
X66254285Y-63811723D01*
X66254285Y-63811723D02*
X66301904Y-63906961D01*
X66301904Y-63906961D02*
X66397142Y-64002200D01*
X66397142Y-64002200D02*
X66539999Y-64049819D01*
X66539999Y-64049819D02*
X66778094Y-64049819D01*
X65349523Y-63049819D02*
X65539999Y-63049819D01*
X65539999Y-63049819D02*
X65635237Y-63097438D01*
X65635237Y-63097438D02*
X65682856Y-63145057D01*
X65682856Y-63145057D02*
X65778094Y-63287914D01*
X65778094Y-63287914D02*
X65825713Y-63478390D01*
X65825713Y-63478390D02*
X65825713Y-63859342D01*
X65825713Y-63859342D02*
X65778094Y-63954580D01*
X65778094Y-63954580D02*
X65730475Y-64002200D01*
X65730475Y-64002200D02*
X65635237Y-64049819D01*
X65635237Y-64049819D02*
X65444761Y-64049819D01*
X65444761Y-64049819D02*
X65349523Y-64002200D01*
X65349523Y-64002200D02*
X65301904Y-63954580D01*
X65301904Y-63954580D02*
X65254285Y-63859342D01*
X65254285Y-63859342D02*
X65254285Y-63621247D01*
X65254285Y-63621247D02*
X65301904Y-63526009D01*
X65301904Y-63526009D02*
X65349523Y-63478390D01*
X65349523Y-63478390D02*
X65444761Y-63430771D01*
X65444761Y-63430771D02*
X65635237Y-63430771D01*
X65635237Y-63430771D02*
X65730475Y-63478390D01*
X65730475Y-63478390D02*
X65778094Y-63526009D01*
X65778094Y-63526009D02*
X65825713Y-63621247D01*
X40171666Y-72109819D02*
X40504999Y-71633628D01*
X40743094Y-72109819D02*
X40743094Y-71109819D01*
X40743094Y-71109819D02*
X40362142Y-71109819D01*
X40362142Y-71109819D02*
X40266904Y-71157438D01*
X40266904Y-71157438D02*
X40219285Y-71205057D01*
X40219285Y-71205057D02*
X40171666Y-71300295D01*
X40171666Y-71300295D02*
X40171666Y-71443152D01*
X40171666Y-71443152D02*
X40219285Y-71538390D01*
X40219285Y-71538390D02*
X40266904Y-71586009D01*
X40266904Y-71586009D02*
X40362142Y-71633628D01*
X40362142Y-71633628D02*
X40743094Y-71633628D01*
X39314523Y-71109819D02*
X39504999Y-71109819D01*
X39504999Y-71109819D02*
X39600237Y-71157438D01*
X39600237Y-71157438D02*
X39647856Y-71205057D01*
X39647856Y-71205057D02*
X39743094Y-71347914D01*
X39743094Y-71347914D02*
X39790713Y-71538390D01*
X39790713Y-71538390D02*
X39790713Y-71919342D01*
X39790713Y-71919342D02*
X39743094Y-72014580D01*
X39743094Y-72014580D02*
X39695475Y-72062200D01*
X39695475Y-72062200D02*
X39600237Y-72109819D01*
X39600237Y-72109819D02*
X39409761Y-72109819D01*
X39409761Y-72109819D02*
X39314523Y-72062200D01*
X39314523Y-72062200D02*
X39266904Y-72014580D01*
X39266904Y-72014580D02*
X39219285Y-71919342D01*
X39219285Y-71919342D02*
X39219285Y-71681247D01*
X39219285Y-71681247D02*
X39266904Y-71586009D01*
X39266904Y-71586009D02*
X39314523Y-71538390D01*
X39314523Y-71538390D02*
X39409761Y-71490771D01*
X39409761Y-71490771D02*
X39600237Y-71490771D01*
X39600237Y-71490771D02*
X39695475Y-71538390D01*
X39695475Y-71538390D02*
X39743094Y-71586009D01*
X39743094Y-71586009D02*
X39790713Y-71681247D01*
X26068094Y-3844819D02*
X26068094Y-2844819D01*
X26068094Y-2844819D02*
X25829999Y-2844819D01*
X25829999Y-2844819D02*
X25687142Y-2892438D01*
X25687142Y-2892438D02*
X25591904Y-2987676D01*
X25591904Y-2987676D02*
X25544285Y-3082914D01*
X25544285Y-3082914D02*
X25496666Y-3273390D01*
X25496666Y-3273390D02*
X25496666Y-3416247D01*
X25496666Y-3416247D02*
X25544285Y-3606723D01*
X25544285Y-3606723D02*
X25591904Y-3701961D01*
X25591904Y-3701961D02*
X25687142Y-3797200D01*
X25687142Y-3797200D02*
X25829999Y-3844819D01*
X25829999Y-3844819D02*
X26068094Y-3844819D01*
X24639523Y-3178152D02*
X24639523Y-3844819D01*
X24877618Y-2797200D02*
X25115713Y-3511485D01*
X25115713Y-3511485D02*
X24496666Y-3511485D01*
X4554819Y-29816666D02*
X5269104Y-29816666D01*
X5269104Y-29816666D02*
X5411961Y-29769047D01*
X5411961Y-29769047D02*
X5507200Y-29673809D01*
X5507200Y-29673809D02*
X5554819Y-29530952D01*
X5554819Y-29530952D02*
X5554819Y-29435714D01*
X4650057Y-30245238D02*
X4602438Y-30292857D01*
X4602438Y-30292857D02*
X4554819Y-30388095D01*
X4554819Y-30388095D02*
X4554819Y-30626190D01*
X4554819Y-30626190D02*
X4602438Y-30721428D01*
X4602438Y-30721428D02*
X4650057Y-30769047D01*
X4650057Y-30769047D02*
X4745295Y-30816666D01*
X4745295Y-30816666D02*
X4840533Y-30816666D01*
X4840533Y-30816666D02*
X4983390Y-30769047D01*
X4983390Y-30769047D02*
X5554819Y-30197619D01*
X5554819Y-30197619D02*
X5554819Y-30816666D01*
X36996666Y-72109819D02*
X37329999Y-71633628D01*
X37568094Y-72109819D02*
X37568094Y-71109819D01*
X37568094Y-71109819D02*
X37187142Y-71109819D01*
X37187142Y-71109819D02*
X37091904Y-71157438D01*
X37091904Y-71157438D02*
X37044285Y-71205057D01*
X37044285Y-71205057D02*
X36996666Y-71300295D01*
X36996666Y-71300295D02*
X36996666Y-71443152D01*
X36996666Y-71443152D02*
X37044285Y-71538390D01*
X37044285Y-71538390D02*
X37091904Y-71586009D01*
X37091904Y-71586009D02*
X37187142Y-71633628D01*
X37187142Y-71633628D02*
X37568094Y-71633628D01*
X36091904Y-71109819D02*
X36568094Y-71109819D01*
X36568094Y-71109819D02*
X36615713Y-71586009D01*
X36615713Y-71586009D02*
X36568094Y-71538390D01*
X36568094Y-71538390D02*
X36472856Y-71490771D01*
X36472856Y-71490771D02*
X36234761Y-71490771D01*
X36234761Y-71490771D02*
X36139523Y-71538390D01*
X36139523Y-71538390D02*
X36091904Y-71586009D01*
X36091904Y-71586009D02*
X36044285Y-71681247D01*
X36044285Y-71681247D02*
X36044285Y-71919342D01*
X36044285Y-71919342D02*
X36091904Y-72014580D01*
X36091904Y-72014580D02*
X36139523Y-72062200D01*
X36139523Y-72062200D02*
X36234761Y-72109819D01*
X36234761Y-72109819D02*
X36472856Y-72109819D01*
X36472856Y-72109819D02*
X36568094Y-72062200D01*
X36568094Y-72062200D02*
X36615713Y-72014580D01*
X71762857Y-69569819D02*
X72096190Y-69093628D01*
X72334285Y-69569819D02*
X72334285Y-68569819D01*
X72334285Y-68569819D02*
X71953333Y-68569819D01*
X71953333Y-68569819D02*
X71858095Y-68617438D01*
X71858095Y-68617438D02*
X71810476Y-68665057D01*
X71810476Y-68665057D02*
X71762857Y-68760295D01*
X71762857Y-68760295D02*
X71762857Y-68903152D01*
X71762857Y-68903152D02*
X71810476Y-68998390D01*
X71810476Y-68998390D02*
X71858095Y-69046009D01*
X71858095Y-69046009D02*
X71953333Y-69093628D01*
X71953333Y-69093628D02*
X72334285Y-69093628D01*
X71381904Y-68665057D02*
X71334285Y-68617438D01*
X71334285Y-68617438D02*
X71239047Y-68569819D01*
X71239047Y-68569819D02*
X71000952Y-68569819D01*
X71000952Y-68569819D02*
X70905714Y-68617438D01*
X70905714Y-68617438D02*
X70858095Y-68665057D01*
X70858095Y-68665057D02*
X70810476Y-68760295D01*
X70810476Y-68760295D02*
X70810476Y-68855533D01*
X70810476Y-68855533D02*
X70858095Y-68998390D01*
X70858095Y-68998390D02*
X71429523Y-69569819D01*
X71429523Y-69569819D02*
X70810476Y-69569819D01*
X69858095Y-69569819D02*
X70429523Y-69569819D01*
X70143809Y-69569819D02*
X70143809Y-68569819D01*
X70143809Y-68569819D02*
X70239047Y-68712676D01*
X70239047Y-68712676D02*
X70334285Y-68807914D01*
X70334285Y-68807914D02*
X70429523Y-68855533D01*
X3817857Y-64654580D02*
X3865476Y-64702200D01*
X3865476Y-64702200D02*
X4008333Y-64749819D01*
X4008333Y-64749819D02*
X4103571Y-64749819D01*
X4103571Y-64749819D02*
X4246428Y-64702200D01*
X4246428Y-64702200D02*
X4341666Y-64606961D01*
X4341666Y-64606961D02*
X4389285Y-64511723D01*
X4389285Y-64511723D02*
X4436904Y-64321247D01*
X4436904Y-64321247D02*
X4436904Y-64178390D01*
X4436904Y-64178390D02*
X4389285Y-63987914D01*
X4389285Y-63987914D02*
X4341666Y-63892676D01*
X4341666Y-63892676D02*
X4246428Y-63797438D01*
X4246428Y-63797438D02*
X4103571Y-63749819D01*
X4103571Y-63749819D02*
X4008333Y-63749819D01*
X4008333Y-63749819D02*
X3865476Y-63797438D01*
X3865476Y-63797438D02*
X3817857Y-63845057D01*
X2865476Y-64749819D02*
X3436904Y-64749819D01*
X3151190Y-64749819D02*
X3151190Y-63749819D01*
X3151190Y-63749819D02*
X3246428Y-63892676D01*
X3246428Y-63892676D02*
X3341666Y-63987914D01*
X3341666Y-63987914D02*
X3436904Y-64035533D01*
X2532142Y-63749819D02*
X1913095Y-63749819D01*
X1913095Y-63749819D02*
X2246428Y-64130771D01*
X2246428Y-64130771D02*
X2103571Y-64130771D01*
X2103571Y-64130771D02*
X2008333Y-64178390D01*
X2008333Y-64178390D02*
X1960714Y-64226009D01*
X1960714Y-64226009D02*
X1913095Y-64321247D01*
X1913095Y-64321247D02*
X1913095Y-64559342D01*
X1913095Y-64559342D02*
X1960714Y-64654580D01*
X1960714Y-64654580D02*
X2008333Y-64702200D01*
X2008333Y-64702200D02*
X2103571Y-64749819D01*
X2103571Y-64749819D02*
X2389285Y-64749819D01*
X2389285Y-64749819D02*
X2484523Y-64702200D01*
X2484523Y-64702200D02*
X2532142Y-64654580D01*
X21058094Y-72304819D02*
X21058094Y-71304819D01*
X21058094Y-71304819D02*
X20819999Y-71304819D01*
X20819999Y-71304819D02*
X20677142Y-71352438D01*
X20677142Y-71352438D02*
X20581904Y-71447676D01*
X20581904Y-71447676D02*
X20534285Y-71542914D01*
X20534285Y-71542914D02*
X20486666Y-71733390D01*
X20486666Y-71733390D02*
X20486666Y-71876247D01*
X20486666Y-71876247D02*
X20534285Y-72066723D01*
X20534285Y-72066723D02*
X20581904Y-72161961D01*
X20581904Y-72161961D02*
X20677142Y-72257200D01*
X20677142Y-72257200D02*
X20819999Y-72304819D01*
X20819999Y-72304819D02*
X21058094Y-72304819D01*
X19534285Y-72304819D02*
X20105713Y-72304819D01*
X19819999Y-72304819D02*
X19819999Y-71304819D01*
X19819999Y-71304819D02*
X19915237Y-71447676D01*
X19915237Y-71447676D02*
X20010475Y-71542914D01*
X20010475Y-71542914D02*
X20105713Y-71590533D01*
X5722857Y-72109819D02*
X6056190Y-71633628D01*
X6294285Y-72109819D02*
X6294285Y-71109819D01*
X6294285Y-71109819D02*
X5913333Y-71109819D01*
X5913333Y-71109819D02*
X5818095Y-71157438D01*
X5818095Y-71157438D02*
X5770476Y-71205057D01*
X5770476Y-71205057D02*
X5722857Y-71300295D01*
X5722857Y-71300295D02*
X5722857Y-71443152D01*
X5722857Y-71443152D02*
X5770476Y-71538390D01*
X5770476Y-71538390D02*
X5818095Y-71586009D01*
X5818095Y-71586009D02*
X5913333Y-71633628D01*
X5913333Y-71633628D02*
X6294285Y-71633628D01*
X4770476Y-72109819D02*
X5341904Y-72109819D01*
X5056190Y-72109819D02*
X5056190Y-71109819D01*
X5056190Y-71109819D02*
X5151428Y-71252676D01*
X5151428Y-71252676D02*
X5246666Y-71347914D01*
X5246666Y-71347914D02*
X5341904Y-71395533D01*
X3913333Y-71443152D02*
X3913333Y-72109819D01*
X4151428Y-71062200D02*
X4389523Y-71776485D01*
X4389523Y-71776485D02*
X3770476Y-71776485D01*
X52061904Y-90002819D02*
X51490476Y-90002819D01*
X51776190Y-91002819D02*
X51776190Y-90002819D01*
X51157142Y-91002819D02*
X51157142Y-90002819D01*
X51157142Y-90002819D02*
X50776190Y-90002819D01*
X50776190Y-90002819D02*
X50680952Y-90050438D01*
X50680952Y-90050438D02*
X50633333Y-90098057D01*
X50633333Y-90098057D02*
X50585714Y-90193295D01*
X50585714Y-90193295D02*
X50585714Y-90336152D01*
X50585714Y-90336152D02*
X50633333Y-90431390D01*
X50633333Y-90431390D02*
X50680952Y-90479009D01*
X50680952Y-90479009D02*
X50776190Y-90526628D01*
X50776190Y-90526628D02*
X51157142Y-90526628D01*
X49728571Y-90002819D02*
X49919047Y-90002819D01*
X49919047Y-90002819D02*
X50014285Y-90050438D01*
X50014285Y-90050438D02*
X50061904Y-90098057D01*
X50061904Y-90098057D02*
X50157142Y-90240914D01*
X50157142Y-90240914D02*
X50204761Y-90431390D01*
X50204761Y-90431390D02*
X50204761Y-90812342D01*
X50204761Y-90812342D02*
X50157142Y-90907580D01*
X50157142Y-90907580D02*
X50109523Y-90955200D01*
X50109523Y-90955200D02*
X50014285Y-91002819D01*
X50014285Y-91002819D02*
X49823809Y-91002819D01*
X49823809Y-91002819D02*
X49728571Y-90955200D01*
X49728571Y-90955200D02*
X49680952Y-90907580D01*
X49680952Y-90907580D02*
X49633333Y-90812342D01*
X49633333Y-90812342D02*
X49633333Y-90574247D01*
X49633333Y-90574247D02*
X49680952Y-90479009D01*
X49680952Y-90479009D02*
X49728571Y-90431390D01*
X49728571Y-90431390D02*
X49823809Y-90383771D01*
X49823809Y-90383771D02*
X50014285Y-90383771D01*
X50014285Y-90383771D02*
X50109523Y-90431390D01*
X50109523Y-90431390D02*
X50157142Y-90479009D01*
X50157142Y-90479009D02*
X50204761Y-90574247D01*
X67317857Y-72109819D02*
X67651190Y-71633628D01*
X67889285Y-72109819D02*
X67889285Y-71109819D01*
X67889285Y-71109819D02*
X67508333Y-71109819D01*
X67508333Y-71109819D02*
X67413095Y-71157438D01*
X67413095Y-71157438D02*
X67365476Y-71205057D01*
X67365476Y-71205057D02*
X67317857Y-71300295D01*
X67317857Y-71300295D02*
X67317857Y-71443152D01*
X67317857Y-71443152D02*
X67365476Y-71538390D01*
X67365476Y-71538390D02*
X67413095Y-71586009D01*
X67413095Y-71586009D02*
X67508333Y-71633628D01*
X67508333Y-71633628D02*
X67889285Y-71633628D01*
X66936904Y-71205057D02*
X66889285Y-71157438D01*
X66889285Y-71157438D02*
X66794047Y-71109819D01*
X66794047Y-71109819D02*
X66555952Y-71109819D01*
X66555952Y-71109819D02*
X66460714Y-71157438D01*
X66460714Y-71157438D02*
X66413095Y-71205057D01*
X66413095Y-71205057D02*
X66365476Y-71300295D01*
X66365476Y-71300295D02*
X66365476Y-71395533D01*
X66365476Y-71395533D02*
X66413095Y-71538390D01*
X66413095Y-71538390D02*
X66984523Y-72109819D01*
X66984523Y-72109819D02*
X66365476Y-72109819D01*
X66032142Y-71109819D02*
X65413095Y-71109819D01*
X65413095Y-71109819D02*
X65746428Y-71490771D01*
X65746428Y-71490771D02*
X65603571Y-71490771D01*
X65603571Y-71490771D02*
X65508333Y-71538390D01*
X65508333Y-71538390D02*
X65460714Y-71586009D01*
X65460714Y-71586009D02*
X65413095Y-71681247D01*
X65413095Y-71681247D02*
X65413095Y-71919342D01*
X65413095Y-71919342D02*
X65460714Y-72014580D01*
X65460714Y-72014580D02*
X65508333Y-72062200D01*
X65508333Y-72062200D02*
X65603571Y-72109819D01*
X65603571Y-72109819D02*
X65889285Y-72109819D01*
X65889285Y-72109819D02*
X65984523Y-72062200D01*
X65984523Y-72062200D02*
X66032142Y-72014580D01*
X24772857Y-6069819D02*
X25106190Y-5593628D01*
X25344285Y-6069819D02*
X25344285Y-5069819D01*
X25344285Y-5069819D02*
X24963333Y-5069819D01*
X24963333Y-5069819D02*
X24868095Y-5117438D01*
X24868095Y-5117438D02*
X24820476Y-5165057D01*
X24820476Y-5165057D02*
X24772857Y-5260295D01*
X24772857Y-5260295D02*
X24772857Y-5403152D01*
X24772857Y-5403152D02*
X24820476Y-5498390D01*
X24820476Y-5498390D02*
X24868095Y-5546009D01*
X24868095Y-5546009D02*
X24963333Y-5593628D01*
X24963333Y-5593628D02*
X25344285Y-5593628D01*
X23820476Y-6069819D02*
X24391904Y-6069819D01*
X24106190Y-6069819D02*
X24106190Y-5069819D01*
X24106190Y-5069819D02*
X24201428Y-5212676D01*
X24201428Y-5212676D02*
X24296666Y-5307914D01*
X24296666Y-5307914D02*
X24391904Y-5355533D01*
X23487142Y-5069819D02*
X22820476Y-5069819D01*
X22820476Y-5069819D02*
X23249047Y-6069819D01*
X65412857Y-125564819D02*
X65889047Y-125564819D01*
X65889047Y-125564819D02*
X65889047Y-124564819D01*
X65127142Y-125517200D02*
X64984285Y-125564819D01*
X64984285Y-125564819D02*
X64746190Y-125564819D01*
X64746190Y-125564819D02*
X64650952Y-125517200D01*
X64650952Y-125517200D02*
X64603333Y-125469580D01*
X64603333Y-125469580D02*
X64555714Y-125374342D01*
X64555714Y-125374342D02*
X64555714Y-125279104D01*
X64555714Y-125279104D02*
X64603333Y-125183866D01*
X64603333Y-125183866D02*
X64650952Y-125136247D01*
X64650952Y-125136247D02*
X64746190Y-125088628D01*
X64746190Y-125088628D02*
X64936666Y-125041009D01*
X64936666Y-125041009D02*
X65031904Y-124993390D01*
X65031904Y-124993390D02*
X65079523Y-124945771D01*
X65079523Y-124945771D02*
X65127142Y-124850533D01*
X65127142Y-124850533D02*
X65127142Y-124755295D01*
X65127142Y-124755295D02*
X65079523Y-124660057D01*
X65079523Y-124660057D02*
X65031904Y-124612438D01*
X65031904Y-124612438D02*
X64936666Y-124564819D01*
X64936666Y-124564819D02*
X64698571Y-124564819D01*
X64698571Y-124564819D02*
X64555714Y-124612438D01*
X63603333Y-125564819D02*
X64174761Y-125564819D01*
X63889047Y-125564819D02*
X63889047Y-124564819D01*
X63889047Y-124564819D02*
X63984285Y-124707676D01*
X63984285Y-124707676D02*
X64079523Y-124802914D01*
X64079523Y-124802914D02*
X64174761Y-124850533D01*
X54601904Y-90002819D02*
X54030476Y-90002819D01*
X54316190Y-91002819D02*
X54316190Y-90002819D01*
X53697142Y-91002819D02*
X53697142Y-90002819D01*
X53697142Y-90002819D02*
X53316190Y-90002819D01*
X53316190Y-90002819D02*
X53220952Y-90050438D01*
X53220952Y-90050438D02*
X53173333Y-90098057D01*
X53173333Y-90098057D02*
X53125714Y-90193295D01*
X53125714Y-90193295D02*
X53125714Y-90336152D01*
X53125714Y-90336152D02*
X53173333Y-90431390D01*
X53173333Y-90431390D02*
X53220952Y-90479009D01*
X53220952Y-90479009D02*
X53316190Y-90526628D01*
X53316190Y-90526628D02*
X53697142Y-90526628D01*
X52792380Y-90002819D02*
X52125714Y-90002819D01*
X52125714Y-90002819D02*
X52554285Y-91002819D01*
X31281666Y-11784819D02*
X31614999Y-11308628D01*
X31853094Y-11784819D02*
X31853094Y-10784819D01*
X31853094Y-10784819D02*
X31472142Y-10784819D01*
X31472142Y-10784819D02*
X31376904Y-10832438D01*
X31376904Y-10832438D02*
X31329285Y-10880057D01*
X31329285Y-10880057D02*
X31281666Y-10975295D01*
X31281666Y-10975295D02*
X31281666Y-11118152D01*
X31281666Y-11118152D02*
X31329285Y-11213390D01*
X31329285Y-11213390D02*
X31376904Y-11261009D01*
X31376904Y-11261009D02*
X31472142Y-11308628D01*
X31472142Y-11308628D02*
X31853094Y-11308628D01*
X30329285Y-11784819D02*
X30900713Y-11784819D01*
X30614999Y-11784819D02*
X30614999Y-10784819D01*
X30614999Y-10784819D02*
X30710237Y-10927676D01*
X30710237Y-10927676D02*
X30805475Y-11022914D01*
X30805475Y-11022914D02*
X30900713Y-11070533D01*
X8262857Y-64654580D02*
X8310476Y-64702200D01*
X8310476Y-64702200D02*
X8453333Y-64749819D01*
X8453333Y-64749819D02*
X8548571Y-64749819D01*
X8548571Y-64749819D02*
X8691428Y-64702200D01*
X8691428Y-64702200D02*
X8786666Y-64606961D01*
X8786666Y-64606961D02*
X8834285Y-64511723D01*
X8834285Y-64511723D02*
X8881904Y-64321247D01*
X8881904Y-64321247D02*
X8881904Y-64178390D01*
X8881904Y-64178390D02*
X8834285Y-63987914D01*
X8834285Y-63987914D02*
X8786666Y-63892676D01*
X8786666Y-63892676D02*
X8691428Y-63797438D01*
X8691428Y-63797438D02*
X8548571Y-63749819D01*
X8548571Y-63749819D02*
X8453333Y-63749819D01*
X8453333Y-63749819D02*
X8310476Y-63797438D01*
X8310476Y-63797438D02*
X8262857Y-63845057D01*
X7310476Y-64749819D02*
X7881904Y-64749819D01*
X7596190Y-64749819D02*
X7596190Y-63749819D01*
X7596190Y-63749819D02*
X7691428Y-63892676D01*
X7691428Y-63892676D02*
X7786666Y-63987914D01*
X7786666Y-63987914D02*
X7881904Y-64035533D01*
X6453333Y-64083152D02*
X6453333Y-64749819D01*
X6691428Y-63702200D02*
X6929523Y-64416485D01*
X6929523Y-64416485D02*
X6310476Y-64416485D01*
X28741666Y-96874819D02*
X29074999Y-96398628D01*
X29313094Y-96874819D02*
X29313094Y-95874819D01*
X29313094Y-95874819D02*
X28932142Y-95874819D01*
X28932142Y-95874819D02*
X28836904Y-95922438D01*
X28836904Y-95922438D02*
X28789285Y-95970057D01*
X28789285Y-95970057D02*
X28741666Y-96065295D01*
X28741666Y-96065295D02*
X28741666Y-96208152D01*
X28741666Y-96208152D02*
X28789285Y-96303390D01*
X28789285Y-96303390D02*
X28836904Y-96351009D01*
X28836904Y-96351009D02*
X28932142Y-96398628D01*
X28932142Y-96398628D02*
X29313094Y-96398628D01*
X28170237Y-96303390D02*
X28265475Y-96255771D01*
X28265475Y-96255771D02*
X28313094Y-96208152D01*
X28313094Y-96208152D02*
X28360713Y-96112914D01*
X28360713Y-96112914D02*
X28360713Y-96065295D01*
X28360713Y-96065295D02*
X28313094Y-95970057D01*
X28313094Y-95970057D02*
X28265475Y-95922438D01*
X28265475Y-95922438D02*
X28170237Y-95874819D01*
X28170237Y-95874819D02*
X27979761Y-95874819D01*
X27979761Y-95874819D02*
X27884523Y-95922438D01*
X27884523Y-95922438D02*
X27836904Y-95970057D01*
X27836904Y-95970057D02*
X27789285Y-96065295D01*
X27789285Y-96065295D02*
X27789285Y-96112914D01*
X27789285Y-96112914D02*
X27836904Y-96208152D01*
X27836904Y-96208152D02*
X27884523Y-96255771D01*
X27884523Y-96255771D02*
X27979761Y-96303390D01*
X27979761Y-96303390D02*
X28170237Y-96303390D01*
X28170237Y-96303390D02*
X28265475Y-96351009D01*
X28265475Y-96351009D02*
X28313094Y-96398628D01*
X28313094Y-96398628D02*
X28360713Y-96493866D01*
X28360713Y-96493866D02*
X28360713Y-96684342D01*
X28360713Y-96684342D02*
X28313094Y-96779580D01*
X28313094Y-96779580D02*
X28265475Y-96827200D01*
X28265475Y-96827200D02*
X28170237Y-96874819D01*
X28170237Y-96874819D02*
X27979761Y-96874819D01*
X27979761Y-96874819D02*
X27884523Y-96827200D01*
X27884523Y-96827200D02*
X27836904Y-96779580D01*
X27836904Y-96779580D02*
X27789285Y-96684342D01*
X27789285Y-96684342D02*
X27789285Y-96493866D01*
X27789285Y-96493866D02*
X27836904Y-96398628D01*
X27836904Y-96398628D02*
X27884523Y-96351009D01*
X27884523Y-96351009D02*
X27979761Y-96303390D01*
X12072857Y-91794819D02*
X12406190Y-91318628D01*
X12644285Y-91794819D02*
X12644285Y-90794819D01*
X12644285Y-90794819D02*
X12263333Y-90794819D01*
X12263333Y-90794819D02*
X12168095Y-90842438D01*
X12168095Y-90842438D02*
X12120476Y-90890057D01*
X12120476Y-90890057D02*
X12072857Y-90985295D01*
X12072857Y-90985295D02*
X12072857Y-91128152D01*
X12072857Y-91128152D02*
X12120476Y-91223390D01*
X12120476Y-91223390D02*
X12168095Y-91271009D01*
X12168095Y-91271009D02*
X12263333Y-91318628D01*
X12263333Y-91318628D02*
X12644285Y-91318628D01*
X11120476Y-91794819D02*
X11691904Y-91794819D01*
X11406190Y-91794819D02*
X11406190Y-90794819D01*
X11406190Y-90794819D02*
X11501428Y-90937676D01*
X11501428Y-90937676D02*
X11596666Y-91032914D01*
X11596666Y-91032914D02*
X11691904Y-91080533D01*
X10739523Y-90890057D02*
X10691904Y-90842438D01*
X10691904Y-90842438D02*
X10596666Y-90794819D01*
X10596666Y-90794819D02*
X10358571Y-90794819D01*
X10358571Y-90794819D02*
X10263333Y-90842438D01*
X10263333Y-90842438D02*
X10215714Y-90890057D01*
X10215714Y-90890057D02*
X10168095Y-90985295D01*
X10168095Y-90985295D02*
X10168095Y-91080533D01*
X10168095Y-91080533D02*
X10215714Y-91223390D01*
X10215714Y-91223390D02*
X10787142Y-91794819D01*
X10787142Y-91794819D02*
X10168095Y-91794819D01*
X3976666Y-91054580D02*
X4024285Y-91102200D01*
X4024285Y-91102200D02*
X4167142Y-91149819D01*
X4167142Y-91149819D02*
X4262380Y-91149819D01*
X4262380Y-91149819D02*
X4405237Y-91102200D01*
X4405237Y-91102200D02*
X4500475Y-91006961D01*
X4500475Y-91006961D02*
X4548094Y-90911723D01*
X4548094Y-90911723D02*
X4595713Y-90721247D01*
X4595713Y-90721247D02*
X4595713Y-90578390D01*
X4595713Y-90578390D02*
X4548094Y-90387914D01*
X4548094Y-90387914D02*
X4500475Y-90292676D01*
X4500475Y-90292676D02*
X4405237Y-90197438D01*
X4405237Y-90197438D02*
X4262380Y-90149819D01*
X4262380Y-90149819D02*
X4167142Y-90149819D01*
X4167142Y-90149819D02*
X4024285Y-90197438D01*
X4024285Y-90197438D02*
X3976666Y-90245057D01*
X3119523Y-90149819D02*
X3309999Y-90149819D01*
X3309999Y-90149819D02*
X3405237Y-90197438D01*
X3405237Y-90197438D02*
X3452856Y-90245057D01*
X3452856Y-90245057D02*
X3548094Y-90387914D01*
X3548094Y-90387914D02*
X3595713Y-90578390D01*
X3595713Y-90578390D02*
X3595713Y-90959342D01*
X3595713Y-90959342D02*
X3548094Y-91054580D01*
X3548094Y-91054580D02*
X3500475Y-91102200D01*
X3500475Y-91102200D02*
X3405237Y-91149819D01*
X3405237Y-91149819D02*
X3214761Y-91149819D01*
X3214761Y-91149819D02*
X3119523Y-91102200D01*
X3119523Y-91102200D02*
X3071904Y-91054580D01*
X3071904Y-91054580D02*
X3024285Y-90959342D01*
X3024285Y-90959342D02*
X3024285Y-90721247D01*
X3024285Y-90721247D02*
X3071904Y-90626009D01*
X3071904Y-90626009D02*
X3119523Y-90578390D01*
X3119523Y-90578390D02*
X3214761Y-90530771D01*
X3214761Y-90530771D02*
X3405237Y-90530771D01*
X3405237Y-90530771D02*
X3500475Y-90578390D01*
X3500475Y-90578390D02*
X3548094Y-90626009D01*
X3548094Y-90626009D02*
X3595713Y-90721247D01*
X8381904Y-90304819D02*
X8381904Y-91114342D01*
X8381904Y-91114342D02*
X8334285Y-91209580D01*
X8334285Y-91209580D02*
X8286666Y-91257200D01*
X8286666Y-91257200D02*
X8191428Y-91304819D01*
X8191428Y-91304819D02*
X8000952Y-91304819D01*
X8000952Y-91304819D02*
X7905714Y-91257200D01*
X7905714Y-91257200D02*
X7858095Y-91209580D01*
X7858095Y-91209580D02*
X7810476Y-91114342D01*
X7810476Y-91114342D02*
X7810476Y-90304819D01*
X6905714Y-90638152D02*
X6905714Y-91304819D01*
X7143809Y-90257200D02*
X7381904Y-90971485D01*
X7381904Y-90971485D02*
X6762857Y-90971485D01*
X14136666Y-68474819D02*
X14612856Y-68474819D01*
X14612856Y-68474819D02*
X14612856Y-67474819D01*
X13850951Y-67570057D02*
X13803332Y-67522438D01*
X13803332Y-67522438D02*
X13708094Y-67474819D01*
X13708094Y-67474819D02*
X13469999Y-67474819D01*
X13469999Y-67474819D02*
X13374761Y-67522438D01*
X13374761Y-67522438D02*
X13327142Y-67570057D01*
X13327142Y-67570057D02*
X13279523Y-67665295D01*
X13279523Y-67665295D02*
X13279523Y-67760533D01*
X13279523Y-67760533D02*
X13327142Y-67903390D01*
X13327142Y-67903390D02*
X13898570Y-68474819D01*
X13898570Y-68474819D02*
X13279523Y-68474819D01*
X8985238Y-73470057D02*
X9080476Y-73422438D01*
X9080476Y-73422438D02*
X9175714Y-73327200D01*
X9175714Y-73327200D02*
X9318571Y-73184342D01*
X9318571Y-73184342D02*
X9413809Y-73136723D01*
X9413809Y-73136723D02*
X9509047Y-73136723D01*
X9461428Y-73374819D02*
X9556666Y-73327200D01*
X9556666Y-73327200D02*
X9651904Y-73231961D01*
X9651904Y-73231961D02*
X9699523Y-73041485D01*
X9699523Y-73041485D02*
X9699523Y-72708152D01*
X9699523Y-72708152D02*
X9651904Y-72517676D01*
X9651904Y-72517676D02*
X9556666Y-72422438D01*
X9556666Y-72422438D02*
X9461428Y-72374819D01*
X9461428Y-72374819D02*
X9270952Y-72374819D01*
X9270952Y-72374819D02*
X9175714Y-72422438D01*
X9175714Y-72422438D02*
X9080476Y-72517676D01*
X9080476Y-72517676D02*
X9032857Y-72708152D01*
X9032857Y-72708152D02*
X9032857Y-73041485D01*
X9032857Y-73041485D02*
X9080476Y-73231961D01*
X9080476Y-73231961D02*
X9175714Y-73327200D01*
X9175714Y-73327200D02*
X9270952Y-73374819D01*
X9270952Y-73374819D02*
X9461428Y-73374819D01*
X8080476Y-73374819D02*
X8651904Y-73374819D01*
X8366190Y-73374819D02*
X8366190Y-72374819D01*
X8366190Y-72374819D02*
X8461428Y-72517676D01*
X8461428Y-72517676D02*
X8556666Y-72612914D01*
X8556666Y-72612914D02*
X8651904Y-72660533D01*
X29217857Y-94334819D02*
X29551190Y-93858628D01*
X29789285Y-94334819D02*
X29789285Y-93334819D01*
X29789285Y-93334819D02*
X29408333Y-93334819D01*
X29408333Y-93334819D02*
X29313095Y-93382438D01*
X29313095Y-93382438D02*
X29265476Y-93430057D01*
X29265476Y-93430057D02*
X29217857Y-93525295D01*
X29217857Y-93525295D02*
X29217857Y-93668152D01*
X29217857Y-93668152D02*
X29265476Y-93763390D01*
X29265476Y-93763390D02*
X29313095Y-93811009D01*
X29313095Y-93811009D02*
X29408333Y-93858628D01*
X29408333Y-93858628D02*
X29789285Y-93858628D01*
X28265476Y-94334819D02*
X28836904Y-94334819D01*
X28551190Y-94334819D02*
X28551190Y-93334819D01*
X28551190Y-93334819D02*
X28646428Y-93477676D01*
X28646428Y-93477676D02*
X28741666Y-93572914D01*
X28741666Y-93572914D02*
X28836904Y-93620533D01*
X27646428Y-93334819D02*
X27551190Y-93334819D01*
X27551190Y-93334819D02*
X27455952Y-93382438D01*
X27455952Y-93382438D02*
X27408333Y-93430057D01*
X27408333Y-93430057D02*
X27360714Y-93525295D01*
X27360714Y-93525295D02*
X27313095Y-93715771D01*
X27313095Y-93715771D02*
X27313095Y-93953866D01*
X27313095Y-93953866D02*
X27360714Y-94144342D01*
X27360714Y-94144342D02*
X27408333Y-94239580D01*
X27408333Y-94239580D02*
X27455952Y-94287200D01*
X27455952Y-94287200D02*
X27551190Y-94334819D01*
X27551190Y-94334819D02*
X27646428Y-94334819D01*
X27646428Y-94334819D02*
X27741666Y-94287200D01*
X27741666Y-94287200D02*
X27789285Y-94239580D01*
X27789285Y-94239580D02*
X27836904Y-94144342D01*
X27836904Y-94144342D02*
X27884523Y-93953866D01*
X27884523Y-93953866D02*
X27884523Y-93715771D01*
X27884523Y-93715771D02*
X27836904Y-93525295D01*
X27836904Y-93525295D02*
X27789285Y-93430057D01*
X27789285Y-93430057D02*
X27741666Y-93382438D01*
X27741666Y-93382438D02*
X27646428Y-93334819D01*
X62459523Y-5057200D02*
X62316666Y-5104819D01*
X62316666Y-5104819D02*
X62078571Y-5104819D01*
X62078571Y-5104819D02*
X61983333Y-5057200D01*
X61983333Y-5057200D02*
X61935714Y-5009580D01*
X61935714Y-5009580D02*
X61888095Y-4914342D01*
X61888095Y-4914342D02*
X61888095Y-4819104D01*
X61888095Y-4819104D02*
X61935714Y-4723866D01*
X61935714Y-4723866D02*
X61983333Y-4676247D01*
X61983333Y-4676247D02*
X62078571Y-4628628D01*
X62078571Y-4628628D02*
X62269047Y-4581009D01*
X62269047Y-4581009D02*
X62364285Y-4533390D01*
X62364285Y-4533390D02*
X62411904Y-4485771D01*
X62411904Y-4485771D02*
X62459523Y-4390533D01*
X62459523Y-4390533D02*
X62459523Y-4295295D01*
X62459523Y-4295295D02*
X62411904Y-4200057D01*
X62411904Y-4200057D02*
X62364285Y-4152438D01*
X62364285Y-4152438D02*
X62269047Y-4104819D01*
X62269047Y-4104819D02*
X62030952Y-4104819D01*
X62030952Y-4104819D02*
X61888095Y-4152438D01*
X61554761Y-4104819D02*
X61316666Y-5104819D01*
X61316666Y-5104819D02*
X61126190Y-4390533D01*
X61126190Y-4390533D02*
X60935714Y-5104819D01*
X60935714Y-5104819D02*
X60697619Y-4104819D01*
X59888095Y-4438152D02*
X59888095Y-5104819D01*
X60126190Y-4057200D02*
X60364285Y-4771485D01*
X60364285Y-4771485D02*
X59745238Y-4771485D01*
X59173809Y-4104819D02*
X59078571Y-4104819D01*
X59078571Y-4104819D02*
X58983333Y-4152438D01*
X58983333Y-4152438D02*
X58935714Y-4200057D01*
X58935714Y-4200057D02*
X58888095Y-4295295D01*
X58888095Y-4295295D02*
X58840476Y-4485771D01*
X58840476Y-4485771D02*
X58840476Y-4723866D01*
X58840476Y-4723866D02*
X58888095Y-4914342D01*
X58888095Y-4914342D02*
X58935714Y-5009580D01*
X58935714Y-5009580D02*
X58983333Y-5057200D01*
X58983333Y-5057200D02*
X59078571Y-5104819D01*
X59078571Y-5104819D02*
X59173809Y-5104819D01*
X59173809Y-5104819D02*
X59269047Y-5057200D01*
X59269047Y-5057200D02*
X59316666Y-5009580D01*
X59316666Y-5009580D02*
X59364285Y-4914342D01*
X59364285Y-4914342D02*
X59411904Y-4723866D01*
X59411904Y-4723866D02*
X59411904Y-4485771D01*
X59411904Y-4485771D02*
X59364285Y-4295295D01*
X59364285Y-4295295D02*
X59316666Y-4200057D01*
X59316666Y-4200057D02*
X59269047Y-4152438D01*
X59269047Y-4152438D02*
X59173809Y-4104819D01*
X52538094Y-137627819D02*
X51966666Y-137627819D01*
X52252380Y-138627819D02*
X52252380Y-137627819D01*
X51633332Y-138627819D02*
X51633332Y-137627819D01*
X51633332Y-137627819D02*
X51252380Y-137627819D01*
X51252380Y-137627819D02*
X51157142Y-137675438D01*
X51157142Y-137675438D02*
X51109523Y-137723057D01*
X51109523Y-137723057D02*
X51061904Y-137818295D01*
X51061904Y-137818295D02*
X51061904Y-137961152D01*
X51061904Y-137961152D02*
X51109523Y-138056390D01*
X51109523Y-138056390D02*
X51157142Y-138104009D01*
X51157142Y-138104009D02*
X51252380Y-138151628D01*
X51252380Y-138151628D02*
X51633332Y-138151628D01*
X50109523Y-138627819D02*
X50680951Y-138627819D01*
X50395237Y-138627819D02*
X50395237Y-137627819D01*
X50395237Y-137627819D02*
X50490475Y-137770676D01*
X50490475Y-137770676D02*
X50585713Y-137865914D01*
X50585713Y-137865914D02*
X50680951Y-137913533D01*
X49490475Y-137627819D02*
X49395237Y-137627819D01*
X49395237Y-137627819D02*
X49299999Y-137675438D01*
X49299999Y-137675438D02*
X49252380Y-137723057D01*
X49252380Y-137723057D02*
X49204761Y-137818295D01*
X49204761Y-137818295D02*
X49157142Y-138008771D01*
X49157142Y-138008771D02*
X49157142Y-138246866D01*
X49157142Y-138246866D02*
X49204761Y-138437342D01*
X49204761Y-138437342D02*
X49252380Y-138532580D01*
X49252380Y-138532580D02*
X49299999Y-138580200D01*
X49299999Y-138580200D02*
X49395237Y-138627819D01*
X49395237Y-138627819D02*
X49490475Y-138627819D01*
X49490475Y-138627819D02*
X49585713Y-138580200D01*
X49585713Y-138580200D02*
X49633332Y-138532580D01*
X49633332Y-138532580D02*
X49680951Y-138437342D01*
X49680951Y-138437342D02*
X49728570Y-138246866D01*
X49728570Y-138246866D02*
X49728570Y-138008771D01*
X49728570Y-138008771D02*
X49680951Y-137818295D01*
X49680951Y-137818295D02*
X49633332Y-137723057D01*
X49633332Y-137723057D02*
X49585713Y-137675438D01*
X49585713Y-137675438D02*
X49490475Y-137627819D01*
X3817857Y-62114580D02*
X3865476Y-62162200D01*
X3865476Y-62162200D02*
X4008333Y-62209819D01*
X4008333Y-62209819D02*
X4103571Y-62209819D01*
X4103571Y-62209819D02*
X4246428Y-62162200D01*
X4246428Y-62162200D02*
X4341666Y-62066961D01*
X4341666Y-62066961D02*
X4389285Y-61971723D01*
X4389285Y-61971723D02*
X4436904Y-61781247D01*
X4436904Y-61781247D02*
X4436904Y-61638390D01*
X4436904Y-61638390D02*
X4389285Y-61447914D01*
X4389285Y-61447914D02*
X4341666Y-61352676D01*
X4341666Y-61352676D02*
X4246428Y-61257438D01*
X4246428Y-61257438D02*
X4103571Y-61209819D01*
X4103571Y-61209819D02*
X4008333Y-61209819D01*
X4008333Y-61209819D02*
X3865476Y-61257438D01*
X3865476Y-61257438D02*
X3817857Y-61305057D01*
X2865476Y-62209819D02*
X3436904Y-62209819D01*
X3151190Y-62209819D02*
X3151190Y-61209819D01*
X3151190Y-61209819D02*
X3246428Y-61352676D01*
X3246428Y-61352676D02*
X3341666Y-61447914D01*
X3341666Y-61447914D02*
X3436904Y-61495533D01*
X2246428Y-61209819D02*
X2151190Y-61209819D01*
X2151190Y-61209819D02*
X2055952Y-61257438D01*
X2055952Y-61257438D02*
X2008333Y-61305057D01*
X2008333Y-61305057D02*
X1960714Y-61400295D01*
X1960714Y-61400295D02*
X1913095Y-61590771D01*
X1913095Y-61590771D02*
X1913095Y-61828866D01*
X1913095Y-61828866D02*
X1960714Y-62019342D01*
X1960714Y-62019342D02*
X2008333Y-62114580D01*
X2008333Y-62114580D02*
X2055952Y-62162200D01*
X2055952Y-62162200D02*
X2151190Y-62209819D01*
X2151190Y-62209819D02*
X2246428Y-62209819D01*
X2246428Y-62209819D02*
X2341666Y-62162200D01*
X2341666Y-62162200D02*
X2389285Y-62114580D01*
X2389285Y-62114580D02*
X2436904Y-62019342D01*
X2436904Y-62019342D02*
X2484523Y-61828866D01*
X2484523Y-61828866D02*
X2484523Y-61590771D01*
X2484523Y-61590771D02*
X2436904Y-61400295D01*
X2436904Y-61400295D02*
X2389285Y-61305057D01*
X2389285Y-61305057D02*
X2341666Y-61257438D01*
X2341666Y-61257438D02*
X2246428Y-61209819D01*
X37666666Y-8520180D02*
X37666666Y-7805895D01*
X37666666Y-7805895D02*
X37619047Y-7663038D01*
X37619047Y-7663038D02*
X37523809Y-7567800D01*
X37523809Y-7567800D02*
X37380952Y-7520180D01*
X37380952Y-7520180D02*
X37285714Y-7520180D01*
X38666666Y-7520180D02*
X38095238Y-7520180D01*
X38380952Y-7520180D02*
X38380952Y-8520180D01*
X38380952Y-8520180D02*
X38285714Y-8377323D01*
X38285714Y-8377323D02*
X38190476Y-8282085D01*
X38190476Y-8282085D02*
X38095238Y-8234466D01*
X12707857Y-64654580D02*
X12755476Y-64702200D01*
X12755476Y-64702200D02*
X12898333Y-64749819D01*
X12898333Y-64749819D02*
X12993571Y-64749819D01*
X12993571Y-64749819D02*
X13136428Y-64702200D01*
X13136428Y-64702200D02*
X13231666Y-64606961D01*
X13231666Y-64606961D02*
X13279285Y-64511723D01*
X13279285Y-64511723D02*
X13326904Y-64321247D01*
X13326904Y-64321247D02*
X13326904Y-64178390D01*
X13326904Y-64178390D02*
X13279285Y-63987914D01*
X13279285Y-63987914D02*
X13231666Y-63892676D01*
X13231666Y-63892676D02*
X13136428Y-63797438D01*
X13136428Y-63797438D02*
X12993571Y-63749819D01*
X12993571Y-63749819D02*
X12898333Y-63749819D01*
X12898333Y-63749819D02*
X12755476Y-63797438D01*
X12755476Y-63797438D02*
X12707857Y-63845057D01*
X11755476Y-64749819D02*
X12326904Y-64749819D01*
X12041190Y-64749819D02*
X12041190Y-63749819D01*
X12041190Y-63749819D02*
X12136428Y-63892676D01*
X12136428Y-63892676D02*
X12231666Y-63987914D01*
X12231666Y-63987914D02*
X12326904Y-64035533D01*
X10850714Y-63749819D02*
X11326904Y-63749819D01*
X11326904Y-63749819D02*
X11374523Y-64226009D01*
X11374523Y-64226009D02*
X11326904Y-64178390D01*
X11326904Y-64178390D02*
X11231666Y-64130771D01*
X11231666Y-64130771D02*
X10993571Y-64130771D01*
X10993571Y-64130771D02*
X10898333Y-64178390D01*
X10898333Y-64178390D02*
X10850714Y-64226009D01*
X10850714Y-64226009D02*
X10803095Y-64321247D01*
X10803095Y-64321247D02*
X10803095Y-64559342D01*
X10803095Y-64559342D02*
X10850714Y-64654580D01*
X10850714Y-64654580D02*
X10898333Y-64702200D01*
X10898333Y-64702200D02*
X10993571Y-64749819D01*
X10993571Y-64749819D02*
X11231666Y-64749819D01*
X11231666Y-64749819D02*
X11326904Y-64702200D01*
X11326904Y-64702200D02*
X11374523Y-64654580D01*
X49521904Y-131912819D02*
X48950476Y-131912819D01*
X49236190Y-132912819D02*
X49236190Y-131912819D01*
X48617142Y-132912819D02*
X48617142Y-131912819D01*
X48617142Y-131912819D02*
X48236190Y-131912819D01*
X48236190Y-131912819D02*
X48140952Y-131960438D01*
X48140952Y-131960438D02*
X48093333Y-132008057D01*
X48093333Y-132008057D02*
X48045714Y-132103295D01*
X48045714Y-132103295D02*
X48045714Y-132246152D01*
X48045714Y-132246152D02*
X48093333Y-132341390D01*
X48093333Y-132341390D02*
X48140952Y-132389009D01*
X48140952Y-132389009D02*
X48236190Y-132436628D01*
X48236190Y-132436628D02*
X48617142Y-132436628D01*
X47474285Y-132341390D02*
X47569523Y-132293771D01*
X47569523Y-132293771D02*
X47617142Y-132246152D01*
X47617142Y-132246152D02*
X47664761Y-132150914D01*
X47664761Y-132150914D02*
X47664761Y-132103295D01*
X47664761Y-132103295D02*
X47617142Y-132008057D01*
X47617142Y-132008057D02*
X47569523Y-131960438D01*
X47569523Y-131960438D02*
X47474285Y-131912819D01*
X47474285Y-131912819D02*
X47283809Y-131912819D01*
X47283809Y-131912819D02*
X47188571Y-131960438D01*
X47188571Y-131960438D02*
X47140952Y-132008057D01*
X47140952Y-132008057D02*
X47093333Y-132103295D01*
X47093333Y-132103295D02*
X47093333Y-132150914D01*
X47093333Y-132150914D02*
X47140952Y-132246152D01*
X47140952Y-132246152D02*
X47188571Y-132293771D01*
X47188571Y-132293771D02*
X47283809Y-132341390D01*
X47283809Y-132341390D02*
X47474285Y-132341390D01*
X47474285Y-132341390D02*
X47569523Y-132389009D01*
X47569523Y-132389009D02*
X47617142Y-132436628D01*
X47617142Y-132436628D02*
X47664761Y-132531866D01*
X47664761Y-132531866D02*
X47664761Y-132722342D01*
X47664761Y-132722342D02*
X47617142Y-132817580D01*
X47617142Y-132817580D02*
X47569523Y-132865200D01*
X47569523Y-132865200D02*
X47474285Y-132912819D01*
X47474285Y-132912819D02*
X47283809Y-132912819D01*
X47283809Y-132912819D02*
X47188571Y-132865200D01*
X47188571Y-132865200D02*
X47140952Y-132817580D01*
X47140952Y-132817580D02*
X47093333Y-132722342D01*
X47093333Y-132722342D02*
X47093333Y-132531866D01*
X47093333Y-132531866D02*
X47140952Y-132436628D01*
X47140952Y-132436628D02*
X47188571Y-132389009D01*
X47188571Y-132389009D02*
X47283809Y-132341390D01*
X5722857Y-74649819D02*
X6056190Y-74173628D01*
X6294285Y-74649819D02*
X6294285Y-73649819D01*
X6294285Y-73649819D02*
X5913333Y-73649819D01*
X5913333Y-73649819D02*
X5818095Y-73697438D01*
X5818095Y-73697438D02*
X5770476Y-73745057D01*
X5770476Y-73745057D02*
X5722857Y-73840295D01*
X5722857Y-73840295D02*
X5722857Y-73983152D01*
X5722857Y-73983152D02*
X5770476Y-74078390D01*
X5770476Y-74078390D02*
X5818095Y-74126009D01*
X5818095Y-74126009D02*
X5913333Y-74173628D01*
X5913333Y-74173628D02*
X6294285Y-74173628D01*
X4770476Y-74649819D02*
X5341904Y-74649819D01*
X5056190Y-74649819D02*
X5056190Y-73649819D01*
X5056190Y-73649819D02*
X5151428Y-73792676D01*
X5151428Y-73792676D02*
X5246666Y-73887914D01*
X5246666Y-73887914D02*
X5341904Y-73935533D01*
X3865714Y-73649819D02*
X4341904Y-73649819D01*
X4341904Y-73649819D02*
X4389523Y-74126009D01*
X4389523Y-74126009D02*
X4341904Y-74078390D01*
X4341904Y-74078390D02*
X4246666Y-74030771D01*
X4246666Y-74030771D02*
X4008571Y-74030771D01*
X4008571Y-74030771D02*
X3913333Y-74078390D01*
X3913333Y-74078390D02*
X3865714Y-74126009D01*
X3865714Y-74126009D02*
X3818095Y-74221247D01*
X3818095Y-74221247D02*
X3818095Y-74459342D01*
X3818095Y-74459342D02*
X3865714Y-74554580D01*
X3865714Y-74554580D02*
X3913333Y-74602200D01*
X3913333Y-74602200D02*
X4008571Y-74649819D01*
X4008571Y-74649819D02*
X4246666Y-74649819D01*
X4246666Y-74649819D02*
X4341904Y-74602200D01*
X4341904Y-74602200D02*
X4389523Y-74554580D01*
X36996666Y-94229580D02*
X37044285Y-94277200D01*
X37044285Y-94277200D02*
X37187142Y-94324819D01*
X37187142Y-94324819D02*
X37282380Y-94324819D01*
X37282380Y-94324819D02*
X37425237Y-94277200D01*
X37425237Y-94277200D02*
X37520475Y-94181961D01*
X37520475Y-94181961D02*
X37568094Y-94086723D01*
X37568094Y-94086723D02*
X37615713Y-93896247D01*
X37615713Y-93896247D02*
X37615713Y-93753390D01*
X37615713Y-93753390D02*
X37568094Y-93562914D01*
X37568094Y-93562914D02*
X37520475Y-93467676D01*
X37520475Y-93467676D02*
X37425237Y-93372438D01*
X37425237Y-93372438D02*
X37282380Y-93324819D01*
X37282380Y-93324819D02*
X37187142Y-93324819D01*
X37187142Y-93324819D02*
X37044285Y-93372438D01*
X37044285Y-93372438D02*
X36996666Y-93420057D01*
X36091904Y-93324819D02*
X36568094Y-93324819D01*
X36568094Y-93324819D02*
X36615713Y-93801009D01*
X36615713Y-93801009D02*
X36568094Y-93753390D01*
X36568094Y-93753390D02*
X36472856Y-93705771D01*
X36472856Y-93705771D02*
X36234761Y-93705771D01*
X36234761Y-93705771D02*
X36139523Y-93753390D01*
X36139523Y-93753390D02*
X36091904Y-93801009D01*
X36091904Y-93801009D02*
X36044285Y-93896247D01*
X36044285Y-93896247D02*
X36044285Y-94134342D01*
X36044285Y-94134342D02*
X36091904Y-94229580D01*
X36091904Y-94229580D02*
X36139523Y-94277200D01*
X36139523Y-94277200D02*
X36234761Y-94324819D01*
X36234761Y-94324819D02*
X36472856Y-94324819D01*
X36472856Y-94324819D02*
X36568094Y-94277200D01*
X36568094Y-94277200D02*
X36615713Y-94229580D01*
X19692857Y-81164580D02*
X19740476Y-81212200D01*
X19740476Y-81212200D02*
X19883333Y-81259819D01*
X19883333Y-81259819D02*
X19978571Y-81259819D01*
X19978571Y-81259819D02*
X20121428Y-81212200D01*
X20121428Y-81212200D02*
X20216666Y-81116961D01*
X20216666Y-81116961D02*
X20264285Y-81021723D01*
X20264285Y-81021723D02*
X20311904Y-80831247D01*
X20311904Y-80831247D02*
X20311904Y-80688390D01*
X20311904Y-80688390D02*
X20264285Y-80497914D01*
X20264285Y-80497914D02*
X20216666Y-80402676D01*
X20216666Y-80402676D02*
X20121428Y-80307438D01*
X20121428Y-80307438D02*
X19978571Y-80259819D01*
X19978571Y-80259819D02*
X19883333Y-80259819D01*
X19883333Y-80259819D02*
X19740476Y-80307438D01*
X19740476Y-80307438D02*
X19692857Y-80355057D01*
X18740476Y-81259819D02*
X19311904Y-81259819D01*
X19026190Y-81259819D02*
X19026190Y-80259819D01*
X19026190Y-80259819D02*
X19121428Y-80402676D01*
X19121428Y-80402676D02*
X19216666Y-80497914D01*
X19216666Y-80497914D02*
X19311904Y-80545533D01*
X18264285Y-81259819D02*
X18073809Y-81259819D01*
X18073809Y-81259819D02*
X17978571Y-81212200D01*
X17978571Y-81212200D02*
X17930952Y-81164580D01*
X17930952Y-81164580D02*
X17835714Y-81021723D01*
X17835714Y-81021723D02*
X17788095Y-80831247D01*
X17788095Y-80831247D02*
X17788095Y-80450295D01*
X17788095Y-80450295D02*
X17835714Y-80355057D01*
X17835714Y-80355057D02*
X17883333Y-80307438D01*
X17883333Y-80307438D02*
X17978571Y-80259819D01*
X17978571Y-80259819D02*
X18169047Y-80259819D01*
X18169047Y-80259819D02*
X18264285Y-80307438D01*
X18264285Y-80307438D02*
X18311904Y-80355057D01*
X18311904Y-80355057D02*
X18359523Y-80450295D01*
X18359523Y-80450295D02*
X18359523Y-80688390D01*
X18359523Y-80688390D02*
X18311904Y-80783628D01*
X18311904Y-80783628D02*
X18264285Y-80831247D01*
X18264285Y-80831247D02*
X18169047Y-80878866D01*
X18169047Y-80878866D02*
X17978571Y-80878866D01*
X17978571Y-80878866D02*
X17883333Y-80831247D01*
X17883333Y-80831247D02*
X17835714Y-80783628D01*
X17835714Y-80783628D02*
X17788095Y-80688390D01*
X48267857Y-135609819D02*
X48601190Y-135133628D01*
X48839285Y-135609819D02*
X48839285Y-134609819D01*
X48839285Y-134609819D02*
X48458333Y-134609819D01*
X48458333Y-134609819D02*
X48363095Y-134657438D01*
X48363095Y-134657438D02*
X48315476Y-134705057D01*
X48315476Y-134705057D02*
X48267857Y-134800295D01*
X48267857Y-134800295D02*
X48267857Y-134943152D01*
X48267857Y-134943152D02*
X48315476Y-135038390D01*
X48315476Y-135038390D02*
X48363095Y-135086009D01*
X48363095Y-135086009D02*
X48458333Y-135133628D01*
X48458333Y-135133628D02*
X48839285Y-135133628D01*
X47315476Y-135609819D02*
X47886904Y-135609819D01*
X47601190Y-135609819D02*
X47601190Y-134609819D01*
X47601190Y-134609819D02*
X47696428Y-134752676D01*
X47696428Y-134752676D02*
X47791666Y-134847914D01*
X47791666Y-134847914D02*
X47886904Y-134895533D01*
X46982142Y-134609819D02*
X46363095Y-134609819D01*
X46363095Y-134609819D02*
X46696428Y-134990771D01*
X46696428Y-134990771D02*
X46553571Y-134990771D01*
X46553571Y-134990771D02*
X46458333Y-135038390D01*
X46458333Y-135038390D02*
X46410714Y-135086009D01*
X46410714Y-135086009D02*
X46363095Y-135181247D01*
X46363095Y-135181247D02*
X46363095Y-135419342D01*
X46363095Y-135419342D02*
X46410714Y-135514580D01*
X46410714Y-135514580D02*
X46458333Y-135562200D01*
X46458333Y-135562200D02*
X46553571Y-135609819D01*
X46553571Y-135609819D02*
X46839285Y-135609819D01*
X46839285Y-135609819D02*
X46934523Y-135562200D01*
X46934523Y-135562200D02*
X46982142Y-135514580D01*
X25495238Y-11840057D02*
X25590476Y-11792438D01*
X25590476Y-11792438D02*
X25685714Y-11697200D01*
X25685714Y-11697200D02*
X25828571Y-11554342D01*
X25828571Y-11554342D02*
X25923809Y-11506723D01*
X25923809Y-11506723D02*
X26019047Y-11506723D01*
X25971428Y-11744819D02*
X26066666Y-11697200D01*
X26066666Y-11697200D02*
X26161904Y-11601961D01*
X26161904Y-11601961D02*
X26209523Y-11411485D01*
X26209523Y-11411485D02*
X26209523Y-11078152D01*
X26209523Y-11078152D02*
X26161904Y-10887676D01*
X26161904Y-10887676D02*
X26066666Y-10792438D01*
X26066666Y-10792438D02*
X25971428Y-10744819D01*
X25971428Y-10744819D02*
X25780952Y-10744819D01*
X25780952Y-10744819D02*
X25685714Y-10792438D01*
X25685714Y-10792438D02*
X25590476Y-10887676D01*
X25590476Y-10887676D02*
X25542857Y-11078152D01*
X25542857Y-11078152D02*
X25542857Y-11411485D01*
X25542857Y-11411485D02*
X25590476Y-11601961D01*
X25590476Y-11601961D02*
X25685714Y-11697200D01*
X25685714Y-11697200D02*
X25780952Y-11744819D01*
X25780952Y-11744819D02*
X25971428Y-11744819D01*
X25161904Y-10840057D02*
X25114285Y-10792438D01*
X25114285Y-10792438D02*
X25019047Y-10744819D01*
X25019047Y-10744819D02*
X24780952Y-10744819D01*
X24780952Y-10744819D02*
X24685714Y-10792438D01*
X24685714Y-10792438D02*
X24638095Y-10840057D01*
X24638095Y-10840057D02*
X24590476Y-10935295D01*
X24590476Y-10935295D02*
X24590476Y-11030533D01*
X24590476Y-11030533D02*
X24638095Y-11173390D01*
X24638095Y-11173390D02*
X25209523Y-11744819D01*
X25209523Y-11744819D02*
X24590476Y-11744819D01*
X51308094Y-4104819D02*
X51308094Y-3104819D01*
X51308094Y-3104819D02*
X51069999Y-3104819D01*
X51069999Y-3104819D02*
X50927142Y-3152438D01*
X50927142Y-3152438D02*
X50831904Y-3247676D01*
X50831904Y-3247676D02*
X50784285Y-3342914D01*
X50784285Y-3342914D02*
X50736666Y-3533390D01*
X50736666Y-3533390D02*
X50736666Y-3676247D01*
X50736666Y-3676247D02*
X50784285Y-3866723D01*
X50784285Y-3866723D02*
X50831904Y-3961961D01*
X50831904Y-3961961D02*
X50927142Y-4057200D01*
X50927142Y-4057200D02*
X51069999Y-4104819D01*
X51069999Y-4104819D02*
X51308094Y-4104819D01*
X49831904Y-3104819D02*
X50308094Y-3104819D01*
X50308094Y-3104819D02*
X50355713Y-3581009D01*
X50355713Y-3581009D02*
X50308094Y-3533390D01*
X50308094Y-3533390D02*
X50212856Y-3485771D01*
X50212856Y-3485771D02*
X49974761Y-3485771D01*
X49974761Y-3485771D02*
X49879523Y-3533390D01*
X49879523Y-3533390D02*
X49831904Y-3581009D01*
X49831904Y-3581009D02*
X49784285Y-3676247D01*
X49784285Y-3676247D02*
X49784285Y-3914342D01*
X49784285Y-3914342D02*
X49831904Y-4009580D01*
X49831904Y-4009580D02*
X49879523Y-4057200D01*
X49879523Y-4057200D02*
X49974761Y-4104819D01*
X49974761Y-4104819D02*
X50212856Y-4104819D01*
X50212856Y-4104819D02*
X50308094Y-4057200D01*
X50308094Y-4057200D02*
X50355713Y-4009580D01*
X28741666Y-91794819D02*
X29074999Y-91318628D01*
X29313094Y-91794819D02*
X29313094Y-90794819D01*
X29313094Y-90794819D02*
X28932142Y-90794819D01*
X28932142Y-90794819D02*
X28836904Y-90842438D01*
X28836904Y-90842438D02*
X28789285Y-90890057D01*
X28789285Y-90890057D02*
X28741666Y-90985295D01*
X28741666Y-90985295D02*
X28741666Y-91128152D01*
X28741666Y-91128152D02*
X28789285Y-91223390D01*
X28789285Y-91223390D02*
X28836904Y-91271009D01*
X28836904Y-91271009D02*
X28932142Y-91318628D01*
X28932142Y-91318628D02*
X29313094Y-91318628D01*
X28265475Y-91794819D02*
X28074999Y-91794819D01*
X28074999Y-91794819D02*
X27979761Y-91747200D01*
X27979761Y-91747200D02*
X27932142Y-91699580D01*
X27932142Y-91699580D02*
X27836904Y-91556723D01*
X27836904Y-91556723D02*
X27789285Y-91366247D01*
X27789285Y-91366247D02*
X27789285Y-90985295D01*
X27789285Y-90985295D02*
X27836904Y-90890057D01*
X27836904Y-90890057D02*
X27884523Y-90842438D01*
X27884523Y-90842438D02*
X27979761Y-90794819D01*
X27979761Y-90794819D02*
X28170237Y-90794819D01*
X28170237Y-90794819D02*
X28265475Y-90842438D01*
X28265475Y-90842438D02*
X28313094Y-90890057D01*
X28313094Y-90890057D02*
X28360713Y-90985295D01*
X28360713Y-90985295D02*
X28360713Y-91223390D01*
X28360713Y-91223390D02*
X28313094Y-91318628D01*
X28313094Y-91318628D02*
X28265475Y-91366247D01*
X28265475Y-91366247D02*
X28170237Y-91413866D01*
X28170237Y-91413866D02*
X27979761Y-91413866D01*
X27979761Y-91413866D02*
X27884523Y-91366247D01*
X27884523Y-91366247D02*
X27836904Y-91318628D01*
X27836904Y-91318628D02*
X27789285Y-91223390D01*
X33781904Y-73794819D02*
X33781904Y-74604342D01*
X33781904Y-74604342D02*
X33734285Y-74699580D01*
X33734285Y-74699580D02*
X33686666Y-74747200D01*
X33686666Y-74747200D02*
X33591428Y-74794819D01*
X33591428Y-74794819D02*
X33400952Y-74794819D01*
X33400952Y-74794819D02*
X33305714Y-74747200D01*
X33305714Y-74747200D02*
X33258095Y-74699580D01*
X33258095Y-74699580D02*
X33210476Y-74604342D01*
X33210476Y-74604342D02*
X33210476Y-73794819D01*
X32781904Y-73890057D02*
X32734285Y-73842438D01*
X32734285Y-73842438D02*
X32639047Y-73794819D01*
X32639047Y-73794819D02*
X32400952Y-73794819D01*
X32400952Y-73794819D02*
X32305714Y-73842438D01*
X32305714Y-73842438D02*
X32258095Y-73890057D01*
X32258095Y-73890057D02*
X32210476Y-73985295D01*
X32210476Y-73985295D02*
X32210476Y-74080533D01*
X32210476Y-74080533D02*
X32258095Y-74223390D01*
X32258095Y-74223390D02*
X32829523Y-74794819D01*
X32829523Y-74794819D02*
X32210476Y-74794819D01*
X49521904Y-129372819D02*
X48950476Y-129372819D01*
X49236190Y-130372819D02*
X49236190Y-129372819D01*
X48617142Y-130372819D02*
X48617142Y-129372819D01*
X48617142Y-129372819D02*
X48236190Y-129372819D01*
X48236190Y-129372819D02*
X48140952Y-129420438D01*
X48140952Y-129420438D02*
X48093333Y-129468057D01*
X48093333Y-129468057D02*
X48045714Y-129563295D01*
X48045714Y-129563295D02*
X48045714Y-129706152D01*
X48045714Y-129706152D02*
X48093333Y-129801390D01*
X48093333Y-129801390D02*
X48140952Y-129849009D01*
X48140952Y-129849009D02*
X48236190Y-129896628D01*
X48236190Y-129896628D02*
X48617142Y-129896628D01*
X47569523Y-130372819D02*
X47379047Y-130372819D01*
X47379047Y-130372819D02*
X47283809Y-130325200D01*
X47283809Y-130325200D02*
X47236190Y-130277580D01*
X47236190Y-130277580D02*
X47140952Y-130134723D01*
X47140952Y-130134723D02*
X47093333Y-129944247D01*
X47093333Y-129944247D02*
X47093333Y-129563295D01*
X47093333Y-129563295D02*
X47140952Y-129468057D01*
X47140952Y-129468057D02*
X47188571Y-129420438D01*
X47188571Y-129420438D02*
X47283809Y-129372819D01*
X47283809Y-129372819D02*
X47474285Y-129372819D01*
X47474285Y-129372819D02*
X47569523Y-129420438D01*
X47569523Y-129420438D02*
X47617142Y-129468057D01*
X47617142Y-129468057D02*
X47664761Y-129563295D01*
X47664761Y-129563295D02*
X47664761Y-129801390D01*
X47664761Y-129801390D02*
X47617142Y-129896628D01*
X47617142Y-129896628D02*
X47569523Y-129944247D01*
X47569523Y-129944247D02*
X47474285Y-129991866D01*
X47474285Y-129991866D02*
X47283809Y-129991866D01*
X47283809Y-129991866D02*
X47188571Y-129944247D01*
X47188571Y-129944247D02*
X47140952Y-129896628D01*
X47140952Y-129896628D02*
X47093333Y-129801390D01*
X51585714Y-58901009D02*
X51442857Y-58948628D01*
X51442857Y-58948628D02*
X51395238Y-58996247D01*
X51395238Y-58996247D02*
X51347619Y-59091485D01*
X51347619Y-59091485D02*
X51347619Y-59234342D01*
X51347619Y-59234342D02*
X51395238Y-59329580D01*
X51395238Y-59329580D02*
X51442857Y-59377200D01*
X51442857Y-59377200D02*
X51538095Y-59424819D01*
X51538095Y-59424819D02*
X51919047Y-59424819D01*
X51919047Y-59424819D02*
X51919047Y-58424819D01*
X51919047Y-58424819D02*
X51585714Y-58424819D01*
X51585714Y-58424819D02*
X51490476Y-58472438D01*
X51490476Y-58472438D02*
X51442857Y-58520057D01*
X51442857Y-58520057D02*
X51395238Y-58615295D01*
X51395238Y-58615295D02*
X51395238Y-58710533D01*
X51395238Y-58710533D02*
X51442857Y-58805771D01*
X51442857Y-58805771D02*
X51490476Y-58853390D01*
X51490476Y-58853390D02*
X51585714Y-58901009D01*
X51585714Y-58901009D02*
X51919047Y-58901009D01*
X51061904Y-58424819D02*
X50490476Y-58424819D01*
X50776190Y-59424819D02*
X50776190Y-58424819D01*
X49633333Y-59424819D02*
X50204761Y-59424819D01*
X49919047Y-59424819D02*
X49919047Y-58424819D01*
X49919047Y-58424819D02*
X50014285Y-58567676D01*
X50014285Y-58567676D02*
X50109523Y-58662914D01*
X50109523Y-58662914D02*
X50204761Y-58710533D01*
X28741666Y-76969580D02*
X28789285Y-77017200D01*
X28789285Y-77017200D02*
X28932142Y-77064819D01*
X28932142Y-77064819D02*
X29027380Y-77064819D01*
X29027380Y-77064819D02*
X29170237Y-77017200D01*
X29170237Y-77017200D02*
X29265475Y-76921961D01*
X29265475Y-76921961D02*
X29313094Y-76826723D01*
X29313094Y-76826723D02*
X29360713Y-76636247D01*
X29360713Y-76636247D02*
X29360713Y-76493390D01*
X29360713Y-76493390D02*
X29313094Y-76302914D01*
X29313094Y-76302914D02*
X29265475Y-76207676D01*
X29265475Y-76207676D02*
X29170237Y-76112438D01*
X29170237Y-76112438D02*
X29027380Y-76064819D01*
X29027380Y-76064819D02*
X28932142Y-76064819D01*
X28932142Y-76064819D02*
X28789285Y-76112438D01*
X28789285Y-76112438D02*
X28741666Y-76160057D01*
X28408332Y-76064819D02*
X27789285Y-76064819D01*
X27789285Y-76064819D02*
X28122618Y-76445771D01*
X28122618Y-76445771D02*
X27979761Y-76445771D01*
X27979761Y-76445771D02*
X27884523Y-76493390D01*
X27884523Y-76493390D02*
X27836904Y-76541009D01*
X27836904Y-76541009D02*
X27789285Y-76636247D01*
X27789285Y-76636247D02*
X27789285Y-76874342D01*
X27789285Y-76874342D02*
X27836904Y-76969580D01*
X27836904Y-76969580D02*
X27884523Y-77017200D01*
X27884523Y-77017200D02*
X27979761Y-77064819D01*
X27979761Y-77064819D02*
X28265475Y-77064819D01*
X28265475Y-77064819D02*
X28360713Y-77017200D01*
X28360713Y-77017200D02*
X28408332Y-76969580D01*
X73119523Y-5057200D02*
X72976666Y-5104819D01*
X72976666Y-5104819D02*
X72738571Y-5104819D01*
X72738571Y-5104819D02*
X72643333Y-5057200D01*
X72643333Y-5057200D02*
X72595714Y-5009580D01*
X72595714Y-5009580D02*
X72548095Y-4914342D01*
X72548095Y-4914342D02*
X72548095Y-4819104D01*
X72548095Y-4819104D02*
X72595714Y-4723866D01*
X72595714Y-4723866D02*
X72643333Y-4676247D01*
X72643333Y-4676247D02*
X72738571Y-4628628D01*
X72738571Y-4628628D02*
X72929047Y-4581009D01*
X72929047Y-4581009D02*
X73024285Y-4533390D01*
X73024285Y-4533390D02*
X73071904Y-4485771D01*
X73071904Y-4485771D02*
X73119523Y-4390533D01*
X73119523Y-4390533D02*
X73119523Y-4295295D01*
X73119523Y-4295295D02*
X73071904Y-4200057D01*
X73071904Y-4200057D02*
X73024285Y-4152438D01*
X73024285Y-4152438D02*
X72929047Y-4104819D01*
X72929047Y-4104819D02*
X72690952Y-4104819D01*
X72690952Y-4104819D02*
X72548095Y-4152438D01*
X72214761Y-4104819D02*
X71976666Y-5104819D01*
X71976666Y-5104819D02*
X71786190Y-4390533D01*
X71786190Y-4390533D02*
X71595714Y-5104819D01*
X71595714Y-5104819D02*
X71357619Y-4104819D01*
X71071904Y-4104819D02*
X70452857Y-4104819D01*
X70452857Y-4104819D02*
X70786190Y-4485771D01*
X70786190Y-4485771D02*
X70643333Y-4485771D01*
X70643333Y-4485771D02*
X70548095Y-4533390D01*
X70548095Y-4533390D02*
X70500476Y-4581009D01*
X70500476Y-4581009D02*
X70452857Y-4676247D01*
X70452857Y-4676247D02*
X70452857Y-4914342D01*
X70452857Y-4914342D02*
X70500476Y-5009580D01*
X70500476Y-5009580D02*
X70548095Y-5057200D01*
X70548095Y-5057200D02*
X70643333Y-5104819D01*
X70643333Y-5104819D02*
X70929047Y-5104819D01*
X70929047Y-5104819D02*
X71024285Y-5057200D01*
X71024285Y-5057200D02*
X71071904Y-5009580D01*
X69976666Y-5104819D02*
X69786190Y-5104819D01*
X69786190Y-5104819D02*
X69690952Y-5057200D01*
X69690952Y-5057200D02*
X69643333Y-5009580D01*
X69643333Y-5009580D02*
X69548095Y-4866723D01*
X69548095Y-4866723D02*
X69500476Y-4676247D01*
X69500476Y-4676247D02*
X69500476Y-4295295D01*
X69500476Y-4295295D02*
X69548095Y-4200057D01*
X69548095Y-4200057D02*
X69595714Y-4152438D01*
X69595714Y-4152438D02*
X69690952Y-4104819D01*
X69690952Y-4104819D02*
X69881428Y-4104819D01*
X69881428Y-4104819D02*
X69976666Y-4152438D01*
X69976666Y-4152438D02*
X70024285Y-4200057D01*
X70024285Y-4200057D02*
X70071904Y-4295295D01*
X70071904Y-4295295D02*
X70071904Y-4533390D01*
X70071904Y-4533390D02*
X70024285Y-4628628D01*
X70024285Y-4628628D02*
X69976666Y-4676247D01*
X69976666Y-4676247D02*
X69881428Y-4723866D01*
X69881428Y-4723866D02*
X69690952Y-4723866D01*
X69690952Y-4723866D02*
X69595714Y-4676247D01*
X69595714Y-4676247D02*
X69548095Y-4628628D01*
X69548095Y-4628628D02*
X69500476Y-4533390D01*
X38861904Y-11214819D02*
X38861904Y-12024342D01*
X38861904Y-12024342D02*
X38814285Y-12119580D01*
X38814285Y-12119580D02*
X38766666Y-12167200D01*
X38766666Y-12167200D02*
X38671428Y-12214819D01*
X38671428Y-12214819D02*
X38480952Y-12214819D01*
X38480952Y-12214819D02*
X38385714Y-12167200D01*
X38385714Y-12167200D02*
X38338095Y-12119580D01*
X38338095Y-12119580D02*
X38290476Y-12024342D01*
X38290476Y-12024342D02*
X38290476Y-11214819D01*
X37290476Y-12214819D02*
X37861904Y-12214819D01*
X37576190Y-12214819D02*
X37576190Y-11214819D01*
X37576190Y-11214819D02*
X37671428Y-11357676D01*
X37671428Y-11357676D02*
X37766666Y-11452914D01*
X37766666Y-11452914D02*
X37861904Y-11500533D01*
%TO.C,C1*%
D11*
X42404420Y-9650000D02*
X42685580Y-9650000D01*
X42404420Y-10670000D02*
X42685580Y-10670000D01*
%TO.C,R19*%
X51916359Y-4065000D02*
X52223641Y-4065000D01*
X51916359Y-4825000D02*
X52223641Y-4825000D01*
%TO.C,TP4*%
X51750000Y-86360000D02*
G75*
G02*
X49850000Y-86360000I-950000J0D01*
G01*
X49850000Y-86360000D02*
G75*
G02*
X51750000Y-86360000I950000J0D01*
G01*
%TO.C,C2*%
X28313748Y-71020000D02*
X28836252Y-71020000D01*
X28313748Y-72490000D02*
X28836252Y-72490000D01*
%TO.C,TP11*%
X28890000Y-132080000D02*
G75*
G02*
X26990000Y-132080000I-950000J0D01*
G01*
X26990000Y-132080000D02*
G75*
G02*
X28890000Y-132080000I950000J0D01*
G01*
%TO.C,R18*%
X20801359Y-8510000D02*
X21108641Y-8510000D01*
X20801359Y-9270000D02*
X21108641Y-9270000D01*
%TO.C,R2*%
X34136359Y-9780000D02*
X34443641Y-9780000D01*
X34136359Y-10540000D02*
X34443641Y-10540000D01*
%TO.C,D2*%
X3990000Y-78375000D02*
X8000000Y-78375000D01*
X3990000Y-80375000D02*
X3990000Y-78375000D01*
X3990000Y-80375000D02*
X8000000Y-80375000D01*
%TO.C,L3*%
X58715000Y-67650000D02*
X61935000Y-67650000D01*
X61935000Y-64430000D02*
X58715000Y-64430000D01*
%TO.C,TP5*%
X54290000Y-86360000D02*
G75*
G02*
X52390000Y-86360000I-950000J0D01*
G01*
X52390000Y-86360000D02*
G75*
G02*
X54290000Y-86360000I950000J0D01*
G01*
%TO.C,C8*%
X27043748Y-134520000D02*
X27566252Y-134520000D01*
X27043748Y-135990000D02*
X27566252Y-135990000D01*
%TO.C,C16*%
X13829420Y-64895000D02*
X14110580Y-64895000D01*
X13829420Y-65915000D02*
X14110580Y-65915000D01*
%TO.C,R4*%
X36676359Y-75185000D02*
X36983641Y-75185000D01*
X36676359Y-75945000D02*
X36983641Y-75945000D01*
%TO.C,C7*%
X47517164Y-136165000D02*
X47732836Y-136165000D01*
X47517164Y-136885000D02*
X47732836Y-136885000D01*
%TO.C,R3*%
X36676359Y-72645000D02*
X36983641Y-72645000D01*
X36676359Y-73405000D02*
X36983641Y-73405000D01*
%TO.C,U6*%
X65130000Y-64480000D02*
X65130000Y-64530000D01*
X65130000Y-67550000D02*
X65130000Y-67600000D01*
X65130000Y-67600000D02*
X66950000Y-67600000D01*
X66950000Y-64480000D02*
X65130000Y-64480000D01*
X66950000Y-64530000D02*
X66950000Y-64480000D01*
X66950000Y-67600000D02*
X66950000Y-67550000D01*
X64590000Y-67550000D02*
X64350000Y-67880000D01*
X64830000Y-67880000D01*
X64590000Y-67550000D01*
G36*
X64830000Y-67880000D02*
G01*
X64350000Y-67880000D01*
X64590000Y-67550000D01*
X64830000Y-67880000D01*
G37*
%TO.C,C9*%
X27197164Y-137435000D02*
X27412836Y-137435000D01*
X27197164Y-138155000D02*
X27412836Y-138155000D01*
%TO.C,D3*%
X10340000Y-78375000D02*
X14350000Y-78375000D01*
X10340000Y-80375000D02*
X10340000Y-78375000D01*
X10340000Y-80375000D02*
X14350000Y-80375000D01*
%TO.C,C18*%
X8114420Y-75055000D02*
X8395580Y-75055000D01*
X8114420Y-76075000D02*
X8395580Y-76075000D01*
%TO.C,U3*%
D12*
X31675000Y-89900000D02*
G75*
G02*
X31465000Y-89900000I-105000J0D01*
G01*
X31465000Y-89900000D02*
G75*
G02*
X31675000Y-89900000I105000J0D01*
G01*
%TO.C,R22*%
D11*
X63346359Y-70105000D02*
X63653641Y-70105000D01*
X63346359Y-70865000D02*
X63653641Y-70865000D01*
%TO.C,C4*%
X32758748Y-91975000D02*
X33281252Y-91975000D01*
X32758748Y-93445000D02*
X33281252Y-93445000D01*
%TO.C,L1*%
X40889000Y-91054000D02*
X40889000Y-86746000D01*
X36581000Y-86746000D02*
X36581000Y-91054000D01*
%TO.C,U5*%
X29925000Y-144100000D02*
X29925000Y-141650000D01*
X29925000Y-144100000D02*
X32375000Y-144100000D01*
X30200000Y-123150000D02*
X30200000Y-143850000D01*
X30200000Y-143850000D02*
X45800000Y-143850000D01*
X45800000Y-123150000D02*
X30200000Y-123150000D01*
X45800000Y-143850000D02*
X45800000Y-123150000D01*
X30025000Y-136900000D02*
X29689000Y-136660000D01*
X29689000Y-137140000D01*
X30025000Y-136900000D01*
G36*
X30025000Y-136900000D02*
G01*
X29689000Y-137140000D01*
X29689000Y-136660000D01*
X30025000Y-136900000D01*
G37*
%TO.C,R16*%
X64616359Y-108205000D02*
X64923641Y-108205000D01*
X64616359Y-108965000D02*
X64923641Y-108965000D01*
%TO.C,R20*%
X48741359Y-4065000D02*
X49048641Y-4065000D01*
X48741359Y-4825000D02*
X49048641Y-4825000D01*
%TO.C,C21*%
X60184420Y-61085000D02*
X60465580Y-61085000D01*
X60184420Y-62105000D02*
X60465580Y-62105000D01*
%TO.C,C12*%
X11924420Y-59815000D02*
X12205580Y-59815000D01*
X11924420Y-60835000D02*
X12205580Y-60835000D01*
%TO.C,C20*%
X70858748Y-60860000D02*
X71381252Y-60860000D01*
X70858748Y-62330000D02*
X71381252Y-62330000D01*
%TO.C,C17*%
X20179420Y-72515000D02*
X20460580Y-72515000D01*
X20179420Y-73535000D02*
X20460580Y-73535000D01*
%TO.C,R7*%
X28421359Y-68200000D02*
X28728641Y-68200000D01*
X28421359Y-68960000D02*
X28728641Y-68960000D01*
%TO.C,C11*%
X7479420Y-59815000D02*
X7760580Y-59815000D01*
X7479420Y-60835000D02*
X7760580Y-60835000D01*
%TO.C,C22*%
X71012164Y-65045000D02*
X71227836Y-65045000D01*
X71012164Y-65765000D02*
X71227836Y-65765000D01*
%TO.C,R11*%
X11276359Y-87250000D02*
X11583641Y-87250000D01*
X11276359Y-88010000D02*
X11583641Y-88010000D01*
%TO.C,D6*%
X63680000Y-60595000D02*
X67690000Y-60595000D01*
X63680000Y-62595000D02*
X63680000Y-60595000D01*
X63680000Y-62595000D02*
X67690000Y-62595000D01*
%TO.C,R6*%
X39851359Y-70105000D02*
X40158641Y-70105000D01*
X39851359Y-70865000D02*
X40158641Y-70865000D01*
%TO.C,D4*%
D10*
X27580000Y-300000D02*
X27580000Y-1500000D01*
%TO.C,J2*%
D11*
X6740000Y-20840000D02*
X6740000Y-22990000D01*
X6740000Y-36310000D02*
X6740000Y-39460000D01*
X6740000Y-39460000D02*
X10390000Y-39460000D01*
X10390000Y-20390000D02*
X10390000Y-20840000D01*
X10390000Y-20840000D02*
X6740000Y-20840000D01*
X10390000Y-39460000D02*
X10390000Y-39910000D01*
X10390000Y-39910000D02*
X12110000Y-39910000D01*
X12110000Y-20390000D02*
X10390000Y-20390000D01*
X12110000Y-39910000D02*
X12110000Y-20390000D01*
X6850000Y-23930000D02*
X7090000Y-23600000D01*
X6610000Y-23600000D01*
X6850000Y-23930000D01*
G36*
X6850000Y-23930000D02*
G01*
X6610000Y-23600000D01*
X7090000Y-23600000D01*
X6850000Y-23930000D01*
G37*
%TO.C,R5*%
X36676359Y-70105000D02*
X36983641Y-70105000D01*
X36676359Y-70865000D02*
X36983641Y-70865000D01*
%TO.C,R21*%
X70966359Y-67565000D02*
X71273641Y-67565000D01*
X70966359Y-68325000D02*
X71273641Y-68325000D01*
%TO.C,C13*%
X3034420Y-62355000D02*
X3315580Y-62355000D01*
X3034420Y-63375000D02*
X3315580Y-63375000D01*
%TO.C,D1*%
X17960000Y-68850000D02*
X21970000Y-68850000D01*
X17960000Y-70850000D02*
X17960000Y-68850000D01*
X17960000Y-70850000D02*
X21970000Y-70850000D01*
%TO.C,R14*%
X4926359Y-70105000D02*
X5233641Y-70105000D01*
X4926359Y-70865000D02*
X5233641Y-70865000D01*
%TO.C,TP6*%
X51750000Y-88900000D02*
G75*
G02*
X49850000Y-88900000I-950000J0D01*
G01*
X49850000Y-88900000D02*
G75*
G02*
X51750000Y-88900000I950000J0D01*
G01*
%TO.C,R23*%
X66521359Y-70105000D02*
X66828641Y-70105000D01*
X66521359Y-70865000D02*
X66828641Y-70865000D01*
%TO.C,R17*%
X23976359Y-4065000D02*
X24283641Y-4065000D01*
X23976359Y-4825000D02*
X24283641Y-4825000D01*
%TO.C,LS1*%
X58650000Y-111990000D02*
X58650000Y-115850000D01*
X58650000Y-120370000D02*
X58350000Y-120370000D01*
X58650000Y-120370000D02*
X58650000Y-124230000D01*
X58650000Y-124230000D02*
X70890000Y-124230000D01*
X70890000Y-111990000D02*
X58650000Y-111990000D01*
X70890000Y-115850000D02*
X70890000Y-111990000D01*
X70890000Y-124230000D02*
X70890000Y-120370000D01*
%TO.C,TP7*%
X54290000Y-88900000D02*
G75*
G02*
X52390000Y-88900000I-950000J0D01*
G01*
X52390000Y-88900000D02*
G75*
G02*
X54290000Y-88900000I950000J0D01*
G01*
%TO.C,R1*%
X30961359Y-9780000D02*
X31268641Y-9780000D01*
X30961359Y-10540000D02*
X31268641Y-10540000D01*
%TO.C,C14*%
X7479420Y-62355000D02*
X7760580Y-62355000D01*
X7479420Y-63375000D02*
X7760580Y-63375000D01*
%TO.C,R8*%
X28421359Y-94870000D02*
X28728641Y-94870000D01*
X28421359Y-95630000D02*
X28728641Y-95630000D01*
%TO.C,R12*%
X11276359Y-89790000D02*
X11583641Y-89790000D01*
X11276359Y-90550000D02*
X11583641Y-90550000D01*
%TO.C,C6*%
X3702164Y-89175000D02*
X3917836Y-89175000D01*
X3702164Y-89895000D02*
X3917836Y-89895000D01*
%TO.C,U4*%
X6924432Y-90035000D02*
X8730000Y-90035000D01*
X8730000Y-87765000D02*
X6510000Y-87765000D01*
X6630000Y-90040000D02*
X6490000Y-90230000D01*
X6770000Y-90230000D01*
X6630000Y-90040000D01*
G36*
X6770000Y-90230000D02*
G01*
X6490000Y-90230000D01*
X6630000Y-90040000D01*
X6770000Y-90230000D01*
G37*
%TO.C,L2*%
X11585000Y-69010000D02*
X11585000Y-70035000D01*
X11585000Y-69010000D02*
X12610000Y-69010000D01*
X11585000Y-73230000D02*
X11585000Y-72205000D01*
X11585000Y-73230000D02*
X12610000Y-73230000D01*
X16355000Y-69010000D02*
X15330000Y-69010000D01*
X16355000Y-69010000D02*
X16355000Y-70035000D01*
X16355000Y-73230000D02*
X15330000Y-73230000D01*
X16355000Y-73230000D02*
X16355000Y-72205000D01*
%TO.C,Q1*%
X8155000Y-70955000D02*
X8155000Y-71285000D01*
X8155000Y-72255000D02*
X9625000Y-72255000D01*
X9625000Y-69985000D02*
X8155000Y-69985000D01*
X9625000Y-70635000D02*
X9625000Y-69985000D01*
X9625000Y-72255000D02*
X9625000Y-71605000D01*
X7710000Y-71280000D02*
X7850000Y-71090000D01*
X7570000Y-71090000D01*
X7710000Y-71280000D01*
G36*
X7710000Y-71280000D02*
G01*
X7570000Y-71090000D01*
X7850000Y-71090000D01*
X7710000Y-71280000D01*
G37*
%TO.C,R10*%
X28421359Y-92330000D02*
X28728641Y-92330000D01*
X28421359Y-93090000D02*
X28728641Y-93090000D01*
%TO.C,SW40*%
X58250000Y-3300000D02*
X58250000Y-2300000D01*
X58250000Y-3300000D02*
X58850000Y-3300000D01*
X59650000Y-500000D02*
X61650000Y-500000D01*
X62450000Y-3300000D02*
X63050000Y-3300000D01*
X63050000Y-3300000D02*
X63050000Y-2300000D01*
%TO.C,TP10*%
X51750000Y-136525000D02*
G75*
G02*
X49850000Y-136525000I-950000J0D01*
G01*
X49850000Y-136525000D02*
G75*
G02*
X51750000Y-136525000I950000J0D01*
G01*
%TO.C,C10*%
X3034420Y-59815000D02*
X3315580Y-59815000D01*
X3034420Y-60835000D02*
X3315580Y-60835000D01*
%TO.C,J1*%
X33330000Y-2575000D02*
X33330000Y-4275000D01*
X42670000Y-2575000D02*
X42670000Y-4275000D01*
%TO.C,C15*%
X11924420Y-62355000D02*
X12205580Y-62355000D01*
X11924420Y-63375000D02*
X12205580Y-63375000D01*
%TO.C,TP8*%
X49210000Y-130810000D02*
G75*
G02*
X47310000Y-130810000I-950000J0D01*
G01*
X47310000Y-130810000D02*
G75*
G02*
X49210000Y-130810000I950000J0D01*
G01*
%TO.C,R15*%
X4926359Y-72645000D02*
X5233641Y-72645000D01*
X4926359Y-73405000D02*
X5233641Y-73405000D01*
%TO.C,C5*%
X36722164Y-92350000D02*
X36937836Y-92350000D01*
X36722164Y-93070000D02*
X36937836Y-93070000D01*
%TO.C,C19*%
X18909420Y-78865000D02*
X19190580Y-78865000D01*
X18909420Y-79885000D02*
X19190580Y-79885000D01*
%TO.C,R13*%
X47471359Y-133605000D02*
X47778641Y-133605000D01*
X47471359Y-134365000D02*
X47778641Y-134365000D01*
%TO.C,Q2*%
X24640000Y-7330000D02*
X24640000Y-7380000D01*
X24640000Y-8500000D02*
X24640000Y-9280000D01*
X24640000Y-10400000D02*
X24640000Y-10450000D01*
X24640000Y-10450000D02*
X26160000Y-10450000D01*
X26160000Y-7330000D02*
X24640000Y-7330000D01*
X26160000Y-8330000D02*
X26160000Y-7330000D01*
X26160000Y-10450000D02*
X26160000Y-9450000D01*
X24100000Y-9270000D02*
X24340000Y-8940000D01*
X23860000Y-8940000D01*
X24100000Y-9270000D01*
G36*
X24100000Y-9270000D02*
G01*
X23860000Y-8940000D01*
X24340000Y-8940000D01*
X24100000Y-9270000D01*
G37*
%TO.C,D5*%
D10*
X52720000Y-300000D02*
X52720000Y-1800000D01*
%TO.C,R9*%
D11*
X28421359Y-89790000D02*
X28728641Y-89790000D01*
X28421359Y-90550000D02*
X28728641Y-90550000D01*
%TO.C,U2*%
X32290748Y-73550000D02*
X34130000Y-73550000D01*
X34130000Y-71230000D02*
X31910000Y-71230000D01*
X32000000Y-73560000D02*
X31860000Y-73750000D01*
X32140000Y-73750000D01*
X32000000Y-73560000D01*
G36*
X32140000Y-73750000D02*
G01*
X31860000Y-73750000D01*
X32000000Y-73560000D01*
X32140000Y-73750000D01*
G37*
%TO.C,TP9*%
X49210000Y-128270000D02*
G75*
G02*
X47310000Y-128270000I-950000J0D01*
G01*
X47310000Y-128270000D02*
G75*
G02*
X49210000Y-128270000I950000J0D01*
G01*
%TO.C,BT1*%
X46740000Y-61460000D02*
X47760000Y-61460000D01*
X46740000Y-65710000D02*
X46740000Y-61460000D01*
X47760000Y-61460000D02*
X47760000Y-63060000D01*
X47760000Y-63060000D02*
X49040000Y-63060000D01*
X52560000Y-63060000D02*
X52560000Y-60170000D01*
X53140000Y-69280000D02*
X48460000Y-69280000D01*
X53840000Y-61460000D02*
X53840000Y-63060000D01*
X53840000Y-63060000D02*
X52560000Y-63060000D01*
X54860000Y-61460000D02*
X53840000Y-61460000D01*
X54860000Y-65710000D02*
X54860000Y-61460000D01*
%TO.C,C3*%
X28313748Y-74195000D02*
X28836252Y-74195000D01*
X28313748Y-75665000D02*
X28836252Y-75665000D01*
%TO.C,SW39*%
X68910000Y-3300000D02*
X68910000Y-2300000D01*
X68910000Y-3300000D02*
X69510000Y-3300000D01*
X70310000Y-500000D02*
X72310000Y-500000D01*
X73110000Y-3300000D02*
X73710000Y-3300000D01*
X73710000Y-3300000D02*
X73710000Y-2300000D01*
%TO.C,U1*%
D13*
X37212500Y-11160000D02*
G75*
G02*
X36987500Y-11160000I-112500J0D01*
G01*
X36987500Y-11160000D02*
G75*
G02*
X37212500Y-11160000I112500J0D01*
G01*
%TD*%
M02*
