M48
; DRILL file KiCad 10.0.3 date 2026-09-28T13:11:05
; FORMAT={-:-/ absolute / metric / decimal}
; #@! TF.CreationDate,2026-09-28T13:11:05+01:00
; #@! TF.GenerationSoftware,Kicad,Pcbnew,10.0.3
; #@! TF.FileFunction,Plated,1,4,PTH
FMAT,2
METRIC
; #@! TA.AperFunction,Plated,PTH,ViaDrill
T1C0.300
; #@! TA.AperFunction,Plated,PTH,ViaDrill
T2C0.400
; #@! TA.AperFunction,Plated,PTH,ComponentDrill
T3C0.600
%
G90
G05
T1
X1.25Y-60.75
X3.7Y-57.65
X3.9Y-82.0
X4.35Y-37.0
X5.6Y-102.85
X5.6Y-105.15
X5.75Y-29.0
X5.8Y-25.7
X5.8Y-32.55
X5.95Y-29.9
X6.65Y-69.15
X6.7Y-78.85
X6.7Y-79.7
X7.15Y-90.85
X7.15Y-93.15
X7.75Y-27.9
X7.75Y-39.55
X7.75Y-66.85
X7.75Y-67.95
X7.9Y-114.85
X7.9Y-117.15
X7.95Y-25.8
X7.95Y-27.05
X8.1Y-33.1
X8.2Y-126.85
X8.2Y-129.15
X8.45Y-56.3
X8.6Y-57.15
X9.3Y-33.6
X9.6Y-82.0
X9.9Y-37.9
X9.95Y-65.65
X10.4Y-32.25
X10.55Y-67.7
X10.55Y-69.3
X11.0Y-50.05
X11.6Y-84.25
X11.6Y-132.3
X12.8Y-33.75
X12.9Y-63.7
X12.95Y-78.55
X12.95Y-79.7
X12.95Y-81.3
X13.5Y-60.95
X13.65Y-32.9
X13.8Y-75.8
X13.8Y-77.7
X14.0Y-66.2
X14.05Y-64.55
X14.2Y-67.7
X14.2Y-69.3
X14.35Y-84.25
X14.4Y-78.25
X14.4Y-81.3
X14.4Y-82.75
X15.6Y-82.75
X15.8Y-36.75
X16.0Y-35.55
X17.0Y-47.7
X17.0Y-48.5
X17.1Y-67.7
X17.1Y-69.3
X17.3Y-94.65
X17.4Y-111.2
X17.4Y-120.05
X17.9Y-95.2
X18.7Y-103.3
X18.75Y-94.35
X19.0Y-47.7
X19.85Y-47.7
X19.9Y-105.15
X20.0Y-102.9
X20.9Y-92.4
X21.05Y-66.85
X21.05Y-67.7
X22.05Y-78.05
X22.55Y-82.45
X23.4Y-79.7
X23.4Y-81.3
X23.6Y-91.5
X23.9Y-8.6
X23.9Y-82.05
X24.0Y-67.2
X24.55Y-88.15
X24.75Y-67.55
X25.3Y-71.7
X25.3Y-72.5
X25.3Y-79.7
X25.4Y-89.0
X25.9Y-79.1
X25.95Y-126.95
X25.95Y-129.0
X26.0Y-82.15
X26.4Y-103.05
X26.6Y-72.05
X26.75Y-79.7
X26.85Y-105.35
X26.9Y-73.1
X26.9Y-73.85
X27.2Y-103.0
X27.55Y-79.65
X27.6Y-69.2
X27.6Y-116.55
X27.6Y-118.15
X27.7Y-106.2
X27.75Y-78.15
X28.15Y-89.25
X28.15Y-91.0
X28.4Y-101.05
X28.4Y-103.0
X28.4Y-104.45
X28.45Y-137.95
X28.5Y-112.5
X28.55Y-136.5
X29.0Y-93.4
X29.05Y-128.15
X29.1Y-94.55
X29.15Y-90.85
X29.15Y-98.2
X29.15Y-135.7
X29.2Y-132.1
X29.55Y-134.2
X29.55Y-135.0
X29.65Y-127.3
X30.0Y-92.25
X30.1Y-100.05
X30.25Y-137.15
X30.25Y-137.75
X30.25Y-138.35
X30.3Y-95.4
X30.45Y-124.85
X30.55Y-90.85
X30.65Y-125.9
X30.9Y-134.25
X31.2Y-69.05
X31.4Y-66.85
X31.5Y-10.85
X31.65Y-103.8
X31.75Y-98.6
X31.75Y-136.2
X31.75Y-137.05
X31.8Y-100.25
X32.0Y-69.15
X32.05Y-123.95
X32.15Y-124.95
X32.4Y-131.9
X32.4Y-134.55
X32.4Y-135.85
X32.5Y-137.25
X32.75Y-78.85
X32.75Y-136.65
X32.95Y-131.15
X33.15Y-129.95
X33.25Y-114.1
X33.35Y-137.25
X33.6Y-104.75
X33.75Y-117.45
X34.05Y-103.5
X34.2Y-81.6
X34.35Y-129.55
X34.4Y-56.8
X34.45Y-10.8
X34.45Y-78.15
X34.45Y-116.45
X34.5Y-69.1
X34.5Y-126.65
X35.15Y-104.6
X35.3Y-69.1
X35.45Y-103.4
X35.5Y-79.9
X35.6Y-77.0
X35.6Y-115.65
X35.9Y-68.15
X36.55Y-53.55
X36.55Y-54.55
X36.6Y-72.6
X36.65Y-104.4
X37.05Y-55.9
X37.05Y-56.75
X37.05Y-57.9
X37.1Y-82.2
X37.3Y-73.7
X37.4Y-83.8
X37.65Y-69.2
X37.65Y-71.15
X37.85Y-92.25
X37.85Y-115.6
X38.0Y-75.45
X38.3Y-18.6
X38.45Y-89.05
X38.65Y-92.2
X38.9Y-77.75
X39.15Y-10.15
X39.2Y-68.15
X39.2Y-71.3
X39.2Y-73.75
X39.4Y-84.25
X39.45Y-19.75
X39.45Y-92.4
X39.6Y-54.55
X39.6Y-56.75
X39.6Y-59.2
X40.3Y-77.15
X40.55Y-116.65
X40.8Y-57.9
X40.8Y-104.6
X41.0Y-127.5
X41.2Y-78.05
X41.4Y-90.6
X41.4Y-92.2
X41.7Y-104.55
X41.75Y-105.55
X41.9Y-115.2
X42.05Y-78.65
X42.1Y-102.4
X42.1Y-103.25
X42.2Y-92.2
X42.75Y-137.15
X42.9Y-131.0
X42.95Y-95.05
X43.2Y-79.7
X43.2Y-115.5
X43.2Y-136.7
X43.25Y-127.15
X43.6Y-111.7
X43.6Y-135.55
X44.05Y-124.9
X44.05Y-132.75
X44.1Y-127.15
X44.1Y-127.95
X44.1Y-131.5
X44.25Y-135.05
X44.35Y-113.45
X44.4Y-79.7
X45.0Y-123.2
X45.1Y-125.05
X45.15Y-122.3
X45.75Y-134.25
X45.75Y-137.65
X45.75Y-138.3
X45.8Y-66.85
X45.8Y-69.15
X45.95Y-92.2
X46.0Y-116.05
X46.3Y-135.25
X46.5Y-90.6
X46.5Y-137.35
X46.65Y-93.85
X46.65Y-136.55
X46.95Y-81.85
X47.15Y-132.65
X47.2Y-79.65
X47.3Y-90.6
X47.55Y-125.65
X47.85Y-119.25
X48.15Y-81.9
X48.2Y-90.6
X48.2Y-92.2
X48.4Y-83.25
X48.5Y-89.5
X48.85Y-127.15
X48.9Y-78.4
X49.35Y-79.7
X49.35Y-82.2
X49.45Y-127.8
X49.7Y-59.8
X49.75Y-88.2
X49.75Y-92.2
X49.75Y-104.15
X49.8Y-117.25
X50.05Y-102.95
X50.15Y-79.7
X50.15Y-81.3
X50.45Y-104.6
X50.5Y-115.4
X50.55Y-57.5
X50.8Y-127.6
X51.1Y-90.6
X51.75Y-128.4
X52.1Y-104.15
X52.15Y-57.5
X52.5Y-92.2
X52.85Y-83.05
X53.4Y-90.0
X53.85Y-78.0
X53.85Y-82.05
X54.0Y-69.9
X56.0Y-66.85
X56.1Y-129.2
X57.85Y-128.25
X58.2Y-117.0
X58.45Y-127.65
X58.7Y-129.1
X59.25Y-102.0
X59.3Y-129.7
X59.65Y-111.85
X59.65Y-113.95
X59.9Y-89.7
X60.1Y-67.7
X60.1Y-69.3
X60.1Y-101.15
X60.85Y-112.45
X61.45Y-111.85
X61.6Y-60.7
X62.2Y-58.4
X62.4Y-124.1
X62.8Y-95.3
X63.4Y-58.4
X63.9Y-67.7
X63.9Y-69.3
X64.85Y-129.25
X65.1Y-105.0
X66.05Y-65.65
X66.4Y-103.6
X67.0Y-90.65
X69.15Y-78.85
X69.15Y-81.15
X71.1Y-68.65
X71.95Y-69.5
X73.5Y-51.45
X74.0Y-71.95
X74.1Y-63.7
T2
X1.5Y-64.0
X1.5Y-72.5
X1.5Y-81.0
X1.774Y-59.836
X3.81Y-55.6
X6.11Y-31.688
X7.59Y-31.612
X8.5Y-68.5
X11.5Y-76.5
X12.445Y-73.7
X12.48Y-87.63
X12.48Y-90.17
X13.195Y-66.7
X14.67Y-59.491
X16.0Y-66.0
X22.5Y-79.5
X23.0Y-69.0
X24.492Y-1.014
X26.756Y-129.524
X26.971Y-138.304
X29.625Y-68.58
X29.9Y-80.5
X31.72Y-135.2
X32.19Y-96.153
X32.248Y-97.265
X32.5Y-80.5
X33.0Y-94.0
X35.6Y-7.4
X36.0Y-90.5
X36.653Y-84.338
X39.0Y-86.5
X40.4Y-7.4
X40.403Y-69.957
X47.248Y-135.12
X49.402Y-1.962
X51.77Y-88.9
X60.5Y-70.5
X63.0Y-67.0
X64.0Y-63.0
X65.0Y-71.0
X67.0Y-68.5
X72.0Y-66.5
X73.0Y-70.5
T3
G00X33.68Y-1.0
M15
G01X33.68Y-1.8
M16
G05
G00X33.68Y-5.03
M15
G01X33.68Y-6.13
M16
G05
G00X42.32Y-1.0
M15
G01X42.32Y-1.8
M16
G05
G00X42.32Y-5.03
M15
G01X42.32Y-6.13
M16
G05
M30
